<?xml version="1.0" standalone="no"?>
 <!DOCTYPE svg PUBLIC "-//W3C//DTD SVG 1.1//EN" 
 "http://www.w3.org/Graphics/SVG/1.1/DTD/svg11.dtd"> 
<svg
  xmlns:svg="http://www.w3.org/2000/svg"
  xmlns="http://www.w3.org/2000/svg"
  xmlns:xlink="http://www.w3.org/1999/xlink"
  xmlns:inkscape="http://www.inkscape.org/namespaces/inkscape"
  version="1.1"
  width="23.9776mm" height="25.9842mm" viewBox="0.0000 0.0000 23.9776 25.9842">
<title>SVG Image created as halo-90-In1_Cu.svg date 2026-07-17T22:03:58 </title>
  <desc>Image generated by PCBNEW </desc>
<g style="fill:#000000; fill-opacity:1.0000;stroke:#000000; stroke-opacity:1.0000;
stroke-linecap:round; stroke-linejoin:round;"
 transform="translate(0 0) scale(1 1)">
</g>
<g style="fill:#7FC87F; fill-opacity:1.0000; stroke:none;">
<circle cx="11.9975" cy="1.0021" r="0.7500" /> 
<circle cx="18.1794" cy="16.0107" r="0.2250" /> 
<circle cx="17.2561" cy="17.8227" r="0.2250" /> 
<circle cx="9.9889" cy="20.1840" r="0.2250" /> 
<circle cx="9.9889" cy="7.8202" r="0.2250" /> 
<circle cx="14.0061" cy="20.1840" r="0.2250" /> 
<circle cx="18.4975" cy="14.0021" r="0.2250" /> 
<circle cx="8.1769" cy="19.2607" r="0.2250" /> 
<circle cx="15.8181" cy="19.2607" r="0.2250" /> 
<circle cx="11.9975" cy="20.5021" r="0.2250" /> 
<circle cx="11.9975" cy="7.5021" r="0.2250" /> 
<circle cx="2.7257" cy="10.2560" r="0.2250" /> 
<circle cx="6.6983" cy="5.5216" r="0.2250" /> 
<circle cx="12.6951" cy="4.0265" r="0.2250" /> 
<circle cx="2.8282" cy="16.2883" r="0.2250" /> 
<circle cx="20.7594" cy="17.5421" r="0.2250" /> 
<circle cx="11.3383" cy="23.4291" r="0.2250" /> 
<circle cx="5.9232" cy="21.2412" r="0.2250" /> 
<circle cx="18.0718" cy="6.7630" r="0.2250" /> 
<circle cx="18.4254" cy="6.3417" r="0.2250" /> 
<circle cx="21.1668" cy="11.7159" r="0.2250" /> 
<circle cx="5.5696" cy="21.6625" r="0.2250" /> 
<circle cx="3.2356" cy="10.4621" r="0.2250" /> 
<circle cx="12.6567" cy="4.5751" r="0.2250" /> 
<circle cx="18.1794" cy="11.9935" r="0.2250" /> 
<circle cx="21.2693" cy="17.7482" r="0.2250" /> 
<circle cx="11.2999" cy="23.9777" r="0.2250" /> 
<circle cx="2.2945" cy="16.4213" r="0.2250" /> 
<circle cx="21.7005" cy="11.5829" r="0.2250" /> 
<circle cx="6.9898" cy="5.9880" r="0.2250" /> 
<circle cx="4.0562" cy="11.4218" r="0.2250" /> 
<circle cx="17.8754" cy="22.0923" r="0.2250" /> 
<circle cx="5.8156" cy="16.0107" r="0.2250" /> 
<circle cx="17.8754" cy="5.9119" r="0.2250" /> 
<circle cx="21.5081" cy="17.0923" r="0.2250" /> 
<circle cx="16.9055" cy="20.7574" r="0.2250" /> 
<circle cx="11.9975" cy="5.6521" r="0.2250" /> 
<circle cx="7.0895" cy="7.2468" r="0.2250" /> 
<circle cx="2.4869" cy="17.0923" r="0.2250" /> 
<circle cx="16.9055" cy="7.2468" r="0.2250" /> 
<circle cx="19.9388" cy="11.4218" r="0.2250" /> 
<circle cx="19.9388" cy="16.5824" r="0.2250" /> 
<circle cx="4.0562" cy="16.5824" r="0.2250" /> 
<circle cx="11.9975" cy="22.3521" r="0.2250" /> 
<circle cx="21.5081" cy="10.9119" r="0.2250" /> 
<circle cx="6.1196" cy="5.9119" r="0.2250" /> 
<circle cx="11.9975" cy="4.0021" r="0.2250" /> 
<circle cx="2.4869" cy="10.9119" r="0.2250" /> 
<circle cx="11.9975" cy="24.0021" r="0.2250" /> 
<circle cx="5.5696" cy="6.3417" r="0.2250" /> 
<circle cx="16.7138" cy="6.4545" r="0.2250" /> 
<circle cx="17.7183" cy="20.8199" r="0.2250" /> 
<circle cx="17.2967" cy="5.5216" r="0.2250" /> 
<circle cx="6.2767" cy="7.1843" r="0.2250" /> 
<circle cx="2.2945" cy="11.5829" r="0.2250" /> 
<circle cx="21.7005" cy="16.4213" r="0.2250" /> 
<circle cx="21.2693" cy="10.2560" r="0.2250" /> 
<circle cx="11.3767" cy="5.1238" r="0.2250" /> 
<circle cx="6.1196" cy="22.0923" r="0.2250" /> 
<circle cx="18.4254" cy="21.6625" r="0.2250" /> 
<circle cx="6.7389" cy="17.8227" r="0.2250" /> 
<circle cx="3.3619" cy="11.8490" r="0.2250" /> 
<circle cx="12.6951" cy="23.9777" r="0.2250" /> 
<circle cx="11.2999" cy="4.0265" r="0.2250" /> 
<circle cx="20.2494" cy="10.6681" r="0.2250" /> 
<circle cx="6.7662" cy="21.2024" r="0.2250" /> 
<circle cx="20.6331" cy="16.1552" r="0.2250" /> 
<circle cx="12.6183" cy="22.8804" r="0.2250" /> 
<circle cx="16.6922" cy="5.1726" r="0.2250" /> 
<circle cx="21.3039" cy="15.6431" r="0.2250" /> 
<circle cx="17.2561" cy="10.1815" r="0.2250" /> 
<circle cx="20.9854" cy="9.6184" r="0.2250" /> 
<circle cx="2.7257" cy="17.7482" r="0.2250" /> 
<circle cx="10.6058" cy="4.0994" r="0.2250" /> 
<circle cx="5.0509" cy="6.8087" r="0.2250" /> 
<circle cx="18.9441" cy="21.1955" r="0.2250" /> 
<circle cx="13.3892" cy="23.9048" r="0.2250" /> 
<circle cx="6.6983" cy="22.4826" r="0.2250" /> 
<circle cx="2.1494" cy="12.2656" r="0.2250" /> 
<circle cx="20.6578" cy="9.0021" r="0.2250" /> 
<circle cx="7.3028" cy="22.8316" r="0.2250" /> 
<circle cx="3.0096" cy="18.3858" r="0.2250" /> 
<circle cx="19.4289" cy="20.6934" r="0.2250" /> 
<circle cx="21.9427" cy="15.0474" r="0.2250" /> 
<circle cx="13.7336" cy="22.1696" r="0.2250" /> 
<circle cx="16.0649" cy="4.8666" r="0.2250" /> 
<circle cx="9.9184" cy="4.2206" r="0.2250" /> 
<circle cx="10.2614" cy="5.8346" r="0.2250" /> 
<circle cx="4.4926" cy="17.6625" r="0.2250" /> 
<circle cx="18.2028" cy="19.5893" r="0.2250" /> 
<circle cx="19.2288" cy="9.8271" r="0.2250" /> 
<circle cx="15.3938" cy="6.3740" r="0.2250" /> 
<circle cx="5.8156" cy="11.9935" r="0.2250" /> 
<circle cx="3.9975" cy="12.5021" r="0.2250" /> 
<circle cx="14.0766" cy="23.7836" r="0.2250" /> 
<circle cx="8.0774" cy="21.3747" r="0.2250" /> 
<circle cx="20.3018" cy="14.8749" r="0.2250" /> 
<circle cx="14.7539" cy="23.6147" r="0.2250" /> 
<circle cx="4.2899" cy="18.4521" r="0.2250" /> 
<circle cx="7.9301" cy="23.1376" r="0.2250" /> 
<circle cx="21.9914" cy="14.3511" r="0.2250" /> 
<circle cx="15.4177" cy="4.6052" r="0.2250" /> 
<circle cx="19.8776" cy="20.1587" r="0.2250" /> 
<circle cx="8.3775" cy="22.1327" r="0.2250" /> 
<circle cx="3.3372" cy="19.0021" r="0.2250" /> 
<circle cx="20.2879" cy="8.4102" r="0.2250" /> 
<circle cx="19.3759" cy="9.0253" r="0.2250" /> 
<circle cx="14.4507" cy="22.5573" r="0.2250" /> 
<circle cx="5.3835" cy="8.0468" r="0.2250" /> 
<circle cx="2.0523" cy="12.9568" r="0.2250" /> 
<circle cx="19.0108" cy="19.4815" r="0.2250" /> 
<circle cx="20.8921" cy="14.3127" r="0.2250" /> 
<circle cx="4.5661" cy="7.3108" r="0.2250" /> 
<circle cx="15.0415" cy="5.6388" r="0.2250" /> 
<circle cx="6.7389" cy="10.1815" r="0.2250" /> 
<circle cx="3.1463" cy="13.0718" r="0.2250" /> 
<circle cx="4.1631" cy="19.2865" r="0.2250" /> 
<circle cx="21.4417" cy="13.6723" r="0.2250" /> 
<circle cx="20.2879" cy="19.5940" r="0.2250" /> 
<circle cx="19.8319" cy="19.2865" r="0.2250" /> 
<circle cx="15.2296" cy="22.8822" r="0.2250" /> 
<circle cx="4.1174" cy="7.8455" r="0.2250" /> 
<circle cx="15.4177" cy="23.3990" r="0.2250" /> 
<circle cx="8.5773" cy="23.3990" r="0.2250" /> 
<circle cx="9.2411" cy="4.3895" r="0.2250" /> 
<circle cx="3.7071" cy="19.5940" r="0.2250" /> 
<circle cx="19.8776" cy="7.8455" r="0.2250" /> 
<circle cx="8.1769" cy="8.7435" r="0.2250" /> 
<circle cx="19.4442" cy="8.1841" r="0.2250" /> 
<circle cx="2.0036" cy="13.6531" r="0.2250" /> 
<circle cx="21.9914" cy="13.6531" r="0.2250" /> 
<circle cx="2.5533" cy="13.6723" r="0.2250" /> 
<circle cx="8.7654" cy="22.8822" r="0.2250" /> 
<circle cx="4.5508" cy="8.1841" r="0.2250" /> 
<circle cx="9.3927" cy="4.9182" r="0.2250" /> 
<circle cx="14.0061" cy="7.8202" r="0.2250" /> 
<circle cx="9.2411" cy="23.6147" r="0.2250" /> 
<circle cx="20.6578" cy="19.0021" r="0.2250" /> 
<circle cx="21.9427" cy="12.9568" r="0.2250" /> 
<circle cx="4.1174" cy="20.1587" r="0.2250" /> 
<circle cx="8.5773" cy="4.6052" r="0.2250" /> 
<circle cx="16.0649" cy="23.1376" r="0.2250" /> 
<circle cx="2.0036" cy="14.3511" r="0.2250" /> 
<circle cx="3.7071" cy="8.4102" r="0.2250" /> 
<circle cx="14.7539" cy="4.3895" r="0.2250" /> 
<circle cx="10.2614" cy="22.1696" r="0.2250" /> 
<circle cx="3.6932" cy="14.8749" r="0.2250" /> 
<circle cx="3.3372" cy="9.0021" r="0.2250" /> 
<circle cx="16.6922" cy="22.8316" r="0.2250" /> 
<circle cx="14.0766" cy="4.2206" r="0.2250" /> 
<circle cx="9.9184" cy="23.7836" r="0.2250" /> 
<circle cx="18.2028" cy="8.4149" r="0.2250" /> 
<circle cx="5.7922" cy="19.5893" r="0.2250" /> 
<circle cx="4.7662" cy="9.8271" r="0.2250" /> 
<circle cx="19.4289" cy="7.3108" r="0.2250" /> 
<circle cx="5.4975" cy="14.0021" r="0.2250" /> 
<circle cx="4.5661" cy="20.6934" r="0.2250" /> 
<circle cx="19.5024" cy="17.6625" r="0.2250" /> 
<circle cx="13.7336" cy="5.8346" r="0.2250" /> 
<circle cx="8.6012" cy="6.3740" r="0.2250" /> 
<circle cx="20.9854" cy="18.3858" r="0.2250" /> 
<circle cx="7.9301" cy="4.8666" r="0.2250" /> 
<circle cx="15.9176" cy="21.3747" r="0.2250" /> 
<circle cx="2.0523" cy="15.0474" r="0.2250" /> 
<circle cx="2.1494" cy="15.7386" r="0.2250" /> 
<circle cx="5.8150" cy="20.4042" r="0.2250" /> 
<circle cx="5.0509" cy="21.1955" r="0.2250" /> 
<circle cx="3.0096" cy="9.6184" r="0.2250" /> 
<circle cx="16.7138" cy="21.5497" r="0.2250" /> 
<circle cx="15.8181" cy="8.7435" r="0.2250" /> 
<circle cx="7.3028" cy="5.1726" r="0.2250" /> 
<circle cx="18.9441" cy="6.8087" r="0.2250" /> 
<circle cx="13.3892" cy="4.0994" r="0.2250" /> 
<circle cx="17.2967" cy="22.4826" r="0.2250" /> 
<circle cx="18.1800" cy="7.6000" r="0.2250" /> 
<circle cx="10.6058" cy="23.9048" r="0.2250" /> 
<circle cx="20.7623" cy="12.4566" r="0.2250" /> 
<circle cx="3.9982" cy="10.1006" r="0.2250" /> 
<circle cx="13.2361" cy="5.1887" r="0.2250" /> 
<circle cx="7.8192" cy="6.1439" r="0.2250" /> 
<circle cx="10.7589" cy="22.8155" r="0.2250" /> 
<circle cx="3.2327" cy="15.5476" r="0.2250" /> 
<circle cx="21.8456" cy="12.2656" r="0.2250" /> 
</g>
<g style="fill:none; 
stroke:#7FC87F; stroke-width:0.5000; stroke-opacity:1; 
stroke-linecap:round; stroke-linejoin:round;">
<path d="M11.9975 9.8288
L11.9975 10.0021
" />
<path d="M11.9975 19.7021
L13.5242 19.7021
" />
<path d="M10.4708 19.7021
L11.9975 19.7021
" />
<path d="M9.9889 20.1840
L10.4708 19.7021
" />
</g>
<g style="fill:none; 
stroke:#7FC87F; stroke-width:0.3000; stroke-opacity:1; 
stroke-linecap:round; stroke-linejoin:round;">
<path d="M16.5475 15.9521
L18.4975 14.0021
" />
</g>
<g style="fill:none; 
stroke:#7FC87F; stroke-width:0.5000; stroke-opacity:1; 
stroke-linecap:round; stroke-linejoin:round;">
<path d="M13.5242 19.7021
L14.0061 20.1840
" />
</g>
<g style="fill:none; 
stroke:#7FC87F; stroke-width:0.3000; stroke-opacity:1; 
stroke-linecap:round; stroke-linejoin:round;">
<path d="M14.0156 20.1840
L16.5475 17.6521
" />
</g>
<g style="fill:none; 
stroke:#7FC87F; stroke-width:0.5000; stroke-opacity:1; 
stroke-linecap:round; stroke-linejoin:round;">
<path d="M9.9889 7.8202
L11.9975 9.8288
" />
</g>
<g style="fill:none; 
stroke:#7FC87F; stroke-width:0.3000; stroke-opacity:1; 
stroke-linecap:round; stroke-linejoin:round;">
<path d="M14.0061 20.1840
L14.0156 20.1840
" />
<path d="M16.5475 17.6521
L16.5475 15.9521
" />
</g>
<g style="fill:none; 
stroke:#7FC87F; stroke-width:0.5000; stroke-opacity:1; 
stroke-linecap:round; stroke-linejoin:round;">
<path d="M11.9975 10.0021
L11.9975 19.7021
" />
</g>
<g style="fill:none; 
stroke:#7FC87F; stroke-width:0.1280; stroke-opacity:1; 
stroke-linecap:round; stroke-linejoin:round;">
<path d="M13.9358 7.2425
L13.8175 7.2097
" />
<path d="M15.5135 7.9122
L15.4067 7.8518
" />
<path d="M8.2711 19.9656
L8.3758 20.0297
" />
<path d="M19.0252 13.7567
L19.0199 13.6341
" />
<path d="M18.9771 14.8591
L18.9910 14.7371
" />
<path d="M16.7933 8.8592
L16.7028 8.7763
" />
<path d="M10.4156 20.8539
L10.5355 20.8804
" />
<path d="M14.7451 7.5291
L14.6317 7.4821
" />
<path d="M6.3815 18.2341
L6.4562 18.3314
" />
<path d="M6.3815 9.7701
L6.3085 9.8688
" />
<path d="M19.0199 14.3701
L19.0252 14.2475
" />
<path d="M11.7521 21.0298
L11.8748 21.0330
" />
<path d="M4.9666 13.8794
L4.9655 14.0021
" />
<path d="M6.8546 18.7979
L6.9391 18.8869
" />
<path d="M15.4067 7.8518
L15.2988 7.7932
" />
<path d="M19.0295 14.0021
L19.0284 13.8794
" />
<path d="M5.0339 14.9808
L5.0521 15.1021
" />
<path d="M18.9611 13.0234
L18.9429 12.9021
" />
<path d="M11.3846 21.0073
L11.5070 21.0170
" />
<path d="M18.7222 11.9461
L18.6853 11.8291
" />
<path d="M17.5388 9.6728
L17.4624 9.5767
" />
<path d="M14.9694 20.3753
L15.0801 20.3224
" />
<path d="M5.1192 12.5401
L5.0947 12.6603
" />
<path d="M6.7717 9.2968
L6.6904 9.3887
" />
<path d="M6.8546 9.2063
L6.7717 9.2968
" />
<path d="M18.5175 16.6363
L18.5624 16.5221
" />
<path d="M7.1127 8.9437
L7.0251 9.0297
" />
<path d="M5.4326 16.5221
L5.4775 16.6363
" />
<path d="M19.0199 13.6341
L19.0124 13.5116
" />
<path d="M5.3097 16.1751
L5.3486 16.2915
" />
<path d="M10.2963 20.8252
L10.4156 20.8539
" />
<path d="M18.7571 12.0638
L18.7222 11.9461
" />
<path d="M18.8758 15.4641
L18.9003 15.3439
" />
<path d="M16.3268 8.4608
L16.2295 8.3861
" />
<path d="M18.7899 12.1821
L18.7571 12.0638
" />
<path d="M14.0535 7.2774
L13.9358 7.2425
" />
<path d="M12.3655 6.9797
L12.2429 6.9744
" />
<path d="M15.2988 20.2110
L15.4067 20.1524
" />
<path d="M5.1744 12.3009
L5.1457 12.4202
" />
<path d="M5.6772 17.0847
L5.7319 17.1946
" />
<path d="M15.8274 19.8996
L15.9297 19.8319
" />
<path d="M12.6104 21.0073
L12.7325 20.9956
" />
<path d="M7.6682 8.4608
L7.5721 8.5372
" />
<path d="M4.9698 14.2475
L4.9751 14.3701
" />
<path d="M13.0975 20.9475
L13.2186 20.9273
" />
<path d="M5.5245 16.7497
L5.5734 16.8623
" />
<path d="M6.3085 9.8688
L6.2372 9.9687
" />
<path d="M7.3841 8.6950
L7.2922 8.7763
" />
<path d="M5.1457 12.4202
L5.1192 12.5401
" />
<path d="M8.6962 20.2110
L8.8050 20.2677
" />
<path d="M15.2988 7.7932
L15.1900 7.7365
" />
<path d="M16.5176 19.3889
L16.6109 19.3092
" />
<path d="M7.5721 19.4670
L7.6682 19.5434
" />
<path d="M19.0027 13.3892
L18.9910 13.2671
" />
<path d="M10.2614 5.8346
L10.5355 7.1238
" />
<path d="M5.2379 12.0638
L5.2051 12.1821
" />
<path d="M18.9611 14.9808
L18.9771 14.8591
" />
<path d="M16.1308 19.6911
L16.2295 19.6181
" />
<path d="M9.8245 20.6899
L9.9415 20.7268
" />
<path d="M8.1676 19.8996
L8.2711 19.9656
" />
<path d="M15.3938 6.3740
L14.8577 7.5780
" />
<path d="M9.7081 7.3532
L9.5924 7.3942
" />
<path d="M16.4229 19.4670
L16.5176 19.3889
" />
<path d="M5.0947 12.6603
L5.0723 12.7810
" />
<path d="M17.2233 18.7074
L17.3046 18.6155
" />
<path d="M7.7655 19.6181
L7.8642 19.6911
" />
<path d="M7.6682 19.5434
L7.7655 19.6181
" />
<path d="M18.3178 10.9195
L18.2631 10.8096
" />
<path d="M4.9655 14.0021
L4.9666 14.1248
" />
<path d="M10.0592 7.2425
L9.9415 7.2774
" />
<path d="M4.2764 12.7810
L5.0723 12.7810
" />
<path d="M8.9149 7.6818
L8.8050 7.7365
" />
<path d="M7.2922 8.7763
L7.2017 8.8592
" />
<path d="M5.4775 16.6363
L5.5245 16.7497
" />
<path d="M6.6904 18.6155
L6.7717 18.7074
" />
<path d="M18.4705 11.2545
L18.4216 11.1419
" />
<path d="M17.3843 18.5222
L17.4624 18.4275
" />
<path d="M5.7886 10.7008
L5.7319 10.8096
" />
<path d="M11.5070 6.9872
L11.3846 6.9969
" />
<path d="M17.2233 9.2968
L17.1404 9.2063
" />
<path d="M9.9415 7.2774
L9.8245 7.3143
" />
<path d="M12.6104 6.9969
L12.4880 6.9872
" />
<path d="M11.1405 7.0225
L11.0188 7.0385
" />
<path d="M14.9694 7.6289
L14.8577 7.5780
" />
<path d="M11.5070 21.0170
L11.6295 21.0245
" />
<path d="M16.6109 8.6950
L16.5176 8.6153
" />
<path d="M9.4775 7.4372
L9.3633 7.4821
" />
<path d="M5.0521 15.1021
L5.0723 15.2232
" />
<path d="M14.2869 7.3532
L14.1705 7.3143
" />
<path d="M4.9698 13.7567
L4.9666 13.8794
" />
<path d="M5.6243 11.0302
L5.5734 11.1419
" />
<path d="M6.9391 18.8869
L7.0251 18.9745
" />
<path d="M15.5135 20.0920
L15.6192 20.0297
" />
<path d="M18.8758 12.5401
L18.8493 12.4202
" />
<path d="M6.5326 9.5767
L6.4562 9.6728
" />
<path d="M6.0340 10.2757
L5.9699 10.3804
" />
<path d="M18.7899 15.8221
L18.8206 15.7033
" />
<path d="M13.0975 7.0567
L12.9762 7.0385
" />
<path d="M8.1676 8.1046
L8.0653 8.1723
" />
<path d="M17.3046 9.3887
L17.2233 9.2968
" />
<path d="M13.2186 20.9273
L13.3393 20.9049
" />
<path d="M10.6557 20.9049
L10.7764 20.9273
" />
<path d="M13.3393 20.9049
L13.4595 20.8804
" />
<path d="M7.3841 19.3092
L7.4774 19.3889
" />
<path d="M8.3758 7.9745
L8.2711 8.0386
" />
<path d="M5.9076 10.4861
L5.8472 10.5929
" />
<path d="M14.4026 20.6100
L14.5175 20.5670
" />
<path d="M13.8175 7.2097
L13.6987 7.1790
" />
<path d="M5.2728 11.9461
L5.2379 12.0638
" />
<path d="M11.9975 6.9701
L11.8748 6.9712
" />
<path d="M17.3046 18.6155
L17.3843 18.5222
" />
<path d="M13.4595 20.8804
L13.5794 20.8539
" />
<path d="M19.0284 14.1248
L19.0295 14.0021
" />
<path d="M14.8577 20.4262
L14.9694 20.3753
" />
<path d="M11.6295 6.9797
L11.5070 6.9872
" />
<path d="M12.4880 6.9872
L12.3655 6.9797
" />
<path d="M14.5175 7.4372
L14.4026 7.3942
" />
<path d="M18.9910 13.2671
L18.9771 13.1451
" />
<path d="M18.7571 15.9404
L18.7899 15.8221
" />
<path d="M11.0188 7.0385
L10.8975 7.0567
" />
<path d="M9.9415 20.7268
L10.0592 20.7617
" />
<path d="M9.8245 7.3143
L9.7081 7.3532
" />
<path d="M18.5624 11.4821
L18.5175 11.3679
" />
<path d="M5.1744 15.7033
L5.2051 15.8221
" />
<path d="M5.2051 12.1821
L5.1744 12.3009
" />
<path d="M18.8206 15.7033
L18.8493 15.5840
" />
<path d="M11.7521 6.9744
L11.6295 6.9797
" />
<path d="M9.1373 20.4262
L9.2499 20.4751
" />
<path d="M5.5734 16.8623
L5.6243 16.9740
" />
<path d="M15.1900 20.2677
L15.2988 20.2110
" />
<path d="M16.0309 8.2418
L15.9297 8.1723
" />
<path d="M13.7336 22.1696
L13.4595 20.8804
" />
<path d="M7.0251 9.0297
L6.9391 9.1173
" />
<path d="M5.3896 16.4072
L5.4326 16.5221
" />
<path d="M16.8823 8.9437
L16.7933 8.8592
" />
<path d="M16.7028 8.7763
L16.6109 8.6950
" />
<path d="M8.0774 21.3747
L8.6962 20.2110
" />
<path d="M6.9391 9.1173
L6.8546 9.2063
" />
<path d="M10.8975 20.9475
L11.0188 20.9657
" />
<path d="M5.2051 15.8221
L5.2379 15.9404
" />
<path d="M10.0592 20.7617
L10.1775 20.7945
" />
<path d="M5.0723 12.7810
L5.0521 12.9021
" />
<path d="M4.9826 14.4926
L4.9923 14.6150
" />
<path d="M9.0256 7.6289
L8.9149 7.6818
" />
<path d="M10.2963 7.1790
L10.1775 7.2097
" />
<path d="M18.9227 15.2232
L18.9429 15.1021
" />
<path d="M18.5175 11.3679
L18.4705 11.2545
" />
<path d="M20.3018 14.8749
L18.9910 14.7371
" />
<path d="M11.0188 20.9657
L11.1405 20.9817
" />
<path d="M10.7764 7.0769
L10.6557 7.0993
" />
<path d="M19.0124 13.5116
L19.0027 13.3892
" />
<path d="M15.6192 7.9745
L15.5135 7.9122
" />
<path d="M6.6107 18.5222
L6.6904 18.6155
" />
<path d="M4.9923 14.6150
L5.0040 14.7371
" />
<path d="M11.3846 6.9969
L11.2625 7.0086
" />
<path d="M18.6054 16.4072
L18.6464 16.2915
" />
<path d="M5.0521 12.9021
L5.0339 13.0234
" />
<path d="M18.8493 15.5840
L18.8758 15.4641
" />
<path d="M17.7578 18.0355
L17.8273 17.9343
" />
<path d="M12.4880 21.0170
L12.6104 21.0073
" />
<path d="M4.9751 14.3701
L4.9826 14.4926
" />
<path d="M9.2499 20.4751
L9.3633 20.5221
" />
<path d="M13.4595 7.1238
L13.3393 7.0993
" />
<path d="M14.6317 7.4821
L14.5175 7.4372
" />
<path d="M7.9641 8.2418
L7.8642 8.3131
" />
<path d="M8.5883 20.1524
L8.6962 20.2110
" />
<path d="M4.9751 13.6341
L4.9698 13.7567
" />
<path d="M18.3707 16.9740
L18.4216 16.8623
" />
<path d="M17.1404 18.7979
L17.2233 18.7074
" />
<path d="M18.4216 11.1419
L18.3707 11.0302
" />
<path d="M10.7764 20.9273
L10.8975 20.9475
" />
<path d="M5.1192 15.4641
L5.1457 15.5840
" />
<path d="M8.0653 8.1723
L7.9641 8.2418
" />
<path d="M18.8493 12.4202
L18.8206 12.3009
" />
<path d="M19.0124 14.4926
L19.0199 14.3701
" />
<path d="M7.8642 8.3131
L7.7655 8.3861
" />
<path d="M18.4216 16.8623
L18.4705 16.7497
" />
<path d="M5.7319 17.1946
L5.7886 17.3034
" />
<path d="M18.5624 16.5221
L18.6054 16.4072
" />
<path d="M5.4775 11.3679
L5.4326 11.4821
" />
<path d="M8.0653 19.8319
L8.1676 19.8996
" />
<path d="M18.8206 12.3009
L18.7899 12.1821
" />
<path d="M4.9666 14.1248
L4.9698 14.2475
" />
<path d="M6.5326 18.4275
L6.6107 18.5222
" />
<path d="M9.3633 7.4821
L9.2499 7.5291
" />
<path d="M7.1127 19.0605
L7.2017 19.1450
" />
<path d="M17.9610 17.7285
L18.0251 17.6238
" />
<path d="M12.1202 6.9712
L11.9975 6.9701
" />
<path d="M17.4624 9.5767
L17.3843 9.4820
" />
<path d="M13.2186 7.0769
L13.0975 7.0567
" />
<path d="M18.2064 17.3034
L18.2631 17.1946
" />
<path d="M18.6853 11.8291
L18.6464 11.7127
" />
<path d="M17.7578 9.9687
L17.6865 9.8688
" />
<path d="M4.9826 13.5116
L4.9751 13.6341
" />
<path d="M13.6987 20.8252
L13.8175 20.7945
" />
<path d="M17.0559 9.1173
L16.9699 9.0297
" />
<path d="M14.0535 20.7268
L14.1705 20.6899
" />
<path d="M5.8472 17.4113
L5.9076 17.5181
" />
<path d="M12.2429 21.0298
L12.3655 21.0245
" />
<path d="M18.6853 16.1751
L18.7222 16.0581
" />
<path d="M18.3707 11.0302
L18.3178 10.9195
" />
<path d="M6.0340 17.7285
L6.1000 17.8320
" />
<path d="M15.0801 7.6818
L14.9694 7.6289
" />
<path d="M18.6464 11.7127
L18.6054 11.5970
" />
<path d="M6.2372 9.9687
L6.1677 10.0699
" />
<path d="M6.1000 17.8320
L6.1677 17.9343
" />
<path d="M17.6865 9.8688
L17.6135 9.7701
" />
<path d="M14.2869 20.6510
L14.4026 20.6100
" />
<path d="M16.3268 19.5434
L16.4229 19.4670
" />
<path d="M6.1677 10.0699
L6.1000 10.1722
" />
<path d="M5.0040 14.7371
L5.0179 14.8591
" />
<path d="M17.8273 10.0699
L17.7578 9.9687
" />
<path d="M5.3896 11.5970
L5.3486 11.7127
" />
<path d="M15.8274 8.1046
L15.7239 8.0386
" />
<path d="M11.2625 20.9956
L11.3846 21.0073
" />
<path d="M19.0284 13.8794
L19.0252 13.7567
" />
<path d="M9.5924 20.6100
L9.7081 20.6510
" />
<path d="M9.1373 7.5780
L9.0256 7.6289
" />
<path d="M15.7239 8.0386
L15.6192 7.9745
" />
<path d="M5.0179 13.1451
L5.0040 13.2671
" />
<path d="M7.5721 8.5372
L7.4774 8.6153
" />
<path d="M9.2499 7.5291
L9.1373 7.5780
" />
<path d="M18.2631 10.8096
L18.2064 10.7008
" />
<path d="M18.9429 15.1021
L18.9611 14.9808
" />
<path d="M17.9610 10.2757
L17.8950 10.1722
" />
<path d="M9.3633 20.5221
L9.4775 20.5670
" />
<path d="M12.7325 7.0086
L12.6104 6.9969
" />
<path d="M5.0947 15.3439
L5.1192 15.4641
" />
<path d="M11.8748 21.0330
L11.9975 21.0341
" />
<path d="M8.8050 20.2677
L8.9149 20.3224
" />
<path d="M5.6772 10.9195
L5.6243 11.0302
" />
<path d="M4.4926 17.6625
L5.6772 17.0847
" />
<path d="M15.9297 8.1723
L15.8274 8.1046
" />
<path d="M17.6135 9.7701
L17.5388 9.6728
" />
<path d="M16.6109 19.3092
L16.7028 19.2279
" />
<path d="M6.4562 18.3314
L6.5326 18.4275
" />
<path d="M10.4156 7.1503
L10.2963 7.1790
" />
<path d="M17.3843 9.4820
L17.3046 9.3887
" />
<path d="M19.0252 14.2475
L19.0284 14.1248
" />
<path d="M5.6243 16.9740
L5.6772 17.0847
" />
<path d="M17.8273 17.9343
L17.8950 17.8320
" />
<path d="M5.2379 15.9404
L5.2728 16.0581
" />
<path d="M17.6135 18.2341
L17.6865 18.1354
" />
<path d="M4.9923 13.3892
L4.9826 13.5116
" />
<path d="M16.2295 19.6181
L16.3268 19.5434
" />
<path d="M18.9003 15.3439
L18.9227 15.2232
" />
<path d="M10.1775 20.7945
L10.2963 20.8252
" />
<path d="M5.9699 10.3804
L5.9076 10.4861
" />
<path d="M18.6054 11.5970
L18.5624 11.4821
" />
<path d="M12.3655 21.0245
L12.4880 21.0170
" />
<path d="M18.6464 16.2915
L18.6853 16.1751
" />
<path d="M12.7325 20.9956
L12.8545 20.9817
" />
<path d="M5.3486 16.2915
L5.3896 16.4072
" />
<path d="M5.5245 11.2545
L5.4775 11.3679
" />
<path d="M12.8545 20.9817
L12.9762 20.9657
" />
<path d="M10.5355 20.8804
L10.6557 20.9049
" />
<path d="M16.2295 8.3861
L16.1308 8.3131
" />
<path d="M18.4705 16.7497
L18.5175 16.6363
" />
<path d="M8.4815 7.9122
L8.3758 7.9745
" />
<path d="M18.3178 17.0847
L18.3707 16.9740
" />
<path d="M10.5355 7.1238
L10.4156 7.1503
" />
<path d="M10.6557 7.0993
L10.5355 7.1238
" />
<path d="M19.2288 9.8271
L18.0874 10.4861
" />
<path d="M15.0801 20.3224
L15.1900 20.2677
" />
<path d="M6.3085 18.1354
L6.3815 18.2341
" />
<path d="M5.9076 17.5181
L5.9699 17.6238
" />
<path d="M5.0339 13.0234
L5.0179 13.1451
" />
<path d="M17.4624 18.4275
L17.5388 18.3314
" />
<path d="M18.0874 17.5181
L18.1478 17.4113
" />
<path d="M13.5794 7.1503
L13.4595 7.1238
" />
<path d="M18.9771 13.1451
L18.9611 13.0234
" />
<path d="M17.5388 18.3314
L17.6135 18.2341
" />
<path d="M18.0874 10.4861
L18.0251 10.3804
" />
<path d="M8.8050 7.7365
L8.6962 7.7932
" />
<path d="M5.9699 17.6238
L6.0340 17.7285
" />
<path d="M18.9910 14.7371
L19.0027 14.6150
" />
<path d="M18.9429 12.9021
L18.9227 12.7810
" />
<path d="M7.7655 8.3861
L7.6682 8.4608
" />
<path d="M7.9641 19.7624
L8.0653 19.8319
" />
<path d="M8.6962 7.7932
L8.5883 7.8518
" />
<path d="M5.2728 16.0581
L5.3097 16.1751
" />
<path d="M18.2631 17.1946
L18.3178 17.0847
" />
<path d="M16.1308 8.3131
L16.0309 8.2418
" />
<path d="M10.8975 7.0567
L10.7764 7.0769
" />
<path d="M18.9003 12.6603
L18.8758 12.5401
" />
<path d="M16.4229 8.5372
L16.3268 8.4608
" />
<path d="M7.0251 18.9745
L7.1127 19.0605
" />
<path d="M5.4326 11.4821
L5.3896 11.5970
" />
<path d="M5.0179 14.8591
L5.0339 14.9808
" />
<path d="M7.8642 19.6911
L7.9641 19.7624
" />
<path d="M16.9699 9.0297
L16.8823 8.9437
" />
<path d="M5.0723 15.2232
L5.0947 15.3439
" />
<path d="M11.1405 20.9817
L11.2625 20.9956
" />
<path d="M6.1677 17.9343
L6.2372 18.0355
" />
<path d="M18.2064 10.7008
L18.1478 10.5929
" />
<path d="M14.8577 7.5780
L14.7451 7.5291
" />
<path d="M15.4067 20.1524
L15.5135 20.0920
" />
<path d="M18.0251 10.3804
L17.9610 10.2757
" />
<path d="M16.7933 19.1450
L16.8823 19.0605
" />
<path d="M17.8950 10.1722
L17.8273 10.0699
" />
<path d="M14.5175 20.5670
L14.6317 20.5221
" />
<path d="M12.9762 20.9657
L13.0975 20.9475
" />
<path d="M15.9297 19.8319
L16.0309 19.7624
" />
<path d="M7.4774 19.3889
L7.5721 19.4670
" />
<path d="M5.7319 10.8096
L5.6772 10.9195
" />
<path d="M5.3486 11.7127
L5.3097 11.8291
" />
<path d="M5.8472 10.5929
L5.7886 10.7008
" />
<path d="M18.7222 16.0581
L18.7571 15.9404
" />
<path d="M7.4774 8.6153
L7.3841 8.6950
" />
<path d="M15.6192 20.0297
L15.7239 19.9656
" />
<path d="M17.0559 18.8869
L17.1404 18.7979
" />
<path d="M7.2922 19.2279
L7.3841 19.3092
" />
<path d="M13.9358 20.7617
L14.0535 20.7268
" />
<path d="M5.5734 11.1419
L5.5245 11.2545
" />
<path d="M16.8823 19.0605
L16.9699 18.9745
" />
<path d="M9.7081 20.6510
L9.8245 20.6899
" />
<path d="M11.8748 6.9712
L11.7521 6.9744
" />
<path d="M11.9975 21.0341
L12.1202 21.0330
" />
<path d="M9.4775 20.5670
L9.5924 20.6100
" />
<path d="M13.5794 20.8539
L13.6987 20.8252
" />
<path d="M11.6295 21.0245
L11.7521 21.0298
" />
<path d="M14.6317 20.5221
L14.7451 20.4751
" />
<path d="M6.2372 18.0355
L6.3085 18.1354
" />
<path d="M18.1478 10.5929
L18.0874 10.4861
" />
<path d="M8.9149 20.3224
L9.0256 20.3753
" />
<path d="M7.2017 8.8592
L7.1127 8.9437
" />
<path d="M18.2028 19.5893
L17.2233 18.7074
" />
<path d="M9.0256 20.3753
L9.1373 20.4262
" />
<path d="M8.4815 20.0920
L8.5883 20.1524
" />
<path d="M12.2429 6.9744
L12.1202 6.9712
" />
<path d="M8.5883 7.8518
L8.4815 7.9122
" />
<path d="M18.9227 12.7810
L18.9003 12.6603
" />
<path d="M6.6904 9.3887
L6.6107 9.4820
" />
<path d="M14.4026 7.3942
L14.2869 7.3532
" />
<path d="M7.2017 19.1450
L7.2922 19.2279
" />
<path d="M19.0027 14.6150
L19.0124 14.4926
" />
<path d="M10.1775 7.2097
L10.0592 7.2425
" />
<path d="M12.9762 7.0385
L12.8545 7.0225
" />
<path d="M3.9975 12.5021
L4.2764 12.7810
" />
<path d="M12.1202 21.0330
L12.2429 21.0298
" />
<path d="M14.7451 20.4751
L14.8577 20.4262
" />
<path d="M11.2625 7.0086
L11.1405 7.0225
" />
<path d="M12.8545 7.0225
L12.7325 7.0086
" />
<path d="M13.6987 7.1790
L13.5794 7.1503
" />
<path d="M14.1705 20.6899
L14.2869 20.6510
" />
<path d="M13.8175 20.7945
L13.9358 20.7617
" />
<path d="M17.1404 9.2063
L17.0559 9.1173
" />
<path d="M16.9699 18.9745
L17.0559 18.8869
" />
<path d="M15.7239 19.9656
L15.8274 19.8996
" />
<path d="M16.7028 19.2279
L16.7933 19.1450
" />
<path d="M6.7717 18.7074
L6.8546 18.7979
" />
<path d="M15.1900 7.7365
L15.0801 7.6818
" />
<path d="M8.3758 20.0297
L8.4815 20.0920
" />
<path d="M8.2711 8.0386
L8.1676 8.1046
" />
<path d="M6.4562 9.6728
L6.3815 9.7701
" />
<path d="M5.1457 15.5840
L5.1744 15.7033
" />
<path d="M17.8950 17.8320
L17.9610 17.7285
" />
<path d="M5.7886 17.3034
L5.8472 17.4113
" />
<path d="M6.1000 10.1722
L6.0340 10.2757
" />
<path d="M5.0040 13.2671
L4.9923 13.3892
" />
<path d="M13.3393 7.0993
L13.2186 7.0769
" />
<path d="M18.1478 17.4113
L18.2064 17.3034
" />
<path d="M14.1705 7.3143
L14.0535 7.2774
" />
<path d="M16.5176 8.6153
L16.4229 8.5372
" />
<path d="M18.0251 17.6238
L18.0874 17.5181
" />
<path d="M16.0309 19.7624
L16.1308 19.6911
" />
<path d="M5.3097 11.8291
L5.2728 11.9461
" />
<path d="M6.6107 9.4820
L6.5326 9.5767
" />
<path d="M17.6865 18.1354
L17.7578 18.0355
" />
<path d="M9.5924 7.3942
L9.4775 7.4372
" />
</g>
<g style="fill:none; 
stroke:#7FC87F; stroke-width:0.1270; stroke-opacity:1; 
stroke-linecap:round; stroke-linejoin:round;">
<path d="M3.2327 12.4566
L3.8975 12.0021
" />
</g>
<g style="fill:none; 
stroke:#7FC87F; stroke-width:0.1280; stroke-opacity:1; 
stroke-linecap:round; stroke-linejoin:round;">
<path d="M15.0775 20.6073
L14.9618 20.6600
" />
<path d="M5.1066 11.6294
L5.1490 11.5095
" />
<path d="M12.2518 6.7185
L12.3789 6.7241
" />
<path d="M9.6248 20.8930
L9.7454 20.9334
" />
<path d="M18.7061 16.8497
L18.6554 16.9664
" />
<path d="M3.1638 12.9175
L3.1463 13.0718
" />
<path d="M13.0118 6.7850
L13.1376 6.8038
" />
<path d="M4.1393 18.1804
L4.2134 18.3169
" />
<path d="M4.7195 14.3835
L4.7139 14.2564
" />
<path d="M14.9618 20.6600
L14.8451 20.7107
" />
<path d="M18.2445 17.7557
L18.1781 17.8642
" />
<path d="M14.8451 20.7107
L14.7276 20.7594
" />
<path d="M18.6027 10.9221
L18.6554 11.0378
" />
<path d="M6.6674 18.9725
L6.5815 18.8787
" />
<path d="M4.7106 13.8749
L4.7139 13.7478
" />
<path d="M17.9675 9.8219
L18.0395 9.9267
" />
<path d="M6.1770 18.3881
L6.1014 18.2859
" />
<path d="M18.9670 16.1329
L18.9288 16.2542
" />
<path d="M15.5308 20.3763
L15.4190 20.4370
" />
<path d="M13.6369 6.9009
L13.7606 6.9306
" />
<path d="M16.5840 8.3383
L16.6821 8.4192
" />
<path d="M6.4146 9.3175
L6.4972 9.2207
" />
<path d="M4.0675 18.0426
L4.1393 18.1804
" />
<path d="M11.8703 21.2890
L11.9975 21.2901
" />
<path d="M3.2327 12.4566
L3.2071 12.6098
" />
</g>
<g style="fill:none; 
stroke:#7FC87F; stroke-width:0.1270; stroke-opacity:1; 
stroke-linecap:round; stroke-linejoin:round;">
<path d="M4.4975 17.1021
L5.2402 16.7322
" />
</g>
<g style="fill:none; 
stroke:#7FC87F; stroke-width:0.1280; stroke-opacity:1; 
stroke-linecap:round; stroke-linejoin:round;">
<path d="M17.7405 9.5152
L17.8180 9.6161
" />
<path d="M18.9141 19.6031
L19.0108 19.4815
" />
<path d="M16.1777 8.0321
L16.2813 8.1060
" />
<path d="M12.8857 6.7684
L13.0118 6.7850
" />
</g>
<g style="fill:none; 
stroke:#7FC87F; stroke-width:0.1270; stroke-opacity:1; 
stroke-linecap:round; stroke-linejoin:round;">
<path d="M19.6975 9.9021
L19.4975 10.3021
" />
</g>
<g style="fill:none; 
stroke:#7FC87F; stroke-width:0.1280; stroke-opacity:1; 
stroke-linecap:round; stroke-linejoin:round;">
<path d="M5.8169 17.8642
L5.7505 17.7557
" />
<path d="M11.4891 6.7319
L11.6161 6.7241
" />
<path d="M4.7139 13.7478
L4.7195 13.6207
" />
<path d="M5.2402 16.7322
L5.1936 16.6139
" />
<path d="M17.0602 8.7596
L17.1509 8.8487
" />
<path d="M19.7051 9.5521
L19.6263 9.4183
" />
<path d="M4.9918 16.0109
L4.9578 15.8884
" />
<path d="M15.8596 7.8215
L15.9668 7.8899
" />
<path d="M5.6233 10.4688
L5.6859 10.3581
" />
<path d="M16.0729 7.9601
L16.1777 8.0321
" />
<path d="M6.8441 19.1555
L6.7550 19.0648
" />
<path d="M19.2755 13.6207
L19.2811 13.7478
" />
<path d="M4.2134 18.3169
L4.2899 18.4521
" />
</g>
<g style="fill:none; 
stroke:#7FC87F; stroke-width:0.1270; stroke-opacity:1; 
stroke-linecap:round; stroke-linejoin:round;">
<path d="M4.5344 12.2390
L4.9260 12.2390
" />
<path d="M13.2975 22.3021
L13.0975 21.5021
" />
</g>
<g style="fill:none; 
stroke:#7FC87F; stroke-width:0.1280; stroke-opacity:1; 
stroke-linecap:round; stroke-linejoin:round;">
<path d="M19.1748 12.7366
L19.1958 12.8620
" />
<path d="M4.7638 14.8903
L4.7494 14.7639
" />
</g>
<g style="fill:none; 
stroke:#7FC87F; stroke-width:0.1270; stroke-opacity:1; 
stroke-linecap:round; stroke-linejoin:round;">
<path d="M15.8975 6.2021
L15.7975 6.7021
" />
</g>
<g style="fill:none; 
stroke:#7FC87F; stroke-width:0.1280; stroke-opacity:1; 
stroke-linecap:round; stroke-linejoin:round;">
<path d="M5.1066 16.3748
L5.0662 16.2542
" />
</g>
<g style="fill:none; 
stroke:#7FC87F; stroke-width:0.1270; stroke-opacity:1; 
stroke-linecap:round; stroke-linejoin:round;">
<path d="M20.8487 14.9324
L20.4975 15.3021
" />
</g>
<g style="fill:none; 
stroke:#7FC87F; stroke-width:0.1280; stroke-opacity:1; 
stroke-linecap:round; stroke-linejoin:round;">
<path d="M15.1870 5.6932
L15.0415 5.6388
" />
<path d="M5.7042 7.7088
L5.5954 7.8196
" />
<path d="M16.4844 8.2591
L16.5840 8.3383
" />
<path d="M15.1923 20.5525
L15.0775 20.6073
" />
<path d="M4.9918 11.9933
L5.0280 11.8713
" />
<path d="M19.2844 14.1293
L19.2811 14.2564
" />
<path d="M15.3315 5.7502
L15.1870 5.6932
" />
<path d="M11.1093 6.7684
L11.2357 6.7540
" />
<path d="M17.9675 18.1823
L17.8936 18.2859
" />
</g>
<g style="fill:none; 
stroke:#7FC87F; stroke-width:0.1270; stroke-opacity:1; 
stroke-linecap:round; stroke-linejoin:round;">
<path d="M13.3975 22.6021
L13.2975 22.3021
" />
</g>
<g style="fill:none; 
stroke:#7FC87F; stroke-width:0.1280; stroke-opacity:1; 
stroke-linecap:round; stroke-linejoin:round;">
<path d="M19.2312 13.1139
L19.2456 13.2403
" />
<path d="M18.8460 11.5095
L18.8884 11.6294
" />
<path d="M5.5626 10.5806
L5.6233 10.4688
" />
<path d="M6.3337 18.5886
L6.2545 18.4890
" />
<path d="M14.1283 7.0326
L14.2496 7.0708
" />
<path d="M19.0987 15.6415
L19.0690 15.7652
" />
<path d="M10.1112 21.0418
L10.2344 21.0736
" />
<path d="M5.2402 11.2720
L5.2889 11.1545
" />
<path d="M16.2813 8.1060
L16.3835 8.1816
" />
<path d="M5.1490 16.4947
L5.1066 16.3748
" />
<path d="M6.7550 19.0648
L6.6674 18.9725
" />
<path d="M7.4110 19.6659
L7.3129 19.5850
" />
<path d="M14.2496 7.0708
L14.3702 7.1112
" />
<path d="M18.8014 16.6139
L18.7548 16.7322
" />
<path d="M19.0690 12.2390
L19.0987 12.3627
" />
<path d="M19.2855 14.0021
L19.2844 14.1293
" />
<path d="M18.5479 10.8073
L18.6027 10.9221
" />
<path d="M15.8596 20.1827
L15.7511 20.2491
" />
<path d="M17.5804 9.3175
L17.6613 9.4156
" />
<path d="M13.7606 6.9306
L13.8838 6.9624
" />
</g>
<g style="fill:none; 
stroke:#7FC87F; stroke-width:0.1270; stroke-opacity:1; 
stroke-linecap:round; stroke-linejoin:round;">
<path d="M19.6975 15.4021
L19.1748 15.2676
" />
</g>
<g style="fill:none; 
stroke:#7FC87F; stroke-width:0.1280; stroke-opacity:1; 
stroke-linecap:round; stroke-linejoin:round;">
<path d="M5.5954 7.8196
L5.4885 7.9323
" />
<path d="M11.3623 21.2624
L11.4891 21.2723
" />
<path d="M5.8853 10.0328
L5.9555 9.9267
" />
<path d="M15.4190 20.4370
L15.3062 20.4958
" />
<path d="M10.2344 21.0736
L10.3581 21.1033
" />
<path d="M5.8853 17.9714
L5.8169 17.8642
" />
<path d="M15.7511 7.7551
L15.8596 7.8215
" />
<path d="M17.6613 9.4156
L17.7405 9.5152
" />
<path d="M9.7454 20.9334
L9.8667 20.9716
" />
<path d="M5.4885 7.9323
L5.3835 8.0468
" />
<path d="M19.2578 13.3669
L19.2677 13.4937
" />
<path d="M16.8741 19.4181
L16.7789 19.5024
" />
<path d="M19.1516 12.6115
L19.1748 12.7366
" />
<path d="M18.8884 11.6294
L18.9288 11.7500
" />
<path d="M15.9668 20.1143
L15.8596 20.1827
" />
<path d="M5.9555 9.9267
L6.0275 9.8219
" />
<path d="M14.4507 22.5573
L14.0063 21.0078
" />
<path d="M18.6115 19.9574
L18.7144 19.8410
" />
<path d="M6.1770 9.6161
L6.2545 9.5152
" />
<path d="M19.1748 15.2676
L19.1516 15.3927
" />
<path d="M11.3623 6.7418
L11.4891 6.7319
" />
<path d="M16.5840 19.6659
L16.4844 19.7451
" />
<path d="M4.7372 13.3669
L4.7494 13.2403
" />
<path d="M18.6554 11.0378
L18.7061 11.1545
" />
<path d="M7.8173 19.9721
L7.7137 19.8982
" />
</g>
<g style="fill:none; 
stroke:#7FC87F; stroke-width:0.1270; stroke-opacity:1; 
stroke-linecap:round; stroke-linejoin:round;">
<path d="M7.6975 21.6021
L7.5975 21.3021
" />
</g>
<g style="fill:none; 
stroke:#7FC87F; stroke-width:0.1280; stroke-opacity:1; 
stroke-linecap:round; stroke-linejoin:round;">
<path d="M8.0960 22.0014
L8.2362 22.0682
" />
<path d="M5.3835 8.0468
L6.5815 9.1255
" />
<path d="M12.3789 6.7241
L12.5059 6.7319
" />
<path d="M12.7593 21.2502
L12.8857 21.2358
" />
<path d="M17.4135 9.1255
L17.4978 9.2207
" />
<path d="M16.7789 19.5024
L16.6821 19.5850
" />
<path d="M18.5479 17.1969
L18.4912 17.3108
" />
<path d="M7.2161 19.5024
L7.1209 19.4181
" />
<path d="M18.0395 18.0775
L17.9675 18.1823
" />
<path d="M5.9555 18.0775
L5.8853 17.9714
" />
<path d="M19.2456 13.2403
L19.2578 13.3669
" />
</g>
<g style="fill:none; 
stroke:#7FC87F; stroke-width:0.1270; stroke-opacity:1; 
stroke-linecap:round; stroke-linejoin:round;">
<path d="M18.6115 19.9574
L18.0975 20.1021
" />
<path d="M3.8975 12.0021
L4.5344 12.2390
" />
</g>
<g style="fill:none; 
stroke:#7FC87F; stroke-width:0.1280; stroke-opacity:1; 
stroke-linecap:round; stroke-linejoin:round;">
<path d="M19.1262 15.5174
L19.0987 15.6415
" />
<path d="M11.4891 21.2723
L11.6161 21.2801
" />
<path d="M4.7992 15.1422
L4.7804 15.0164
" />
</g>
<g style="fill:none; 
stroke:#7FC87F; stroke-width:0.1270; stroke-opacity:1; 
stroke-linecap:round; stroke-linejoin:round;">
<path d="M18.9975 10.6021
L18.5479 10.8073
" />
</g>
<g style="fill:none; 
stroke:#7FC87F; stroke-width:0.1280; stroke-opacity:1; 
stroke-linecap:round; stroke-linejoin:round;">
<path d="M16.7789 8.5018
L16.8741 8.5861
" />
<path d="M18.3091 17.6461
L18.2445 17.7557
" />
<path d="M8.1354 20.1827
L8.0282 20.1143
" />
<path d="M9.1499 20.7107
L9.2674 20.7594
" />
<path d="M18.9288 11.7500
L18.9670 11.8713
" />
<path d="M12.5059 21.2723
L12.6327 21.2624
" />
<path d="M6.3337 9.4156
L6.4146 9.3175
" />
<path d="M8.0282 20.1143
L7.9221 20.0441
" />
<path d="M5.8169 10.1400
L5.8853 10.0328
" />
<path d="M11.9975 6.7141
L12.1247 6.7152
" />
<path d="M13.2630 6.8248
L13.3881 6.8480
" />
<path d="M5.8150 7.6000
L5.7042 7.7088
" />
<path d="M18.8014 11.3903
L18.8460 11.5095
" />
<path d="M7.6115 19.8226
L7.5106 19.7451
" />
<path d="M19.1262 12.4868
L19.1516 12.6115
" />
<path d="M20.8853 14.4679
L20.8921 14.3127
" />
<path d="M5.6859 10.3581
L5.7505 10.2485
" />
<path d="M14.6093 20.8060
L14.4901 20.8506
" />
<path d="M16.9679 19.3322
L16.8741 19.4181
" />
<path d="M7.9570 21.9321
L8.0960 22.0014
" />
<path d="M6.1014 9.7183
L6.1770 9.6161
" />
</g>
<g style="fill:none; 
stroke:#7FC87F; stroke-width:0.1270; stroke-opacity:1; 
stroke-linecap:round; stroke-linejoin:round;">
<path d="M7.5975 21.3021
L7.7975 21.0021
" />
</g>
<g style="fill:none; 
stroke:#7FC87F; stroke-width:0.1280; stroke-opacity:1; 
stroke-linecap:round; stroke-linejoin:round;">
<path d="M5.1490 11.5095
L5.1936 11.3903
" />
<path d="M5.3923 10.9221
L5.4471 10.8073
" />
<path d="M14.0063 6.9964
L14.1283 7.0326
" />
<path d="M4.7095 14.0021
L4.7106 13.8749
" />
<path d="M19.0987 12.3627
L19.1262 12.4868
" />
<path d="M18.8153 19.7229
L18.9141 19.6031
" />
<path d="M17.3276 9.0317
L17.4135 9.1255
" />
<path d="M9.9887 21.0078
L10.1112 21.0418
" />
<path d="M18.4912 17.3108
L18.4324 17.4236
" />
<path d="M13.1376 6.8038
L13.2630 6.8248
" />
<path d="M15.6175 5.8715
L15.4750 5.8096
" />
<path d="M10.6069 21.1562
L10.7320 21.1794
" />
<path d="M5.1936 16.6139
L5.1490 16.4947
" />
<path d="M11.2357 21.2502
L11.3623 21.2624
" />
<path d="M8.3775 22.1327
L9.0332 20.6600
" />
<path d="M10.7320 21.1794
L10.8574 21.2004
" />
</g>
<g style="fill:none; 
stroke:#7FC87F; stroke-width:0.1270; stroke-opacity:1; 
stroke-linecap:round; stroke-linejoin:round;">
<path d="M18.0975 20.1021
L17.6975 19.9021
" />
</g>
<g style="fill:none; 
stroke:#7FC87F; stroke-width:0.1280; stroke-opacity:1; 
stroke-linecap:round; stroke-linejoin:round;">
<path d="M19.0372 15.8884
L19.0032 16.0109
" />
<path d="M17.2400 8.9394
L17.3276 9.0317
" />
<path d="M15.9668 7.8899
L16.0729 7.9601
" />
<path d="M18.7548 16.7322
L18.7061 16.8497
" />
</g>
<g style="fill:none; 
stroke:#7FC87F; stroke-width:0.1270; stroke-opacity:1; 
stroke-linecap:round; stroke-linejoin:round;">
<path d="M4.0975 17.4021
L4.4975 17.1021
" />
</g>
<g style="fill:none; 
stroke:#7FC87F; stroke-width:0.1280; stroke-opacity:1; 
stroke-linecap:round; stroke-linejoin:round;">
<path d="M20.8636 14.7778
L20.8758 14.6229
" />
<path d="M12.1247 21.2890
L12.2518 21.2857
" />
<path d="M3.2071 12.6098
L3.1841 12.7635
" />
<path d="M12.2518 21.2857
L12.3789 21.2801
" />
<path d="M4.9578 15.8884
L4.9260 15.7652
" />
<path d="M16.3835 19.8226
L16.2813 19.8982
" />
<path d="M13.5128 6.8734
L13.6369 6.9009
" />
<path d="M11.7432 6.7185
L11.8703 6.7152
" />
<path d="M4.9260 12.2390
L4.9578 12.1158
" />
<path d="M18.6027 17.0821
L18.5479 17.1969
" />
<path d="M14.2496 20.9334
L14.1283 20.9716
" />
<path d="M12.1247 6.7152
L12.2518 6.7185
" />
<path d="M4.7273 13.4937
L4.7372 13.3669
" />
<path d="M15.3062 20.4958
L15.1923 20.5525
" />
<path d="M14.3702 20.8930
L14.2496 20.9334
" />
<path d="M19.0372 12.1158
L19.0690 12.2390
" />
<path d="M18.8460 16.4947
L18.8014 16.6139
" />
<path d="M10.8574 21.2004
L10.9832 21.2192
" />
</g>
<g style="fill:none; 
stroke:#7FC87F; stroke-width:0.1270; stroke-opacity:1; 
stroke-linecap:round; stroke-linejoin:round;">
<path d="M3.9982 17.9036
L4.0975 17.4021
" />
</g>
<g style="fill:none; 
stroke:#7FC87F; stroke-width:0.1280; stroke-opacity:1; 
stroke-linecap:round; stroke-linejoin:round;">
<path d="M6.9348 19.2446
L6.8441 19.1555
" />
<path d="M18.7548 11.2720
L18.8014 11.3903
" />
<path d="M11.9975 21.2901
L12.1247 21.2890
" />
<path d="M16.2813 19.8982
L16.1777 19.9721
" />
<path d="M5.7505 10.2485
L5.8169 10.1400
" />
<path d="M18.3717 17.5354
L18.3091 17.6461
" />
<path d="M3.1463 13.0718
L4.7494 13.2403
" />
<path d="M17.8180 9.6161
L17.8936 9.7183
" />
<path d="M7.7137 19.8982
L7.6115 19.8226
" />
<path d="M6.4972 9.2207
L6.5815 9.1255
" />
<path d="M17.8936 18.2859
L17.8180 18.3881
" />
<path d="M17.8180 18.3881
L17.7405 18.4890
" />
<path d="M11.2357 6.7540
L11.3623 6.7418
" />
<path d="M16.9679 8.6720
L17.0602 8.7596
" />
<path d="M9.2674 20.7594
L9.3857 20.8060
" />
</g>
<g style="fill:none; 
stroke:#7FC87F; stroke-width:0.1270; stroke-opacity:1; 
stroke-linecap:round; stroke-linejoin:round;">
<path d="M7.7975 21.0021
L8.1354 20.1827
" />
</g>
<g style="fill:none; 
stroke:#7FC87F; stroke-width:0.1280; stroke-opacity:1; 
stroke-linecap:round; stroke-linejoin:round;">
<path d="M18.7144 19.8410
L18.8153 19.7229
" />
</g>
<g style="fill:none; 
stroke:#7FC87F; stroke-width:0.1270; stroke-opacity:1; 
stroke-linecap:round; stroke-linejoin:round;">
<path d="M15.7975 6.7021
L15.4190 7.5672
" />
</g>
<g style="fill:none; 
stroke:#7FC87F; stroke-width:0.1280; stroke-opacity:1; 
stroke-linecap:round; stroke-linejoin:round;">
<path d="M19.5451 9.2858
L19.4617 9.1548
" />
<path d="M16.1777 19.9721
L16.0729 20.0441
" />
<path d="M12.5059 6.7319
L12.6327 6.7418
" />
<path d="M16.3835 8.1816
L16.4844 8.2591
" />
<path d="M14.4901 20.8506
L14.3702 20.8930
" />
<path d="M4.7139 14.2564
L4.7106 14.1293
" />
<path d="M5.2889 11.1545
L5.3396 11.0378
" />
<path d="M5.1936 11.3903
L5.2402 11.2720
" />
<path d="M19.1516 15.3927
L19.1262 15.5174
" />
<path d="M3.9982 17.9036
L4.0675 18.0426
" />
<path d="M12.7593 6.7540
L12.8857 6.7684
" />
<path d="M18.7061 11.1545
L18.7548 11.2720
" />
<path d="M13.9996 22.6740
L14.1506 22.6377
" />
<path d="M4.2899 18.4521
L5.6859 17.6461
" />
<path d="M19.0032 16.0109
L18.9670 16.1329
" />
<path d="M11.1093 21.2358
L11.2357 21.2502
" />
<path d="M18.1097 17.9714
L18.0395 18.0775
" />
<path d="M10.4822 21.1308
L10.6069 21.1562
" />
<path d="M19.2146 12.9878
L19.2312 13.1139
" />
<path d="M6.0275 18.1823
L5.9555 18.0775
" />
<path d="M7.5106 19.7451
L7.4110 19.6659
" />
<path d="M14.1506 22.6377
L14.3010 22.5988
" />
<path d="M5.7505 17.7557
L5.6859 17.6461
" />
<path d="M15.7511 20.2491
L15.6415 20.3137
" />
<path d="M4.8202 15.2676
L4.7992 15.1422
" />
<path d="M16.4844 19.7451
L16.3835 19.8226
" />
<path d="M4.8688 15.5174
L4.8434 15.3927
" />
<path d="M7.3129 19.5850
L7.2161 19.5024
" />
<path d="M5.5038 10.6934
L5.5626 10.5806
" />
</g>
<g style="fill:none; 
stroke:#7FC87F; stroke-width:0.1270; stroke-opacity:1; 
stroke-linecap:round; stroke-linejoin:round;">
<path d="M13.8479 22.7076
L13.3975 22.6021
" />
</g>
<g style="fill:none; 
stroke:#7FC87F; stroke-width:0.1280; stroke-opacity:1; 
stroke-linecap:round; stroke-linejoin:round;">
<path d="M9.8667 20.9716
L9.9887 21.0078
" />
<path d="M15.4750 5.8096
L15.3315 5.7502
" />
</g>
<g style="fill:none; 
stroke:#7FC87F; stroke-width:0.1270; stroke-opacity:1; 
stroke-linecap:round; stroke-linejoin:round;">
<path d="M13.0975 21.5021
L13.0118 21.2192
" />
</g>
<g style="fill:none; 
stroke:#7FC87F; stroke-width:0.1280; stroke-opacity:1; 
stroke-linecap:round; stroke-linejoin:round;">
<path d="M9.5049 20.8506
L9.6248 20.8930
" />
<path d="M20.8487 14.9324
L20.8636 14.7778
" />
<path d="M5.0280 11.8713
L5.0662 11.7500
" />
<path d="M5.0280 16.1329
L4.9918 16.0109
" />
<path d="M12.6327 6.7418
L12.7593 6.7540
" />
<path d="M3.1841 12.7635
L3.1638 12.9175
" />
<path d="M19.6263 9.4183
L19.5451 9.2858
" />
<path d="M6.4146 18.6867
L6.3337 18.5886
" />
<path d="M16.8741 8.5861
L16.9679 8.6720
" />
<path d="M9.3857 20.8060
L9.5049 20.8506
" />
<path d="M4.9260 15.7652
L4.8963 15.6415
" />
<path d="M16.0729 20.0441
L15.9668 20.1143
" />
<path d="M7.0271 19.3322
L6.9348 19.2446
" />
<path d="M12.8857 21.2358
L13.0118 21.2192
" />
<path d="M17.4978 9.2207
L17.5804 9.3175
" />
<path d="M6.5815 18.8787
L6.4972 18.7835
" />
<path d="M14.3702 7.1112
L14.4901 7.1536
" />
</g>
<g style="fill:none; 
stroke:#7FC87F; stroke-width:0.1270; stroke-opacity:1; 
stroke-linecap:round; stroke-linejoin:round;">
<path d="M7.8192 21.8603
L7.6975 21.6021
" />
</g>
<g style="fill:none; 
stroke:#7FC87F; stroke-width:0.1280; stroke-opacity:1; 
stroke-linecap:round; stroke-linejoin:round;">
<path d="M14.7276 20.7594
L14.6093 20.8060
" />
<path d="M7.1209 19.4181
L7.0271 19.3322
" />
</g>
<g style="fill:none; 
stroke:#7FC87F; stroke-width:0.1270; stroke-opacity:1; 
stroke-linecap:round; stroke-linejoin:round;">
<path d="M20.4975 15.3021
L19.6975 15.4021
" />
</g>
<g style="fill:none; 
stroke:#7FC87F; stroke-width:0.1280; stroke-opacity:1; 
stroke-linecap:round; stroke-linejoin:round;">
<path d="M6.2545 18.4890
L6.1770 18.3881
" />
<path d="M10.9832 6.7850
L11.1093 6.7684
" />
<path d="M4.8434 15.3927
L4.8202 15.2676
" />
<path d="M19.2811 13.7478
L19.2844 13.8749
" />
<path d="M15.5308 7.6279
L15.6415 7.6905
" />
<path d="M6.4972 18.7835
L6.4146 18.6867
" />
<path d="M4.9578 12.1158
L4.9918 11.9933
" />
<path d="M5.0662 11.7500
L5.1066 11.6294
" />
<path d="M5.4471 10.8073
L5.5038 10.6934
" />
<path d="M8.2362 22.0682
L8.3775 22.1327
" />
<path d="M18.8884 16.3748
L18.8460 16.4947
" />
<path d="M7.9221 20.0441
L7.8173 19.9721
" />
<path d="M20.8758 14.6229
L20.8853 14.4679
" />
</g>
<g style="fill:none; 
stroke:#7FC87F; stroke-width:0.1270; stroke-opacity:1; 
stroke-linecap:round; stroke-linejoin:round;">
<path d="M15.6175 5.8715
L15.8975 6.2021
" />
</g>
<g style="fill:none; 
stroke:#7FC87F; stroke-width:0.1280; stroke-opacity:1; 
stroke-linecap:round; stroke-linejoin:round;">
<path d="M18.9670 11.8713
L19.0032 11.9933
" />
<path d="M12.3789 21.2801
L12.5059 21.2723
" />
<path d="M10.3581 21.1033
L10.4822 21.1308
" />
<path d="M20.8921 14.3127
L19.2811 14.2564
" />
<path d="M4.7804 15.0164
L4.7638 14.8903
" />
<path d="M5.3396 11.0378
L5.3923 10.9221
" />
<path d="M10.9832 21.2192
L11.1093 21.2358
" />
<path d="M19.2677 13.4937
L19.2755 13.6207
" />
<path d="M4.8963 15.6415
L4.8688 15.5174
" />
<path d="M6.0275 9.8219
L6.1014 9.7183
" />
<path d="M19.4617 9.1548
L19.3759 9.0253
" />
<path d="M4.7494 14.7639
L4.7372 14.6373
" />
<path d="M13.8838 6.9624
L14.0063 6.9964
" />
<path d="M11.7432 21.2857
L11.8703 21.2890
" />
<path d="M9.0332 20.6600
L9.1499 20.7107
" />
<path d="M17.1509 8.8487
L17.2400 8.9394
" />
<path d="M19.3759 9.0253
L18.0395 9.9267
" />
<path d="M15.6415 7.6905
L15.7511 7.7551
" />
<path d="M19.1958 12.8620
L19.2146 12.9878
" />
<path d="M5.0662 16.2542
L5.0280 16.1329
" />
<path d="M15.0415 5.6388
L14.4901 7.1536
" />
</g>
<g style="fill:none; 
stroke:#7FC87F; stroke-width:0.1270; stroke-opacity:1; 
stroke-linecap:round; stroke-linejoin:round;">
<path d="M19.7051 9.5521
L19.6975 9.9021
" />
</g>
<g style="fill:none; 
stroke:#7FC87F; stroke-width:0.1280; stroke-opacity:1; 
stroke-linecap:round; stroke-linejoin:round;">
<path d="M4.7106 14.1293
L4.7095 14.0021
" />
<path d="M15.4190 7.5672
L15.5308 7.6279
" />
<path d="M19.0108 19.4815
L17.7405 18.4890
" />
<path d="M14.3010 22.5988
L14.4507 22.5573
" />
</g>
<g style="fill:none; 
stroke:#7FC87F; stroke-width:0.1270; stroke-opacity:1; 
stroke-linecap:round; stroke-linejoin:round;">
<path d="M19.4975 10.3021
L18.9975 10.6021
" />
</g>
<g style="fill:none; 
stroke:#7FC87F; stroke-width:0.1280; stroke-opacity:1; 
stroke-linecap:round; stroke-linejoin:round;">
<path d="M13.3881 6.8480
L13.5128 6.8734
" />
<path d="M11.6161 6.7241
L11.7432 6.7185
" />
<path d="M18.9288 16.2542
L18.8884 16.3748
" />
<path d="M14.1283 20.9716
L14.0063 21.0078
" />
<path d="M12.6327 21.2624
L12.7593 21.2502
" />
<path d="M4.7195 13.6207
L4.7273 13.4937
" />
<path d="M6.2545 9.5152
L6.3337 9.4156
" />
<path d="M7.8192 21.8603
L7.9570 21.9321
" />
<path d="M18.6554 16.9664
L18.6027 17.0821
" />
</g>
<g style="fill:none; 
stroke:#7FC87F; stroke-width:0.1270; stroke-opacity:1; 
stroke-linecap:round; stroke-linejoin:round;">
<path d="M17.6975 19.9021
L17.0602 19.2446
" />
</g>
<g style="fill:none; 
stroke:#7FC87F; stroke-width:0.1280; stroke-opacity:1; 
stroke-linecap:round; stroke-linejoin:round;">
<path d="M19.2844 13.8749
L19.2855 14.0021
" />
<path d="M16.6821 19.5850
L16.5840 19.6659
" />
<path d="M6.1014 18.2859
L6.0275 18.1823
" />
<path d="M19.0032 11.9933
L19.0372 12.1158
" />
<path d="M19.0690 15.7652
L19.0372 15.8884
" />
<path d="M13.8479 22.7076
L13.9996 22.6740
" />
<path d="M17.0602 19.2446
L16.9679 19.3322
" />
<path d="M4.7273 14.5105
L4.7195 14.3835
" />
<path d="M17.8936 9.7183
L17.9675 9.8219
" />
<path d="M11.6161 21.2801
L11.7432 21.2857
" />
<path d="M18.1781 17.8642
L18.1097 17.9714
" />
<path d="M16.6821 8.4192
L16.7789 8.5018
" />
<path d="M15.6415 20.3137
L15.5308 20.3763
" />
<path d="M11.8703 6.7152
L11.9975 6.7141
" />
<path d="M4.7372 14.6373
L4.7273 14.5105
" />
<path d="M18.4324 17.4236
L18.3717 17.5354
" />
<path d="M6.1347 18.7497
L6.0527 18.6467
" />
<path d="M19.0202 20.3254
L19.1295 20.2019
" />
<path d="M2.5533 13.6723
L4.4581 13.7388
" />
<path d="M14.1233 23.2099
L14.2837 23.1714
" />
</g>
<g style="fill:none; 
stroke:#7FC87F; stroke-width:0.1270; stroke-opacity:1; 
stroke-linecap:round; stroke-linejoin:round;">
<path d="M13.1975 22.9021
L12.9975 22.4021
" />
</g>
<g style="fill:none; 
stroke:#7FC87F; stroke-width:0.1280; stroke-opacity:1; 
stroke-linecap:round; stroke-linejoin:round;">
<path d="M8.6904 7.2216
L8.8093 7.1649
" />
<path d="M17.3319 8.6677
L17.4242 8.7616
" />
<path d="M21.4245 14.6613
L21.4345 14.4967
" />
<path d="M19.7385 19.4224
L19.8319 19.2865
" />
</g>
<g style="fill:none; 
stroke:#7FC87F; stroke-width:0.1270; stroke-opacity:1; 
stroke-linecap:round; stroke-linejoin:round;">
<path d="M7.2975 21.7021
L7.2975 21.0021
" />
<path d="M19.8975 10.1021
L19.5975 10.8021
" />
<path d="M5.4330 7.2043
L6.0975 6.7021
" />
</g>
<g style="fill:none; 
stroke:#7FC87F; stroke-width:0.1280; stroke-opacity:1; 
stroke-linecap:round; stroke-linejoin:round;">
<path d="M3.5775 18.2923
L3.6536 18.4386
" />
<path d="M11.4713 21.5277
L11.6027 21.5358
" />
<path d="M19.7385 8.5818
L19.6427 8.4475
" />
<path d="M18.6585 17.5438
L18.5956 17.6595
" />
<path d="M19.4853 13.0827
L19.5002 13.2135
" />
<path d="M7.3529 19.9469
L7.2499 19.8649
" />
<path d="M18.8347 17.1903
L18.7780 17.3092
" />
<path d="M16.7451 8.1393
L16.8467 8.2231
" />
<path d="M5.5998 10.0044
L5.6706 9.8933
" />
<path d="M7.5632 20.1053
L7.4574 20.0270
" />
<path d="M10.3005 21.3527
L10.4290 21.3812
" />
<path d="M19.4269 12.6921
L19.4486 12.8220
" />
</g>
<g style="fill:none; 
stroke:#7FC87F; stroke-width:0.1270; stroke-opacity:1; 
stroke-linecap:round; stroke-linejoin:round;">
<path d="M20.1814 9.2771
L19.8975 10.1021
" />
</g>
<g style="fill:none; 
stroke:#7FC87F; stroke-width:0.1280; stroke-opacity:1; 
stroke-linecap:round; stroke-linejoin:round;">
<path d="M5.2170 10.6950
L5.2757 10.5772
" />
<path d="M2.6179 12.8504
L2.5993 13.0143
" />
<path d="M5.3365 10.4604
L5.3994 10.3447
" />
<path d="M19.3766 12.4336
L19.4029 12.5626
" />
<path d="M19.1295 20.2019
L19.2366 20.0764
" />
<path d="M16.2161 20.2564
L16.1063 20.3290
" />
<path d="M4.5269 15.0520
L4.5097 14.9215
" />
<path d="M5.9726 9.4620
L6.0527 9.3575
" />
<path d="M10.4290 21.3812
L10.5580 21.4075
" />
<path d="M8.2255 7.4688
L8.3401 7.4040
" />
<path d="M9.1715 7.0074
L9.2940 6.9592
" />
<path d="M4.6184 15.5706
L4.5921 15.4416
" />
<path d="M19.3481 12.3051
L19.3766 12.4336
" />
</g>
<g style="fill:none; 
stroke:#7FC87F; stroke-width:0.1270; stroke-opacity:1; 
stroke-linecap:round; stroke-linejoin:round;">
<path d="M19.0202 20.3254
L18.0975 20.4021
" />
</g>
<g style="fill:none; 
stroke:#7FC87F; stroke-width:0.1280; stroke-opacity:1; 
stroke-linecap:round; stroke-linejoin:round;">
<path d="M4.6469 15.6991
L4.6184 15.5706
" />
<path d="M7.5610 22.3460
L7.7073 22.4221
" />
<path d="M21.4345 14.4967
L21.4417 14.3319
" />
<path d="M10.9476 21.4727
L11.0781 21.4899
" />
</g>
<g style="fill:none; 
stroke:#7FC87F; stroke-width:0.1270; stroke-opacity:1; 
stroke-linecap:round; stroke-linejoin:round;">
<path d="M6.0975 6.7021
L6.9975 6.7021
" />
</g>
<g style="fill:none; 
stroke:#7FC87F; stroke-width:0.1280; stroke-opacity:1; 
stroke-linecap:round; stroke-linejoin:round;">
<path d="M15.2296 22.8822
L14.5777 21.0911
" />
<path d="M19.0865 11.4219
L19.1305 11.5460
" />
<path d="M16.2161 7.7478
L16.3246 7.8224
" />
<path d="M4.5681 15.3121
L4.5464 15.1822
" />
<path d="M5.7432 9.7835
L5.8178 9.6750
" />
</g>
<g style="fill:none; 
stroke:#7FC87F; stroke-width:0.1270; stroke-opacity:1; 
stroke-linecap:round; stroke-linejoin:round;">
<path d="M4.1975 15.9021
L4.6469 15.6991
" />
</g>
<g style="fill:none; 
stroke:#7FC87F; stroke-width:0.1280; stroke-opacity:1; 
stroke-linecap:round; stroke-linejoin:round;">
<path d="M14.2837 23.1714
L14.4433 23.1301
" />
<path d="M15.4224 20.7239
L15.3046 20.7826
" />
<path d="M15.8829 20.4686
L15.7695 20.5354
" />
<path d="M17.2380 8.5754
L17.3319 8.6677
" />
<path d="M16.1063 20.3290
L15.9952 20.3998
" />
<path d="M16.7451 19.8649
L16.6421 19.9469
" />
<path d="M2.5993 13.0143
L2.5835 13.1785
" />
<path d="M15.5392 20.6631
L15.4224 20.7239
" />
<path d="M19.1723 16.3333
L19.1305 16.4582
" />
<path d="M15.9952 20.3998
L15.8829 20.4686
" />
<path d="M19.5446 19.6893
L19.6427 19.5567
" />
<path d="M8.3401 7.4040
L8.4558 7.3411
" />
</g>
<g style="fill:none; 
stroke:#7FC87F; stroke-width:0.1270; stroke-opacity:1; 
stroke-linecap:round; stroke-linejoin:round;">
<path d="M2.6911 12.3611
L2.8975 11.4021
" />
</g>
<g style="fill:none; 
stroke:#7FC87F; stroke-width:0.1280; stroke-opacity:1; 
stroke-linecap:round; stroke-linejoin:round;">
<path d="M19.5002 13.2135
L19.5128 13.3446
" />
<path d="M5.8943 18.4364
L5.8178 18.3292
" />
</g>
<g style="fill:none; 
stroke:#7FC87F; stroke-width:0.1270; stroke-opacity:1; 
stroke-linecap:round; stroke-linejoin:round;">
<path d="M19.6975 15.8021
L19.3174 15.8272
" />
</g>
<g style="fill:none; 
stroke:#7FC87F; stroke-width:0.1280; stroke-opacity:1; 
stroke-linecap:round; stroke-linejoin:round;">
<path d="M19.4442 19.8201
L19.5446 19.6893
" />
<path d="M4.5464 15.1822
L4.5269 15.0520
" />
<path d="M3.9834 19.0098
L4.0721 19.1489
" />
<path d="M6.4802 19.1471
L6.3912 19.0500
" />
<path d="M16.6421 19.9469
L16.5376 20.0270
" />
<path d="M8.9291 7.1103
L9.0498 7.0578
" />
<path d="M21.4475 14.0021
L21.4461 13.8372
" />
<path d="M4.1631 19.2865
L5.7432 18.2207
" />
<path d="M4.4948 14.7907
L4.4822 14.6596
" />
<path d="M9.4173 21.0911
L9.5414 21.1351
" />
<path d="M15.1857 20.8393
L15.0659 20.8939
" />
<path d="M10.8174 21.4532
L10.9476 21.4727
" />
<path d="M19.4486 12.8220
L19.4681 12.9522
" />
<path d="M21.4115 14.8257
L21.4245 14.6613
" />
</g>
<g style="fill:none; 
stroke:#7FC87F; stroke-width:0.1270; stroke-opacity:1; 
stroke-linecap:round; stroke-linejoin:round;">
<path d="M16.9975 20.0021
L16.8467 19.7811
" />
</g>
<g style="fill:none; 
stroke:#7FC87F; stroke-width:0.1280; stroke-opacity:1; 
stroke-linecap:round; stroke-linejoin:round;">
<path d="M4.5097 14.9215
L4.4948 14.7907
" />
<path d="M9.5517 4.8741
L9.3927 4.9182
" />
<path d="M8.6109 22.8244
L8.7654 22.8822
" />
<path d="M19.5231 13.4759
L19.5312 13.6073
" />
<path d="M19.0865 16.5823
L19.0404 16.7056
" />
<path d="M19.8319 19.2865
L18.2518 18.2207
" />
<path d="M12.2608 21.5415
L12.3923 21.5358
" />
<path d="M19.5128 13.3446
L19.5231 13.4759
" />
<path d="M9.8717 4.7943
L9.7113 4.8328
" />
<path d="M4.4546 14.1338
L4.4535 14.0021
" />
<path d="M17.8603 9.2545
L17.9423 9.3575
" />
<path d="M21.3957 14.9899
L21.4115 14.8257
" />
<path d="M6.8525 19.5194
L6.7570 19.4288
" />
<path d="M14.7604 23.0392
L14.9177 22.9896
" />
</g>
<g style="fill:none; 
stroke:#7FC87F; stroke-width:0.1270; stroke-opacity:1; 
stroke-linecap:round; stroke-linejoin:round;">
<path d="M7.8975 7.0021
L8.2255 7.4688
" />
</g>
<g style="fill:none; 
stroke:#7FC87F; stroke-width:0.1280; stroke-opacity:1; 
stroke-linecap:round; stroke-linejoin:round;">
<path d="M5.8178 18.3292
L5.7432 18.2207
" />
<path d="M14.7010 21.0450
L14.5777 21.0911
" />
<path d="M8.4575 22.7640
L8.6109 22.8244
" />
<path d="M14.4433 23.1301
L14.6023 23.0860
" />
<path d="M7.0482 19.6956
L6.9496 19.6084
" />
<path d="M9.6663 21.1769
L9.7918 21.2165
" />
<path d="M8.4558 7.3411
L8.5726 7.2803
" />
<path d="M16.5376 7.9772
L16.6421 8.0573
" />
<path d="M19.3174 15.8272
L19.2844 15.9546
" />
<path d="M5.5310 10.1167
L5.5998 10.0044
" />
<path d="M17.4242 8.7616
L17.5148 8.8571
" />
<path d="M5.4642 10.2301
L5.5310 10.1167
" />
<path d="M9.4173 6.9131
L9.5414 6.8691
" />
<path d="M4.4581 14.2654
L4.4546 14.1338
" />
<path d="M4.6535 8.0550
L4.5508 8.1841
" />
</g>
<g style="fill:none; 
stroke:#7FC87F; stroke-width:0.1270; stroke-opacity:1; 
stroke-linecap:round; stroke-linejoin:round;">
<path d="M18.0975 20.4021
L17.4975 20.2021
" />
<path d="M19.5975 10.8021
L18.9922 11.1761
" />
</g>
<g style="fill:none; 
stroke:#7FC87F; stroke-width:0.1280; stroke-opacity:1; 
stroke-linecap:round; stroke-linejoin:round;">
<path d="M4.4719 14.5283
L4.4638 14.3969
" />
<path d="M10.3565 4.6957
L10.1944 4.7257
" />
<path d="M3.5039 18.1447
L3.5775 18.2923
" />
<path d="M20.0116 8.9944
L19.9229 8.8553
" />
<path d="M19.2493 16.0815
L19.2119 16.2078
" />
<path d="M4.9748 7.6788
L4.8655 7.8023
" />
</g>
<g style="fill:none; 
stroke:#7FC87F; stroke-width:0.1270; stroke-opacity:1; 
stroke-linecap:round; stroke-linejoin:round;">
<path d="M21.3957 14.9899
L20.5975 15.6021
" />
</g>
<g style="fill:none; 
stroke:#7FC87F; stroke-width:0.1280; stroke-opacity:1; 
stroke-linecap:round; stroke-linejoin:round;">
<path d="M5.9726 18.5422
L5.8943 18.4364
" />
<path d="M16.5376 20.0270
L16.4318 20.1053
" />
<path d="M9.2940 6.9592
L9.4173 6.9131
" />
<path d="M6.5708 19.2426
L6.4802 19.1471
" />
<path d="M17.0454 8.3958
L17.1425 8.4848
" />
<path d="M4.4822 14.6596
L4.4719 14.5283
" />
<path d="M6.2185 18.8513
L6.1347 18.7497
" />
<path d="M18.8893 17.0705
L18.8347 17.1903
" />
<path d="M19.2366 20.0764
L19.3415 19.9492
" />
</g>
<g style="fill:none; 
stroke:#7FC87F; stroke-width:0.1270; stroke-opacity:1; 
stroke-linecap:round; stroke-linejoin:round;">
<path d="M6.9975 6.7021
L7.8975 7.0021
" />
</g>
<g style="fill:none; 
stroke:#7FC87F; stroke-width:0.1280; stroke-opacity:1; 
stroke-linecap:round; stroke-linejoin:round;">
<path d="M10.5580 21.4075
L10.6875 21.4315
" />
<path d="M10.0327 4.7586
L9.8717 4.7943
" />
<path d="M18.7780 17.3092
L18.7193 17.4270
" />
<path d="M19.2493 11.9227
L19.2844 12.0496
" />
<path d="M10.5192 4.6684
L10.3565 4.6957
" />
<path d="M14.6023 23.0860
L14.7604 23.0392
" />
<path d="M16.4318 20.1053
L16.3246 20.1818
" />
<path d="M18.3244 18.1109
L18.2518 18.2207
" />
<path d="M14.8235 20.9968
L14.7010 21.0450
" />
<path d="M11.0781 21.4899
L11.2089 21.5048
" />
<path d="M9.0498 7.0578
L9.1715 7.0074
" />
<path d="M9.6663 6.8273
L9.7918 6.7877
" />
<path d="M18.4640 17.8875
L18.3952 17.9998
" />
<path d="M8.3051 22.7009
L8.4575 22.7640
" />
<path d="M2.5835 13.1785
L2.5705 13.3429
" />
</g>
<g style="fill:none; 
stroke:#7FC87F; stroke-width:0.1270; stroke-opacity:1; 
stroke-linecap:round; stroke-linejoin:round;">
<path d="M7.5610 22.3460
L7.2975 21.7021
" />
</g>
<g style="fill:none; 
stroke:#7FC87F; stroke-width:0.1280; stroke-opacity:1; 
stroke-linecap:round; stroke-linejoin:round;">
<path d="M7.4574 20.0270
L7.3529 19.9469
" />
<path d="M12.3923 21.5358
L12.5237 21.5277
" />
<path d="M2.5705 13.3429
L2.5605 13.5075
" />
<path d="M14.9452 20.9464
L14.8235 20.9968
" />
<path d="M5.8178 9.6750
L5.8943 9.5678
" />
<path d="M17.7765 9.1529
L17.8603 9.2545
" />
<path d="M19.2844 15.9546
L19.2493 16.0815
" />
<path d="M16.8467 19.7811
L16.7451 19.8649
" />
<path d="M18.5956 17.6595
L18.5308 17.7741
" />
<path d="M4.4546 13.8704
L4.4581 13.7388
" />
<path d="M15.0659 20.8939
L14.9452 20.9464
" />
<path d="M12.1292 21.5450
L12.2608 21.5415
" />
<path d="M18.9418 16.9498
L18.8893 17.0705
" />
</g>
<g style="fill:none; 
stroke:#7FC87F; stroke-width:0.1270; stroke-opacity:1; 
stroke-linecap:round; stroke-linejoin:round;">
<path d="M2.8975 11.4021
L3.9975 10.7021
" />
</g>
<g style="fill:none; 
stroke:#7FC87F; stroke-width:0.1280; stroke-opacity:1; 
stroke-linecap:round; stroke-linejoin:round;">
<path d="M5.2757 10.5772
L5.3365 10.4604
" />
<path d="M11.9975 21.5461
L12.1292 21.5450
" />
<path d="M15.0741 22.9373
L15.2296 22.8822
" />
<path d="M18.9922 11.1761
L19.0404 11.2986
" />
<path d="M11.7342 21.5415
L11.8658 21.5450
" />
<path d="M9.5414 21.1351
L9.6663 21.1769
" />
</g>
<g style="fill:none; 
stroke:#7FC87F; stroke-width:0.1270; stroke-opacity:1; 
stroke-linecap:round; stroke-linejoin:round;">
<path d="M20.5975 15.6021
L19.6975 15.8021
" />
</g>
<g style="fill:none; 
stroke:#7FC87F; stroke-width:0.1280; stroke-opacity:1; 
stroke-linecap:round; stroke-linejoin:round;">
<path d="M2.6911 12.3611
L2.6638 12.5238
" />
<path d="M21.4417 14.3319
L21.4461 14.1670
" />
<path d="M8.7654 22.8822
L9.4173 21.0911
" />
<path d="M6.9496 19.6084
L6.8525 19.5194
" />
<path d="M11.2089 21.5048
L11.3400 21.5174
" />
<path d="M5.1997 7.4376
L5.0862 7.5572
" />
<path d="M5.6706 9.8933
L5.7432 9.7835
" />
</g>
<g style="fill:none; 
stroke:#7FC87F; stroke-width:0.1270; stroke-opacity:1; 
stroke-linecap:round; stroke-linejoin:round;">
<path d="M3.5975 16.3021
L4.1975 15.9021
" />
</g>
<g style="fill:none; 
stroke:#7FC87F; stroke-width:0.1280; stroke-opacity:1; 
stroke-linecap:round; stroke-linejoin:round;">
<path d="M4.5921 15.4416
L4.5681 15.3121
" />
<path d="M16.4318 7.8989
L16.5376 7.9772
" />
<path d="M4.8655 7.8023
L4.7584 7.9278
" />
<path d="M19.2844 12.0496
L19.3174 12.1770
" />
<path d="M7.7073 22.4221
L7.8549 22.4957
" />
</g>
<g style="fill:none; 
stroke:#7FC87F; stroke-width:0.1270; stroke-opacity:1; 
stroke-linecap:round; stroke-linejoin:round;">
<path d="M3.9975 10.7021
L5.2170 10.6950
" />
</g>
<g style="fill:none; 
stroke:#7FC87F; stroke-width:0.1280; stroke-opacity:1; 
stroke-linecap:round; stroke-linejoin:round;">
<path d="M6.7570 19.4288
L6.6631 19.3365
" />
<path d="M19.3415 19.9492
L19.4442 19.8201
" />
<path d="M21.4461 14.1670
L21.4475 14.0021
" />
<path d="M21.4417 13.6723
L19.5369 13.7388
" />
<path d="M19.5446 8.3149
L19.4442 8.1841
" />
<path d="M10.6823 4.6441
L10.5192 4.6684
" />
<path d="M5.3994 10.3447
L5.4642 10.2301
" />
<path d="M5.4330 7.2043
L5.3153 7.3199
" />
<path d="M4.4638 14.3969
L4.4581 14.2654
" />
<path d="M7.2499 19.8649
L7.1483 19.7811
" />
<path d="M17.1425 8.4848
L17.2380 8.5754
" />
<path d="M16.3246 7.8224
L16.4318 7.8989
" />
<path d="M8.8093 7.1649
L8.9291 7.1103
" />
<path d="M8.5726 7.2803
L8.6904 7.2216
" />
<path d="M4.5508 8.1841
L6.0527 9.3575
" />
<path d="M3.6536 18.4386
L3.7323 18.5836
" />
</g>
<g style="fill:none; 
stroke:#7FC87F; stroke-width:0.1270; stroke-opacity:1; 
stroke-linecap:round; stroke-linejoin:round;">
<path d="M3.4975 17.3021
L3.5975 16.3021
" />
</g>
<g style="fill:none; 
stroke:#7FC87F; stroke-width:0.1280; stroke-opacity:1; 
stroke-linecap:round; stroke-linejoin:round;">
<path d="M11.6027 21.5358
L11.7342 21.5415
" />
<path d="M10.0450 21.2890
L10.1724 21.3220
" />
<path d="M10.1944 4.7257
L10.0327 4.7586
" />
<path d="M15.3046 20.7826
L15.1857 20.8393
" />
<path d="M5.8943 9.5678
L5.9726 9.4620
" />
<path d="M20.1814 9.2771
L20.0977 9.1350
" />
<path d="M4.0721 19.1489
L4.1631 19.2865
" />
<path d="M8.1538 22.6351
L8.3051 22.7009
" />
<path d="M9.5414 6.8691
L9.6663 6.8273
" />
<path d="M9.3927 4.9182
L9.9181 6.7503
" />
<path d="M3.8136 18.7271
L3.8973 18.8692
" />
<path d="M19.3174 12.1770
L19.3481 12.3051
" />
<path d="M19.6427 19.5567
L19.7385 19.4224
" />
<path d="M13.9623 23.2456
L14.1233 23.2099
" />
<path d="M19.1305 11.5460
L19.1723 11.6709
" />
<path d="M2.6638 12.5238
L2.6395 12.6869
" />
<path d="M6.3912 19.0500
L6.3040 18.9514
" />
<path d="M21.4461 13.8372
L21.4417 13.6723
" />
<path d="M6.3040 18.9514
L6.2185 18.8513
" />
<path d="M19.2119 11.7964
L19.2493 11.9227
" />
<path d="M11.3400 21.5174
L11.4713 21.5277
" />
</g>
<g style="fill:none; 
stroke:#7FC87F; stroke-width:0.1270; stroke-opacity:1; 
stroke-linecap:round; stroke-linejoin:round;">
<path d="M17.4975 20.2021
L16.9975 20.0021
" />
</g>
<g style="fill:none; 
stroke:#7FC87F; stroke-width:0.1280; stroke-opacity:1; 
stroke-linecap:round; stroke-linejoin:round;">
<path d="M2.6395 12.6869
L2.6179 12.8504
" />
<path d="M9.7918 21.2165
L9.9181 21.2539
" />
<path d="M17.5148 8.8571
L17.6038 8.9542
" />
<path d="M5.3153 7.3199
L5.1997 7.4376
" />
<path d="M14.9177 22.9896
L15.0741 22.9373
" />
<path d="M19.4029 12.5626
L19.4269 12.6921
" />
</g>
<g style="fill:none; 
stroke:#7FC87F; stroke-width:0.1270; stroke-opacity:1; 
stroke-linecap:round; stroke-linejoin:round;">
<path d="M7.2975 21.0021
L7.5632 20.1053
" />
</g>
<g style="fill:none; 
stroke:#7FC87F; stroke-width:0.1280; stroke-opacity:1; 
stroke-linecap:round; stroke-linejoin:round;">
<path d="M8.0038 22.5667
L8.1538 22.6351
" />
<path d="M19.6427 8.4475
L19.5446 8.3149
" />
<path d="M16.8467 8.2231
L16.9468 8.3086
" />
</g>
<g style="fill:none; 
stroke:#7FC87F; stroke-width:0.1270; stroke-opacity:1; 
stroke-linecap:round; stroke-linejoin:round;">
<path d="M12.9975 22.4021
L12.5975 21.8021
" />
</g>
<g style="fill:none; 
stroke:#7FC87F; stroke-width:0.1280; stroke-opacity:1; 
stroke-linecap:round; stroke-linejoin:round;">
<path d="M17.6910 9.0528
L17.7765 9.1529
" />
<path d="M9.7918 6.7877
L9.9181 6.7503
" />
<path d="M3.7323 18.5836
L3.8136 18.7271
" />
<path d="M5.0862 7.5572
L4.9748 7.6788
" />
<path d="M19.5312 13.6073
L19.5369 13.7388
" />
<path d="M10.1724 21.3220
L10.3005 21.3527
" />
<path d="M16.6421 8.0573
L16.7451 8.1393
" />
<path d="M17.6038 8.9542
L17.6910 9.0528
" />
<path d="M4.7584 7.9278
L4.6535 8.0550
" />
<path d="M19.1305 16.4582
L19.0865 16.5823
" />
<path d="M4.4535 14.0021
L4.4546 13.8704
" />
<path d="M7.1483 19.7811
L7.0482 19.6956
" />
<path d="M19.4681 12.9522
L19.4853 13.0827
" />
<path d="M15.6549 20.6002
L15.5392 20.6631
" />
<path d="M3.8973 18.8692
L3.9834 19.0098
" />
<path d="M19.4442 8.1841
L17.9423 9.3575
" />
<path d="M16.3246 20.1818
L16.2161 20.2564
" />
<path d="M19.9229 8.8553
L19.8319 8.7177
" />
<path d="M20.0977 9.1350
L20.0116 8.9944
" />
<path d="M2.5605 13.5075
L2.5533 13.6723
" />
<path d="M19.0404 11.2986
L19.0865 11.4219
" />
<path d="M9.7113 4.8328
L9.5517 4.8741
" />
<path d="M11.8658 21.5450
L11.9975 21.5461
" />
</g>
<g style="fill:none; 
stroke:#7FC87F; stroke-width:0.1270; stroke-opacity:1; 
stroke-linecap:round; stroke-linejoin:round;">
<path d="M3.5039 18.1447
L3.4975 17.3021
" />
<path d="M13.9623 23.2456
L13.1975 22.9021
" />
</g>
<g style="fill:none; 
stroke:#7FC87F; stroke-width:0.1280; stroke-opacity:1; 
stroke-linecap:round; stroke-linejoin:round;">
<path d="M19.0404 16.7056
L18.9922 16.8281
" />
<path d="M15.7695 20.5354
L15.6549 20.6002
" />
<path d="M19.2119 16.2078
L19.1723 16.3333
" />
<path d="M18.5308 17.7741
L18.4640 17.8875
" />
<path d="M10.6875 21.4315
L10.8174 21.4532
" />
<path d="M15.9952 7.6044
L16.1063 7.6752
" />
<path d="M16.1063 7.6752
L16.2161 7.7478
" />
<path d="M9.9181 21.2539
L10.0450 21.2890
" />
<path d="M19.8319 8.7177
L19.7385 8.5818
" />
<path d="M18.3952 17.9998
L18.3244 18.1109
" />
</g>
<g style="fill:none; 
stroke:#7FC87F; stroke-width:0.1270; stroke-opacity:1; 
stroke-linecap:round; stroke-linejoin:round;">
<path d="M12.5975 21.8021
L12.5237 21.5277
" />
</g>
<g style="fill:none; 
stroke:#7FC87F; stroke-width:0.1280; stroke-opacity:1; 
stroke-linecap:round; stroke-linejoin:round;">
<path d="M18.9922 16.8281
L18.9418 16.9498
" />
<path d="M16.9468 8.3086
L17.0454 8.3958
" />
<path d="M19.1723 11.6709
L19.2119 11.7964
" />
<path d="M18.7193 17.4270
L18.6585 17.5438
" />
<path d="M7.8549 22.4957
L8.0038 22.5667
" />
<path d="M6.0527 18.6467
L5.9726 18.5422
" />
<path d="M6.6631 19.3365
L6.5708 19.2426
" />
<path d="M2.1964 9.0082
L2.1108 9.1800
" />
<path d="M15.5787 3.6014
L15.3967 3.5405
" />
<path d="M22.5169 10.7860
L22.4591 10.6029
" />
<path d="M4.3563 21.9148
L4.4955 22.0470
" />
<path d="M22.9908 13.6182
L22.9824 13.4264
" />
<path d="M22.9824 13.4264
L22.9707 13.2348
" />
<path d="M1.7985 9.8814
L1.7281 10.0601
" />
<path d="M13.5284 3.1092
L13.3381 3.0841
" />
<path d="M1.1046 12.4712
L1.0795 12.6615
" />
<path d="M12.3814 3.0088
L12.1895 3.0038
" />
<path d="M6.3321 4.5733
L6.1684 4.6736
" />
<path d="M22.1965 18.1228
L22.2669 17.9441
" />
<path d="M14.8445 24.6273
L15.0295 24.5760
" />
<path d="M3.3294 20.7744
L3.4489 20.9246
" />
<path d="M22.6708 11.3410
L22.6227 11.1551
" />
<path d="M1.0042 14.3860
L2.0036 14.3511
" />
<path d="M11.0388 24.9602
L11.2302 24.9753
" />
<path d="M3.9526 21.5041
L4.0848 21.6433
" />
<path d="M10.0874 3.1692
L9.8986 3.2042
" />
<path d="M16.9914 4.2010
L16.8196 4.1154
" />
<path d="M1.6609 10.2399
L1.5968 10.4209
" />
<path d="M8.4163 3.6014
L8.2353 3.6655
" />
<path d="M6.1684 4.6736
L6.0065 4.7767
" />
<path d="M7.8768 24.2011
L8.0555 24.2715
" />
<path d="M9.1505 3.3769
L8.9655 3.4282
" />
<path d="M4.7809 22.3039
L4.9268 22.4286
" />
<path d="M3.5710 21.0728
L3.6957 21.2187
" />
<path d="M19.4995 5.9572
L19.3579 5.8275
" />
<path d="M3.6957 21.2187
L3.8229 21.3625
" />
<path d="M22.7954 16.1010
L22.8304 15.9122
" />
<path d="M22.4591 10.6029
L22.3982 10.4209
" />
<path d="M22.2669 17.9441
L22.3341 17.7643
" />
<path d="M2.8781 7.8510
L2.7721 8.0111
" />
<path d="M2.1964 18.9960
L2.2851 19.1663
" />
<path d="M10.6569 3.0841
L10.4666 3.1092
" />
<path d="M11.0388 3.0440
L10.8477 3.0624
" />
<path d="M3.8229 6.6417
L3.6957 6.7855
" />
<path d="M14.8445 3.3769
L14.6586 3.3288
" />
<path d="M18.4631 5.1029
L18.3068 4.9914
" />
<path d="M10.2767 3.1375
L10.0874 3.1692
" />
<path d="M6.6646 23.6229
L6.8333 23.7145
" />
<path d="M1.1996 16.1010
L1.2379 16.2891
" />
<path d="M16.8196 4.1154
L16.6463 4.0327
" />
<path d="M2.0281 18.6509
L2.1108 18.8242
" />
<path d="M17.6629 23.4309
L17.8266 23.3306
" />
<path d="M20.0424 21.5041
L20.1721 21.3625
" />
<path d="M4.0848 21.6433
L4.2193 21.7803
" />
<path d="M9.3364 24.6754
L9.5230 24.7202
" />
<path d="M21.3260 19.8312
L21.4263 19.6675
" />
<path d="M1.7985 18.1228
L1.8719 18.3001
" />
<path d="M21.6183 19.3350
L21.7099 19.1663
" />
<path d="M8.5983 3.5405
L8.4163 3.6014
" />
<path d="M22.9707 14.7694
L22.9824 14.5778
" />
<path d="M1.5968 17.5833
L1.6609 17.7643
" />
<path d="M22.7156 16.4766
L22.7571 16.2891
" />
<path d="M8.2353 3.6655
L8.5773 4.6052
" />
<path d="M22.8621 15.7229
L22.8904 15.5330
" />
<path d="M6.8333 23.7145
L7.0036 23.8032
" />
<path d="M8.9655 24.5760
L9.2411 23.6147
" />
<path d="M5.3775 22.7871
L5.5319 22.9013
" />
<path d="M10.8477 24.9418
L11.0388 24.9602
" />
<path d="M19.9102 6.3609
L19.7757 6.2239
" />
<path d="M13.7183 24.8667
L13.9076 24.8350
" />
<path d="M2.6690 8.1730
L2.5687 8.3367
" />
<path d="M20.4240 6.9314
L20.2993 6.7855
" />
<path d="M21.4263 19.6675
L21.5238 19.5021
" />
<path d="M3.3294 7.2298
L3.2125 7.3821
" />
<path d="M21.0082 20.3114
L21.1169 20.1532
" />
<path d="M20.4240 21.0728
L20.5461 20.9246
" />
<path d="M22.9908 14.3860
L22.9958 14.1941
" />
<path d="M1.4236 17.0341
L1.4781 17.2182
" />
<path d="M7.1754 23.8888
L7.3487 23.9715
" />
<path d="M16.6463 4.0327
L16.4716 3.9531
" />
<path d="M11.8055 3.0038
L11.6136 3.0088
" />
<path d="M18.9200 22.5507
L19.0682 22.4286
" />
<path d="M6.4975 23.5284
L6.6646 23.6229
" />
<path d="M15.3967 24.4637
L15.5787 24.4028
" />
<path d="M13.9076 3.1692
L13.7183 3.1375
" />
<path d="M18.3068 4.9914
L18.1486 4.8827
" />
<path d="M16.2955 24.1277
L16.4716 24.0511
" />
<path d="M11.4218 3.0172
L11.2302 3.0289
" />
<path d="M20.8967 7.5365
L20.7825 7.3821
" />
<path d="M20.0424 6.5001
L19.9102 6.3609
" />
<path d="M19.4995 22.0470
L19.6387 21.9148
" />
<path d="M22.3341 10.2399
L22.2669 10.0601
" />
<path d="M9.5230 24.7202
L9.7105 24.7617
" />
<path d="M22.9155 15.3427
L22.9372 15.1519
" />
<path d="M19.3579 22.1767
L19.4995 22.0470
" />
<path d="M13.9076 24.8350
L14.0964 24.8000
" />
<path d="M5.8464 4.8827
L5.6882 4.9914
" />
<path d="M19.0682 22.4286
L19.2141 22.3039
" />
<path d="M22.9155 12.6615
L22.8904 12.4712
" />
<path d="M10.0874 24.8350
L10.2767 24.8667
" />
<path d="M22.4591 17.4013
L22.5169 17.2182
" />
<path d="M1.1996 11.9032
L1.1646 12.0920
" />
<path d="M22.6227 16.8491
L22.6708 16.6632
" />
<path d="M22.6708 16.6632
L22.7156 16.4766
" />
<path d="M5.5319 22.9013
L5.6882 23.0128
" />
<path d="M1.4236 10.9701
L1.3723 11.1551
" />
<path d="M21.4263 8.3367
L21.3260 8.1730
" />
<path d="M12.3814 24.9954
L12.5732 24.9870
" />
<path d="M0.9992 13.8101
L0.9975 14.0021
" />
<path d="M8.5983 24.4637
L8.7814 24.5215
" />
<path d="M17.6629 4.5733
L17.4975 4.4758
" />
<path d="M9.8986 3.2042
L9.7105 3.2425
" />
<path d="M8.9655 24.5760
L9.1505 24.6273
" />
<path d="M3.5710 6.9314
L3.4489 7.0796
" />
<path d="M19.2141 5.7003
L19.0682 5.5756
" />
<path d="M1.5359 17.4013
L1.5968 17.5833
" />
<path d="M22.9975 14.0021
L22.9958 13.8101
" />
<path d="M2.9868 20.3114
L3.0983 20.4677
" />
<path d="M15.5787 24.4028
L15.7597 24.3387
" />
<path d="M7.3487 23.9715
L7.5234 24.0511
" />
<path d="M16.1182 24.2011
L16.2955 24.1277
" />
<path d="M4.2193 21.7803
L4.3563 21.9148
" />
<path d="M5.3775 5.2171
L5.2252 5.3340
" />
<path d="M9.1505 24.6273
L9.3364 24.6754
" />
<path d="M0.9975 14.0021
L0.9992 14.1941
" />
<path d="M15.9395 24.2715
L16.1182 24.2011
" />
<path d="M20.5461 20.9246
L20.6656 20.7744
" />
<path d="M1.2794 11.5276
L1.2379 11.7151
" />
<path d="M15.7597 24.3387
L15.9395 24.2715
" />
<path d="M21.9669 18.6509
L22.0465 18.4762
" />
<path d="M22.8904 12.4712
L22.8621 12.2813
" />
<path d="M5.0750 5.4535
L4.9268 5.5756
" />
<path d="M8.9655 3.4282
L8.7814 3.4827
" />
<path d="M12.9562 3.0440
L12.7648 3.0289
" />
<path d="M1.0394 13.0434
L1.0243 13.2348
" />
<path d="M1.3723 11.1551
L1.3242 11.3410
" />
<path d="M4.4955 22.0470
L4.6371 22.1767
" />
<path d="M2.1108 9.1800
L2.0281 9.3533
" />
<path d="M1.2794 16.4766
L1.3242 16.6632
" />
<path d="M4.7809 5.7003
L4.6371 5.8275
" />
<path d="M15.0295 3.4282
L14.8445 3.3769
" />
<path d="M1.9485 18.4762
L2.0281 18.6509
" />
<path d="M21.1169 20.1532
L21.2229 19.9931
" />
<path d="M4.9268 5.5756
L4.7809 5.7003
" />
<path d="M10.8477 3.0624
L10.6569 3.0841
" />
<path d="M18.7698 22.6702
L18.9200 22.5507
" />
<path d="M7.5234 24.0511
L7.6995 24.1277
" />
<path d="M16.8196 23.8888
L16.9914 23.8032
" />
<path d="M8.4163 24.4028
L8.5983 24.4637
" />
<path d="M2.3767 19.3350
L2.4712 19.5021
" />
<path d="M21.5238 19.5021
L20.6578 19.0021
" />
<path d="M22.8621 12.2813
L22.8304 12.0920
" />
<path d="M17.9885 4.7767
L17.8266 4.6736
" />
<path d="M13.1473 24.9418
L13.3381 24.9201
" />
<path d="M14.2845 24.7617
L14.4720 24.7202
" />
<path d="M1.5968 10.4209
L1.5359 10.6029
" />
<path d="M1.0126 13.4264
L1.0042 13.6182
" />
<path d="M2.7721 8.0111
L2.6690 8.1730
" />
<path d="M2.8781 7.8510
L3.7071 8.4102
" />
<path d="M1.5359 10.6029
L1.4781 10.7860
" />
<path d="M1.0243 14.7694
L1.0394 14.9608
" />
<path d="M16.4716 24.0511
L16.0649 23.1376
" />
<path d="M21.7099 19.1663
L21.7986 18.9960
" />
<path d="M21.9669 9.3533
L21.8842 9.1800
" />
<path d="M3.4489 7.0796
L3.3294 7.2298
" />
<path d="M21.7986 9.0082
L21.7099 8.8379
" />
<path d="M20.1721 6.6417
L20.0424 6.5001
" />
<path d="M20.6656 20.7744
L20.7825 20.6221
" />
<path d="M5.2252 5.3340
L5.0750 5.4535
" />
<path d="M22.9958 13.8101
L22.9908 13.6182
" />
<path d="M4.6371 22.1767
L4.7809 22.3039
" />
<path d="M5.2252 22.6702
L5.3775 22.7871
" />
<path d="M14.4720 3.2840
L14.2845 3.2425
" />
<path d="M1.2379 11.7151
L1.1996 11.9032
" />
<path d="M2.4712 8.5021
L2.3767 8.6692
" />
<path d="M1.6609 17.7643
L1.7281 17.9441
" />
<path d="M7.3487 4.0327
L7.1754 4.1154
" />
<path d="M12.1895 25.0004
L12.3814 24.9954
" />
<path d="M8.2353 3.6655
L8.0555 3.7327
" />
<path d="M3.8229 21.3625
L3.9526 21.5041
" />
<path d="M8.2353 24.3387
L8.4163 24.4028
" />
<path d="M22.5714 17.0341
L22.6227 16.8491
" />
<path d="M2.2851 19.1663
L2.3767 19.3350
" />
<path d="M11.2302 3.0289
L11.0388 3.0440
" />
<path d="M14.0964 3.2042
L13.9076 3.1692
" />
<path d="M6.0065 23.2275
L6.1684 23.3306
" />
<path d="M22.5714 10.9701
L22.5169 10.7860
" />
<path d="M21.8842 18.8242
L21.9669 18.6509
" />
<path d="M1.1329 12.2813
L1.1046 12.4712
" />
<path d="M4.2193 6.2239
L4.0848 6.3609
" />
<path d="M11.4218 24.9870
L11.6136 24.9954
" />
<path d="M22.3341 17.7643
L22.3982 17.5833
" />
<path d="M13.1473 3.0624
L12.9562 3.0440
" />
<path d="M20.2993 6.7855
L20.1721 6.6417
" />
<path d="M7.6995 3.8765
L7.5234 3.9531
" />
<path d="M22.6227 11.1551
L22.5714 10.9701
" />
<path d="M11.8055 25.0004
L11.9975 25.0021
" />
<path d="M12.7648 24.9753
L12.9562 24.9602
" />
<path d="M15.9395 3.7327
L15.7597 3.6655
" />
<path d="M21.0082 7.6928
L20.8967 7.5365
" />
<path d="M6.3321 23.4309
L6.4975 23.5284
" />
<path d="M3.3294 20.7744
L4.1174 20.1587
" />
<path d="M13.3381 3.0841
L13.1473 3.0624
" />
<path d="M19.6387 6.0894
L19.4995 5.9572
" />
<path d="M22.9958 14.1941
L22.9975 14.0021
" />
<path d="M3.6957 6.7855
L3.5710 6.9314
" />
<path d="M2.5687 8.3367
L2.4712 8.5021
" />
<path d="M22.8304 15.9122
L22.8621 15.7229
" />
<path d="M10.4666 3.1092
L10.2767 3.1375
" />
<path d="M1.1046 15.5330
L1.1329 15.7229
" />
<path d="M12.7648 3.0289
L12.5732 3.0172
" />
<path d="M22.0465 18.4762
L22.1231 18.3001
" />
<path d="M14.6586 24.6754
L14.8445 24.6273
" />
<path d="M17.4975 4.4758
L17.3304 4.3813
" />
<path d="M1.0126 14.5778
L1.0243 14.7694
" />
<path d="M18.6175 5.2171
L18.4631 5.1029
" />
<path d="M11.6136 24.9954
L11.8055 25.0004
" />
<path d="M12.1895 3.0038
L11.9975 3.0021
" />
<path d="M22.7156 11.5276
L22.6708 11.3410
" />
<path d="M22.1231 18.3001
L22.1965 18.1228
" />
<path d="M18.1486 4.8827
L17.9885 4.7767
" />
<path d="M15.2136 3.4827
L15.0295 3.4282
" />
<path d="M17.8266 23.3306
L17.9885 23.2275
" />
<path d="M21.6183 8.6692
L21.5238 8.5021
" />
<path d="M1.7281 17.9441
L1.7985 18.1228
" />
<path d="M12.5732 3.0172
L12.3814 3.0088
" />
<path d="M22.9556 14.9608
L22.9707 14.7694
" />
<path d="M2.1108 18.8242
L2.1964 18.9960
" />
<path d="M4.9268 22.4286
L5.0750 22.5507
" />
<path d="M1.1329 15.7229
L1.1646 15.9122
" />
<path d="M21.2229 19.9931
L21.3260 19.8312
" />
<path d="M1.0243 13.2348
L1.0126 13.4264
" />
<path d="M22.7954 11.9032
L22.7571 11.7151
" />
<path d="M0.9992 14.1941
L1.0042 14.3860
" />
<path d="M6.0065 4.7767
L5.8464 4.8827
" />
<path d="M19.2141 22.3039
L19.3579 22.1767
" />
<path d="M1.4781 17.2182
L1.5359 17.4013
" />
<path d="M16.9914 23.8032
L17.1617 23.7145
" />
<path d="M1.0578 15.1519
L1.0795 15.3427
" />
<path d="M3.9526 6.5001
L3.8229 6.6417
" />
<path d="M8.0555 3.7327
L7.8768 3.8031
" />
<path d="M2.3767 8.6692
L2.2851 8.8379
" />
<path d="M17.1617 4.2897
L16.9914 4.2010
" />
<path d="M22.1965 9.8814
L22.1231 9.7041
" />
<path d="M1.2379 16.2891
L1.2794 16.4766
" />
<path d="M2.8781 20.1532
L2.9868 20.3114
" />
<path d="M1.3242 11.3410
L1.2794 11.5276
" />
<path d="M11.9975 3.0021
L11.8055 3.0038
" />
<path d="M11.9975 25.0021
L12.1895 25.0004
" />
<path d="M17.1617 23.7145
L17.3304 23.6229
" />
<path d="M15.2136 24.5215
L15.3967 24.4637
" />
<path d="M2.7721 19.9931
L2.8781 20.1532
" />
<path d="M9.8986 24.8000
L10.0874 24.8350
" />
<path d="M17.4975 23.5284
L17.6629 23.4309
" />
<path d="M7.8768 3.8031
L7.6995 3.8765
" />
<path d="M22.9824 14.5778
L22.9908 14.3860
" />
<path d="M2.4712 19.5021
L2.5687 19.6675
" />
<path d="M5.0750 22.5507
L5.2252 22.6702
" />
<path d="M18.4631 22.9013
L18.6175 22.7871
" />
<path d="M21.1169 7.8510
L21.0082 7.6928
" />
<path d="M9.3364 3.3288
L9.1505 3.3769
" />
<path d="M16.4716 24.0511
L16.6463 23.9715
" />
<path d="M22.3982 17.5833
L22.4591 17.4013
" />
<path d="M12.5732 24.9870
L12.7648 24.9753
" />
<path d="M17.9885 23.2275
L18.1486 23.1215
" />
<path d="M7.6995 24.1277
L7.8768 24.2011
" />
<path d="M22.5169 17.2182
L22.5714 17.0341
" />
<path d="M6.4975 4.4758
L6.3321 4.5733
" />
<path d="M17.8266 4.6736
L17.6629 4.5733
" />
<path d="M1.0578 12.8523
L1.0394 13.0434
" />
<path d="M10.6569 24.9201
L10.8477 24.9418
" />
<path d="M1.8719 9.7041
L1.7985 9.8814
" />
<path d="M20.5461 7.0796
L20.4240 6.9314
" />
<path d="M21.8842 9.1800
L21.7986 9.0082
" />
<path d="M22.9372 12.8523
L21.9427 12.9568
" />
<path d="M3.2125 7.3821
L3.0983 7.5365
" />
<path d="M22.9372 12.8523
L22.9155 12.6615
" />
<path d="M17.3304 4.3813
L17.1617 4.2897
" />
<path d="M4.4955 5.9572
L4.3563 6.0894
" />
<path d="M2.0281 9.3533
L1.9485 9.5280
" />
<path d="M1.8719 18.3001
L1.9485 18.4762
" />
<path d="M17.3304 23.6229
L17.4975 23.5284
" />
<path d="M7.1754 4.1154
L7.0036 4.2010
" />
<path d="M22.1231 9.7041
L22.0465 9.5280
" />
<path d="M8.7814 24.5215
L8.9655 24.5760
" />
<path d="M16.4716 3.9531
L16.2955 3.8765
" />
<path d="M14.2845 3.2425
L14.0964 3.2042
" />
<path d="M22.9556 13.0434
L22.9372 12.8523
" />
<path d="M1.0795 12.6615
L1.0578 12.8523
" />
<path d="M21.3260 8.1730
L21.2229 8.0111
" />
<path d="M4.6371 5.8275
L4.4955 5.9572
" />
<path d="M3.2125 20.6221
L3.3294 20.7744
" />
<path d="M22.8904 15.5330
L22.9155 15.3427
" />
<path d="M19.0682 5.5756
L18.9200 5.4535
" />
<path d="M5.8464 23.1215
L6.0065 23.2275
" />
<path d="M2.5687 19.6675
L2.6690 19.8312
" />
<path d="M21.7099 8.8379
L21.6183 8.6692
" />
<path d="M22.9707 13.2348
L22.9556 13.0434
" />
<path d="M18.1486 23.1215
L18.3068 23.0128
" />
<path d="M22.7571 11.7151
L22.7156 11.5276
" />
<path d="M22.8304 12.0920
L22.7954 11.9032
" />
<path d="M1.0394 14.9608
L1.0578 15.1519
" />
<path d="M20.1721 21.3625
L20.2993 21.2187
" />
<path d="M22.2669 10.0601
L22.1965 9.8814
" />
<path d="M18.6175 22.7871
L18.7698 22.6702
" />
<path d="M3.0983 20.4677
L3.2125 20.6221
" />
<path d="M22.7571 16.2891
L22.7954 16.1010
" />
<path d="M19.7757 6.2239
L19.6387 6.0894
" />
<path d="M20.8967 20.4677
L21.0082 20.3114
" />
<path d="M2.6690 19.8312
L2.7721 19.9931
" />
<path d="M20.6656 7.2298
L20.5461 7.0796
" />
<path d="M19.9102 21.6433
L20.0424 21.5041
" />
<path d="M1.4781 10.7860
L1.4236 10.9701
" />
<path d="M15.0295 24.5760
L15.2136 24.5215
" />
<path d="M9.7105 3.2425
L9.5230 3.2840
" />
<path d="M22.3982 10.4209
L22.3341 10.2399
" />
<path d="M1.0042 14.3860
L1.0126 14.5778
" />
<path d="M4.0848 6.3609
L3.9526 6.5001
" />
<path d="M5.6882 4.9914
L5.5319 5.1029
" />
<path d="M16.1182 3.8031
L15.9395 3.7327
" />
<path d="M7.5234 3.9531
L7.3487 4.0327
" />
<path d="M18.9200 5.4535
L18.7698 5.3340
" />
<path d="M12.9562 24.9602
L13.1473 24.9418
" />
<path d="M8.7814 3.4827
L8.5983 3.5405
" />
<path d="M18.7698 5.3340
L18.6175 5.2171
" />
<path d="M6.1684 23.3306
L6.3321 23.4309
" />
<path d="M13.5284 24.8950
L13.7183 24.8667
" />
<path d="M20.7825 20.6221
L20.8967 20.4677
" />
<path d="M19.6387 21.9148
L19.7757 21.7803
" />
<path d="M1.3242 16.6632
L1.3723 16.8491
" />
<path d="M7.0036 23.8032
L7.1754 23.8888
" />
<path d="M19.3579 5.8275
L19.2141 5.7003
" />
<path d="M18.3068 23.0128
L18.4631 22.9013
" />
<path d="M2.2851 8.8379
L2.1964 9.0082
" />
<path d="M21.2229 8.0111
L21.1169 7.8510
" />
<path d="M14.6586 3.3288
L14.4720 3.2840
" />
<path d="M21.5238 19.5021
L21.6183 19.3350
" />
<path d="M11.6136 3.0088
L11.4218 3.0172
" />
<path d="M1.1646 15.9122
L1.1996 16.1010
" />
<path d="M21.7986 18.9960
L21.8842 18.8242
" />
<path d="M3.4489 20.9246
L3.5710 21.0728
" />
<path d="M9.7105 24.7617
L9.8986 24.8000
" />
<path d="M20.2993 21.2187
L20.4240 21.0728
" />
<path d="M15.7597 3.6655
L15.5787 3.6014
" />
<path d="M6.6646 4.3813
L6.4975 4.4758
" />
<path d="M22.9372 15.1519
L22.9556 14.9608
" />
<path d="M3.0983 7.5365
L2.9868 7.6928
" />
<path d="M8.0555 24.2715
L8.2353 24.3387
" />
<path d="M1.7281 10.0601
L1.6609 10.2399
" />
<path d="M13.7183 3.1375
L13.5284 3.1092
" />
<path d="M10.2767 24.8667
L10.4666 24.8950
" />
<path d="M2.9868 7.6928
L2.8781 7.8510
" />
<path d="M5.6882 23.0128
L5.8464 23.1215
" />
<path d="M16.6463 23.9715
L16.8196 23.8888
" />
<path d="M16.2955 3.8765
L16.1182 3.8031
" />
<path d="M14.0964 24.8000
L14.2845 24.7617
" />
<path d="M14.4720 24.7202
L14.6586 24.6754
" />
<path d="M21.5238 8.5021
L21.4263 8.3367
" />
<path d="M1.3723 16.8491
L1.4236 17.0341
" />
<path d="M19.7757 21.7803
L19.9102 21.6433
" />
<path d="M11.2302 24.9753
L11.4218 24.9870
" />
<path d="M5.5319 5.1029
L5.3775 5.2171
" />
<path d="M1.0795 15.3427
L1.1046 15.5330
" />
<path d="M1.0042 13.6182
L0.9992 13.8101
" />
<path d="M6.8333 4.2897
L6.6646 4.3813
" />
<path d="M9.5230 3.2840
L9.3364 3.3288
" />
<path d="M20.7825 7.3821
L20.6656 7.2298
" />
<path d="M15.3967 3.5405
L15.2136 3.4827
" />
<path d="M1.9485 9.5280
L1.8719 9.7041
" />
<path d="M10.4666 24.8950
L10.6569 24.9201
" />
<path d="M22.0465 9.5280
L21.9669 9.3533
" />
<path d="M7.0036 4.2010
L6.8333 4.2897
" />
<path d="M15.0295 3.4282
L14.7539 4.3895
" />
<path d="M4.3563 6.0894
L4.2193 6.2239
" />
<path d="M13.3381 24.9201
L13.5284 24.8950
" />
<path d="M1.1646 12.0920
L1.1329 12.2813
" />
</g>
<g style="fill:#FFFFFF; fill-opacity:1.0000; stroke:none;">
<circle cx="18.1794" cy="16.0107" r="0.1000" /> 
<circle cx="17.2561" cy="17.8227" r="0.1000" /> 
<circle cx="9.9889" cy="20.1840" r="0.1000" /> 
<circle cx="9.9889" cy="7.8202" r="0.1000" /> 
<circle cx="14.0061" cy="20.1840" r="0.1000" /> 
<circle cx="18.4975" cy="14.0021" r="0.1000" /> 
<circle cx="8.1769" cy="19.2607" r="0.1000" /> 
<circle cx="15.8181" cy="19.2607" r="0.1000" /> 
<circle cx="11.9975" cy="20.5021" r="0.1000" /> 
<circle cx="11.9975" cy="7.5021" r="0.1000" /> 
<circle cx="2.7257" cy="10.2560" r="0.1000" /> 
<circle cx="6.6983" cy="5.5216" r="0.1000" /> 
<circle cx="12.6951" cy="4.0265" r="0.1000" /> 
<circle cx="2.8282" cy="16.2883" r="0.1000" /> 
<circle cx="20.7594" cy="17.5421" r="0.1000" /> 
<circle cx="11.3383" cy="23.4291" r="0.1000" /> 
<circle cx="5.9232" cy="21.2412" r="0.1000" /> 
<circle cx="18.0718" cy="6.7630" r="0.1000" /> 
<circle cx="18.4254" cy="6.3417" r="0.1000" /> 
<circle cx="21.1668" cy="11.7159" r="0.1000" /> 
<circle cx="5.5696" cy="21.6625" r="0.1000" /> 
<circle cx="3.2356" cy="10.4621" r="0.1000" /> 
<circle cx="12.6567" cy="4.5751" r="0.1000" /> 
<circle cx="18.1794" cy="11.9935" r="0.1000" /> 
<circle cx="21.2693" cy="17.7482" r="0.1000" /> 
<circle cx="11.2999" cy="23.9777" r="0.1000" /> 
<circle cx="2.2945" cy="16.4213" r="0.1000" /> 
<circle cx="21.7005" cy="11.5829" r="0.1000" /> 
<circle cx="6.9898" cy="5.9880" r="0.1000" /> 
<circle cx="4.0562" cy="11.4218" r="0.1000" /> 
<circle cx="17.8754" cy="22.0923" r="0.1000" /> 
<circle cx="5.8156" cy="16.0107" r="0.1000" /> 
<circle cx="17.8754" cy="5.9119" r="0.1000" /> 
<circle cx="21.5081" cy="17.0923" r="0.1000" /> 
<circle cx="16.9055" cy="20.7574" r="0.1000" /> 
<circle cx="11.9975" cy="5.6521" r="0.1000" /> 
<circle cx="7.0895" cy="7.2468" r="0.1000" /> 
<circle cx="2.4869" cy="17.0923" r="0.1000" /> 
<circle cx="16.9055" cy="7.2468" r="0.1000" /> 
<circle cx="19.9388" cy="11.4218" r="0.1000" /> 
<circle cx="19.9388" cy="16.5824" r="0.1000" /> 
<circle cx="4.0562" cy="16.5824" r="0.1000" /> 
<circle cx="11.9975" cy="22.3521" r="0.1000" /> 
<circle cx="21.5081" cy="10.9119" r="0.1000" /> 
<circle cx="6.1196" cy="5.9119" r="0.1000" /> 
<circle cx="11.9975" cy="4.0021" r="0.1000" /> 
<circle cx="2.4869" cy="10.9119" r="0.1000" /> 
<circle cx="11.9975" cy="24.0021" r="0.1000" /> 
<circle cx="5.5696" cy="6.3417" r="0.1000" /> 
<circle cx="16.7138" cy="6.4545" r="0.1000" /> 
<circle cx="17.7183" cy="20.8199" r="0.1000" /> 
<circle cx="17.2967" cy="5.5216" r="0.1000" /> 
<circle cx="6.2767" cy="7.1843" r="0.1000" /> 
<circle cx="2.2945" cy="11.5829" r="0.1000" /> 
<circle cx="21.7005" cy="16.4213" r="0.1000" /> 
<circle cx="21.2693" cy="10.2560" r="0.1000" /> 
<circle cx="11.3767" cy="5.1238" r="0.1000" /> 
<circle cx="6.1196" cy="22.0923" r="0.1000" /> 
<circle cx="18.4254" cy="21.6625" r="0.1000" /> 
<circle cx="6.7389" cy="17.8227" r="0.1000" /> 
<circle cx="3.3619" cy="11.8490" r="0.1000" /> 
<circle cx="12.6951" cy="23.9777" r="0.1000" /> 
<circle cx="11.2999" cy="4.0265" r="0.1000" /> 
<circle cx="20.2494" cy="10.6681" r="0.1000" /> 
<circle cx="6.7662" cy="21.2024" r="0.1000" /> 
<circle cx="20.6331" cy="16.1552" r="0.1000" /> 
<circle cx="12.6183" cy="22.8804" r="0.1000" /> 
<circle cx="16.6922" cy="5.1726" r="0.1000" /> 
<circle cx="21.3039" cy="15.6431" r="0.1000" /> 
<circle cx="17.2561" cy="10.1815" r="0.1000" /> 
<circle cx="20.9854" cy="9.6184" r="0.1000" /> 
<circle cx="2.7257" cy="17.7482" r="0.1000" /> 
<circle cx="10.6058" cy="4.0994" r="0.1000" /> 
<circle cx="5.0509" cy="6.8087" r="0.1000" /> 
<circle cx="18.9441" cy="21.1955" r="0.1000" /> 
<circle cx="13.3892" cy="23.9048" r="0.1000" /> 
<circle cx="6.6983" cy="22.4826" r="0.1000" /> 
<circle cx="2.1494" cy="12.2656" r="0.1000" /> 
<circle cx="20.6578" cy="9.0021" r="0.1000" /> 
<circle cx="7.3028" cy="22.8316" r="0.1000" /> 
<circle cx="3.0096" cy="18.3858" r="0.1000" /> 
<circle cx="19.4289" cy="20.6934" r="0.1000" /> 
<circle cx="21.9427" cy="15.0474" r="0.1000" /> 
<circle cx="13.7336" cy="22.1696" r="0.1000" /> 
<circle cx="16.0649" cy="4.8666" r="0.1000" /> 
<circle cx="9.9184" cy="4.2206" r="0.1000" /> 
<circle cx="10.2614" cy="5.8346" r="0.1000" /> 
<circle cx="4.4926" cy="17.6625" r="0.1000" /> 
<circle cx="18.2028" cy="19.5893" r="0.1000" /> 
<circle cx="19.2288" cy="9.8271" r="0.1000" /> 
<circle cx="15.3938" cy="6.3740" r="0.1000" /> 
<circle cx="5.8156" cy="11.9935" r="0.1000" /> 
<circle cx="3.9975" cy="12.5021" r="0.1000" /> 
<circle cx="14.0766" cy="23.7836" r="0.1000" /> 
<circle cx="8.0774" cy="21.3747" r="0.1000" /> 
<circle cx="20.3018" cy="14.8749" r="0.1000" /> 
<circle cx="14.7539" cy="23.6147" r="0.1000" /> 
<circle cx="4.2899" cy="18.4521" r="0.1000" /> 
<circle cx="7.9301" cy="23.1376" r="0.1000" /> 
<circle cx="21.9914" cy="14.3511" r="0.1000" /> 
<circle cx="15.4177" cy="4.6052" r="0.1000" /> 
<circle cx="19.8776" cy="20.1587" r="0.1000" /> 
<circle cx="8.3775" cy="22.1327" r="0.1000" /> 
<circle cx="3.3372" cy="19.0021" r="0.1000" /> 
<circle cx="20.2879" cy="8.4102" r="0.1000" /> 
<circle cx="19.3759" cy="9.0253" r="0.1000" /> 
<circle cx="14.4507" cy="22.5573" r="0.1000" /> 
<circle cx="5.3835" cy="8.0468" r="0.1000" /> 
<circle cx="2.0523" cy="12.9568" r="0.1000" /> 
<circle cx="19.0108" cy="19.4815" r="0.1000" /> 
<circle cx="20.8921" cy="14.3127" r="0.1000" /> 
<circle cx="4.5661" cy="7.3108" r="0.1000" /> 
<circle cx="15.0415" cy="5.6388" r="0.1000" /> 
<circle cx="6.7389" cy="10.1815" r="0.1000" /> 
<circle cx="3.1463" cy="13.0718" r="0.1000" /> 
<circle cx="4.1631" cy="19.2865" r="0.1000" /> 
<circle cx="21.4417" cy="13.6723" r="0.1000" /> 
<circle cx="20.2879" cy="19.5940" r="0.1000" /> 
<circle cx="19.8319" cy="19.2865" r="0.1000" /> 
<circle cx="15.2296" cy="22.8822" r="0.1000" /> 
<circle cx="4.1174" cy="7.8455" r="0.1000" /> 
<circle cx="15.4177" cy="23.3990" r="0.1000" /> 
<circle cx="8.5773" cy="23.3990" r="0.1000" /> 
<circle cx="9.2411" cy="4.3895" r="0.1000" /> 
<circle cx="3.7071" cy="19.5940" r="0.1000" /> 
<circle cx="19.8776" cy="7.8455" r="0.1000" /> 
<circle cx="8.1769" cy="8.7435" r="0.1000" /> 
<circle cx="19.4442" cy="8.1841" r="0.1000" /> 
<circle cx="2.0036" cy="13.6531" r="0.1000" /> 
<circle cx="21.9914" cy="13.6531" r="0.1000" /> 
<circle cx="2.5533" cy="13.6723" r="0.1000" /> 
<circle cx="8.7654" cy="22.8822" r="0.1000" /> 
<circle cx="4.5508" cy="8.1841" r="0.1000" /> 
<circle cx="9.3927" cy="4.9182" r="0.1000" /> 
<circle cx="14.0061" cy="7.8202" r="0.1000" /> 
<circle cx="9.2411" cy="23.6147" r="0.1000" /> 
<circle cx="20.6578" cy="19.0021" r="0.1000" /> 
<circle cx="21.9427" cy="12.9568" r="0.1000" /> 
<circle cx="4.1174" cy="20.1587" r="0.1000" /> 
<circle cx="8.5773" cy="4.6052" r="0.1000" /> 
<circle cx="16.0649" cy="23.1376" r="0.1000" /> 
<circle cx="2.0036" cy="14.3511" r="0.1000" /> 
<circle cx="3.7071" cy="8.4102" r="0.1000" /> 
<circle cx="14.7539" cy="4.3895" r="0.1000" /> 
<circle cx="10.2614" cy="22.1696" r="0.1000" /> 
<circle cx="3.6932" cy="14.8749" r="0.1000" /> 
<circle cx="3.3372" cy="9.0021" r="0.1000" /> 
<circle cx="16.6922" cy="22.8316" r="0.1000" /> 
<circle cx="14.0766" cy="4.2206" r="0.1000" /> 
<circle cx="9.9184" cy="23.7836" r="0.1000" /> 
<circle cx="18.2028" cy="8.4149" r="0.1000" /> 
<circle cx="5.7922" cy="19.5893" r="0.1000" /> 
<circle cx="4.7662" cy="9.8271" r="0.1000" /> 
<circle cx="19.4289" cy="7.3108" r="0.1000" /> 
<circle cx="5.4975" cy="14.0021" r="0.1000" /> 
<circle cx="4.5661" cy="20.6934" r="0.1000" /> 
<circle cx="19.5024" cy="17.6625" r="0.1000" /> 
<circle cx="13.7336" cy="5.8346" r="0.1000" /> 
<circle cx="8.6012" cy="6.3740" r="0.1000" /> 
<circle cx="20.9854" cy="18.3858" r="0.1000" /> 
<circle cx="7.9301" cy="4.8666" r="0.1000" /> 
<circle cx="15.9176" cy="21.3747" r="0.1000" /> 
<circle cx="2.0523" cy="15.0474" r="0.1000" /> 
<circle cx="2.1494" cy="15.7386" r="0.1000" /> 
<circle cx="5.8150" cy="20.4042" r="0.1000" /> 
<circle cx="5.0509" cy="21.1955" r="0.1000" /> 
<circle cx="3.0096" cy="9.6184" r="0.1000" /> 
<circle cx="16.7138" cy="21.5497" r="0.1000" /> 
<circle cx="15.8181" cy="8.7435" r="0.1000" /> 
<circle cx="7.3028" cy="5.1726" r="0.1000" /> 
<circle cx="18.9441" cy="6.8087" r="0.1000" /> 
<circle cx="13.3892" cy="4.0994" r="0.1000" /> 
<circle cx="17.2967" cy="22.4826" r="0.1000" /> 
<circle cx="18.1800" cy="7.6000" r="0.1000" /> 
<circle cx="10.6058" cy="23.9048" r="0.1000" /> 
<circle cx="20.7623" cy="12.4566" r="0.1000" /> 
<circle cx="3.9982" cy="10.1006" r="0.1000" /> 
<circle cx="13.2361" cy="5.1887" r="0.1000" /> 
<circle cx="7.8192" cy="6.1439" r="0.1000" /> 
<circle cx="10.7589" cy="22.8155" r="0.1000" /> 
<circle cx="3.2327" cy="15.5476" r="0.1000" /> 
<circle cx="21.8456" cy="12.2656" r="0.1000" /> 
</g>
<g style="fill:#000000; fill-opacity:1.0000; stroke:none;">
<circle cx="9.1975" cy="8.5021" r="0.5760" /> 
<circle cx="17.4975" cy="16.8021" r="0.5760" /> 
<circle cx="14.7975" cy="8.5021" r="0.5760" /> 
<circle cx="6.4975" cy="16.8021" r="0.5760" /> 
</g>
<g style="fill:#FFFFFF; fill-opacity:1.0000; stroke:none;">
<circle cx="11.9975" cy="1.0021" r="0.5000" /> 
</g> 
</svg>
