<?xml version="1.0" standalone="no"?>
 <!DOCTYPE svg PUBLIC "-//W3C//DTD SVG 1.1//EN" 
 "http://www.w3.org/Graphics/SVG/1.1/DTD/svg11.dtd"> 
<svg
  xmlns:svg="http://www.w3.org/2000/svg"
  xmlns="http://www.w3.org/2000/svg"
  xmlns:xlink="http://www.w3.org/1999/xlink"
  xmlns:inkscape="http://www.inkscape.org/namespaces/inkscape"
  version="1.1"
  width="279.4000mm" height="215.9000mm" viewBox="0.0000 0.0000 279.4000 215.9000">
<title>SVG Image created as halo-90-In2_Cu.svg date 2026-07-17T22:03:58 </title>
  <desc>Image generated by PCBNEW </desc>
<g style="fill:#000000; fill-opacity:1.0000;stroke:#000000; stroke-opacity:1.0000;
stroke-linecap:round; stroke-linejoin:round;"
 transform="translate(0 0) scale(1 1)">
</g>
<g style="fill:#000000; fill-opacity:1.0000; stroke:none;">
<circle cx="139.7000" cy="26.6750" r="5.0850" /> 
<circle cx="181.6132" cy="128.4330" r="1.5255" /> 
<circle cx="175.3532" cy="140.7183" r="1.5255" /> 
<circle cx="126.0817" cy="156.7279" r="1.5255" /> 
<circle cx="126.0817" cy="72.9016" r="1.5255" /> 
<circle cx="153.3183" cy="156.7279" r="1.5255" /> 
<circle cx="183.7699" cy="114.8147" r="1.5255" /> 
<circle cx="113.7964" cy="150.4679" r="1.5255" /> 
<circle cx="165.6036" cy="150.4679" r="1.5255" /> 
<circle cx="139.7000" cy="158.8846" r="1.5255" /> 
<circle cx="139.7000" cy="70.7449" r="1.5255" /> 
<circle cx="76.8374" cy="89.4162" r="1.5255" /> 
<circle cx="103.7715" cy="57.3171" r="1.5255" /> 
<circle cx="144.4297" cy="47.1804" r="1.5255" /> 
<circle cx="77.5323" cy="130.3151" r="1.5255" /> 
<circle cx="199.1055" cy="138.8159" r="1.5255" /> 
<circle cx="135.2306" cy="178.7296" r="1.5255" /> 
<circle cx="98.5164" cy="163.8957" r="1.5255" /> 
<circle cx="180.8836" cy="65.7338" r="1.5255" /> 
<circle cx="183.2810" cy="62.8774" r="1.5255" /> 
<circle cx="201.8677" cy="99.3143" r="1.5255" /> 
<circle cx="96.1190" cy="166.7521" r="1.5255" /> 
<circle cx="80.2945" cy="90.8136" r="1.5255" /> 
<circle cx="144.1694" cy="50.8999" r="1.5255" /> 
<circle cx="181.6132" cy="101.1965" r="1.5255" /> 
<circle cx="202.5626" cy="140.2132" r="1.5255" /> 
<circle cx="134.9703" cy="182.4491" r="1.5255" /> 
<circle cx="73.9138" cy="131.2169" r="1.5255" /> 
<circle cx="205.4861" cy="98.4126" r="1.5255" /> 
<circle cx="105.7479" cy="60.4793" r="1.5255" /> 
<circle cx="85.8581" cy="97.3203" r="1.5255" /> 
<circle cx="179.5520" cy="169.6661" r="1.5255" /> 
<circle cx="97.7868" cy="128.4330" r="1.5255" /> 
<circle cx="179.5520" cy="59.9633" r="1.5255" /> 
<circle cx="204.1817" cy="135.7662" r="1.5255" /> 
<circle cx="172.9761" cy="160.6155" r="1.5255" /> 
<circle cx="139.7000" cy="58.2019" r="1.5255" /> 
<circle cx="106.4239" cy="69.0139" r="1.5255" /> 
<circle cx="75.2183" cy="135.7662" r="1.5255" /> 
<circle cx="172.9761" cy="69.0139" r="1.5255" /> 
<circle cx="193.5419" cy="97.3203" r="1.5255" /> 
<circle cx="193.5419" cy="132.3091" r="1.5255" /> 
<circle cx="85.8581" cy="132.3091" r="1.5255" /> 
<circle cx="139.7000" cy="171.4276" r="1.5255" /> 
<circle cx="204.1817" cy="93.8632" r="1.5255" /> 
<circle cx="99.8480" cy="59.9633" r="1.5255" /> 
<circle cx="139.7000" cy="47.0149" r="1.5255" /> 
<circle cx="75.2183" cy="93.8632" r="1.5255" /> 
<circle cx="139.7000" cy="182.6145" r="1.5255" /> 
<circle cx="96.1190" cy="62.8774" r="1.5255" /> 
<circle cx="171.6764" cy="63.6422" r="1.5255" /> 
<circle cx="178.4869" cy="161.0393" r="1.5255" /> 
<circle cx="175.6285" cy="57.3171" r="1.5255" /> 
<circle cx="100.9131" cy="68.5902" r="1.5255" /> 
<circle cx="73.9138" cy="98.4126" r="1.5255" /> 
<circle cx="205.4861" cy="131.2169" r="1.5255" /> 
<circle cx="202.5626" cy="89.4162" r="1.5255" /> 
<circle cx="135.4910" cy="54.6200" r="1.5255" /> 
<circle cx="99.8480" cy="169.6661" r="1.5255" /> 
<circle cx="183.2810" cy="166.7521" r="1.5255" /> 
<circle cx="104.0468" cy="140.7183" r="1.5255" /> 
<circle cx="81.1508" cy="100.2168" r="1.5255" /> 
<circle cx="144.4297" cy="182.4491" r="1.5255" /> 
<circle cx="134.9703" cy="47.1804" r="1.5255" /> 
<circle cx="195.6477" cy="92.2103" r="1.5255" /> 
<circle cx="104.2319" cy="163.6326" r="1.5255" /> 
<circle cx="198.2492" cy="129.4127" r="1.5255" /> 
<circle cx="143.9090" cy="175.0094" r="1.5255" /> 
<circle cx="171.5300" cy="54.9509" r="1.5255" /> 
<circle cx="202.7972" cy="125.9407" r="1.5255" /> 
<circle cx="175.3532" cy="88.9111" r="1.5255" /> 
<circle cx="200.6378" cy="85.0933" r="1.5255" /> 
<circle cx="76.8374" cy="140.2132" r="1.5255" /> 
<circle cx="130.2643" cy="47.6746" r="1.5255" /> 
<circle cx="92.6022" cy="66.0436" r="1.5255" /> 
<circle cx="186.7978" cy="163.5858" r="1.5255" /> 
<circle cx="149.1357" cy="181.9548" r="1.5255" /> 
<circle cx="103.7715" cy="172.3124" r="1.5255" /> 
<circle cx="72.9301" cy="103.0413" r="1.5255" /> 
<circle cx="198.4167" cy="80.9148" r="1.5255" /> 
<circle cx="107.8700" cy="174.6786" r="1.5255" /> 
<circle cx="78.7622" cy="144.5361" r="1.5255" /> 
<circle cx="190.0847" cy="160.1816" r="1.5255" /> 
<circle cx="207.1283" cy="121.9018" r="1.5255" /> 
<circle cx="151.4707" cy="170.1902" r="1.5255" /> 
<circle cx="167.2769" cy="52.8762" r="1.5255" /> 
<circle cx="125.6037" cy="48.4964" r="1.5255" /> 
<circle cx="127.9293" cy="59.4392" r="1.5255" /> 
<circle cx="88.8169" cy="139.6322" r="1.5255" /> 
<circle cx="181.7718" cy="152.6958" r="1.5255" /> 
<circle cx="188.7281" cy="86.5083" r="1.5255" /> 
<circle cx="162.7268" cy="63.0964" r="1.5255" /> 
<circle cx="97.7868" cy="101.1965" r="1.5255" /> 
<circle cx="85.4602" cy="104.6448" r="1.5255" /> 
<circle cx="153.7963" cy="181.1331" r="1.5255" /> 
<circle cx="113.1218" cy="164.8008" r="1.5255" /> 
<circle cx="196.0030" cy="120.7323" r="1.5255" /> 
<circle cx="158.3883" cy="179.9880" r="1.5255" /> 
<circle cx="87.4426" cy="144.9856" r="1.5255" /> 
<circle cx="112.1231" cy="176.7532" r="1.5255" /> 
<circle cx="207.4584" cy="117.1809" r="1.5255" /> 
<circle cx="162.8889" cy="51.1039" r="1.5255" /> 
<circle cx="193.1269" cy="156.5564" r="1.5255" /> 
<circle cx="115.1565" cy="169.9400" r="1.5255" /> 
<circle cx="80.9833" cy="148.7146" r="1.5255" /> 
<circle cx="195.9087" cy="76.9018" r="1.5255" /> 
<circle cx="189.7254" cy="81.0721" r="1.5255" /> 
<circle cx="156.3326" cy="172.8188" r="1.5255" /> 
<circle cx="94.8572" cy="74.4379" r="1.5255" /> 
<circle cx="72.2717" cy="107.7276" r="1.5255" /> 
<circle cx="187.2500" cy="151.9650" r="1.5255" /> 
<circle cx="200.0052" cy="116.9206" r="1.5255" /> 
<circle cx="89.3153" cy="69.4478" r="1.5255" /> 
<circle cx="160.3383" cy="58.1117" r="1.5255" /> 
<circle cx="104.0468" cy="88.9111" r="1.5255" /> 
<circle cx="79.6890" cy="108.5073" r="1.5255" /> 
<circle cx="86.5829" cy="150.6429" r="1.5255" /> 
<circle cx="203.7315" cy="112.5787" r="1.5255" /> 
<circle cx="195.9087" cy="152.7277" r="1.5255" /> 
<circle cx="192.8171" cy="150.6429" r="1.5255" /> 
<circle cx="161.6136" cy="175.0216" r="1.5255" /> 
<circle cx="86.2731" cy="73.0731" r="1.5255" /> 
<circle cx="162.8889" cy="178.5255" r="1.5255" /> 
<circle cx="116.5111" cy="178.5255" r="1.5255" /> 
<circle cx="121.0117" cy="49.6415" r="1.5255" /> 
<circle cx="83.4912" cy="152.7277" r="1.5255" /> 
<circle cx="193.1269" cy="73.0731" r="1.5255" /> 
<circle cx="113.7964" cy="79.1615" r="1.5255" /> 
<circle cx="190.1885" cy="75.3688" r="1.5255" /> 
<circle cx="71.9416" cy="112.4485" r="1.5255" /> 
<circle cx="207.4584" cy="112.4485" r="1.5255" /> 
<circle cx="75.6685" cy="112.5787" r="1.5255" /> 
<circle cx="117.7864" cy="175.0216" r="1.5255" /> 
<circle cx="89.2115" cy="75.3688" r="1.5255" /> 
<circle cx="122.0395" cy="53.2261" r="1.5255" /> 
<circle cx="153.3183" cy="72.9016" r="1.5255" /> 
<circle cx="121.0117" cy="179.9880" r="1.5255" /> 
<circle cx="198.4167" cy="148.7146" r="1.5255" /> 
<circle cx="207.1283" cy="107.7276" r="1.5255" /> 
<circle cx="86.2731" cy="156.5564" r="1.5255" /> 
<circle cx="116.5111" cy="51.1039" r="1.5255" /> 
<circle cx="167.2769" cy="176.7532" r="1.5255" /> 
<circle cx="71.9416" cy="117.1809" r="1.5255" /> 
<circle cx="83.4912" cy="76.9018" r="1.5255" /> 
<circle cx="158.3883" cy="49.6415" r="1.5255" /> 
<circle cx="127.9293" cy="170.1902" r="1.5255" /> 
<circle cx="83.3970" cy="120.7323" r="1.5255" /> 
<circle cx="80.9833" cy="80.9148" r="1.5255" /> 
<circle cx="171.5300" cy="174.6786" r="1.5255" /> 
<circle cx="153.7963" cy="48.4964" r="1.5255" /> 
<circle cx="125.6037" cy="181.1331" r="1.5255" /> 
<circle cx="181.7718" cy="76.9336" r="1.5255" /> 
<circle cx="97.6282" cy="152.6958" r="1.5255" /> 
<circle cx="90.6719" cy="86.5083" r="1.5255" /> 
<circle cx="190.0847" cy="69.4478" r="1.5255" /> 
<circle cx="95.6301" cy="114.8147" r="1.5255" /> 
<circle cx="89.3153" cy="160.1816" r="1.5255" /> 
<circle cx="190.5831" cy="139.6322" r="1.5255" /> 
<circle cx="151.4707" cy="59.4392" r="1.5255" /> 
<circle cx="116.6731" cy="63.0964" r="1.5255" /> 
<circle cx="200.6378" cy="144.5361" r="1.5255" /> 
<circle cx="112.1231" cy="52.8762" r="1.5255" /> 
<circle cx="166.2782" cy="164.8008" r="1.5255" /> 
<circle cx="72.2717" cy="121.9018" r="1.5255" /> 
<circle cx="72.9301" cy="126.5882" r="1.5255" /> 
<circle cx="97.7828" cy="158.2208" r="1.5255" /> 
<circle cx="92.6022" cy="163.5858" r="1.5255" /> 
<circle cx="78.7622" cy="85.0933" r="1.5255" /> 
<circle cx="171.6764" cy="165.9873" r="1.5255" /> 
<circle cx="165.6036" cy="79.1615" r="1.5255" /> 
<circle cx="107.8700" cy="54.9509" r="1.5255" /> 
<circle cx="186.7978" cy="66.0436" r="1.5255" /> 
<circle cx="149.1357" cy="47.6746" r="1.5255" /> 
<circle cx="175.6285" cy="172.3124" r="1.5255" /> 
<circle cx="181.6172" cy="71.4086" r="1.5255" /> 
<circle cx="130.2643" cy="181.9548" r="1.5255" /> 
<circle cx="199.1252" cy="104.3363" r="1.5255" /> 
<circle cx="85.4649" cy="88.3626" r="1.5255" /> 
<circle cx="148.0977" cy="55.0601" r="1.5255" /> 
<circle cx="111.3712" cy="61.5363" r="1.5255" /> 
<circle cx="131.3023" cy="174.5694" r="1.5255" /> 
<circle cx="80.2748" cy="125.2932" r="1.5255" /> 
<circle cx="206.4699" cy="103.0413" r="1.5255" /> 
</g>
<g style="fill:none; 
stroke:#000000; stroke-width:3.3900; stroke-opacity:1; 
stroke-linecap:round; stroke-linejoin:round;">
<path d="M139.7000 156.1726
L143.7680 152.1046
" />
<path d="M143.7680 152.1046
L163.9669 152.1046
" />
<path d="M163.9669 152.1046
L165.6036 150.4679
" />
<path d="M139.7000 158.8846
L139.7000 156.1726
" />
</g>
<g style="fill:none; 
stroke:#000000; stroke-width:0.8678; stroke-opacity:1; 
stroke-linecap:round; stroke-linejoin:round;">
<path d="M185.7523 102.4752
L185.5300 101.6731
" />
<path d="M146.3356 162.0278
L147.1580 161.9044
" />
<path d="M92.8991 105.7174
L92.7473 106.5357
" />
<path d="M167.7237 153.3860
L168.3929 152.8911
" />
<path d="M118.8000 71.9632
L118.0549 72.3341
" />
<path d="M186.5008 105.7174
L186.3347 104.9024
" />
<path d="M155.2221 159.8941
L156.0065 159.6162
" />
<path d="M182.9102 134.9642
L183.2553 134.2068
" />
<path d="M137.2050 67.2030
L136.3744 67.2538
" />
<path d="M141.3638 67.1671
L140.5319 67.1454
" />
<path d="M109.6959 151.8666
L110.3474 152.3846
" />
<path d="M182.1806 136.4598
L182.5515 135.7147
" />
<path d="M187.1951 110.6593
L187.1158 109.8314
" />
<path d="M99.7151 140.7814
L100.1741 141.4750
" />
<path d="M143.0256 162.3756
L143.8554 162.3098
" />
<path d="M187.1158 119.7980
L187.1951 118.9702
" />
<path d="M92.0883 117.3098
L92.1391 118.1403
" />
<path d="M183.5868 96.1861
L183.2553 95.4226
" />
<path d="M181.7962 137.1975
L182.1806 136.4598
" />
<path d="M103.7180 83.5360
L103.1776 84.1685
" />
<path d="M92.1391 111.4891
L92.0883 112.3197
" />
<path d="M105.4041 147.9336
L105.9872 148.5275
" />
<path d="M163.5384 156.1041
L164.2551 155.6817
" />
<path d="M165.6666 154.7997
L166.3602 154.3407
" />
<path d="M172.2154 79.9460
L171.6018 79.3839
" />
<path d="M97.6038 137.1975
L98.0011 137.9290
" />
<path d="M107.7982 79.3839
L107.1846 79.9460
" />
<path d="M104.8312 82.2993
L104.2692 82.9129
" />
<path d="M92.0232 114.8147
L92.0306 115.6466
" />
<path d="M105.9872 148.5275
L106.5811 149.1106
" />
<path d="M125.7604 69.2214
L124.9671 69.4716
" />
<path d="M134.7167 162.2305
L135.5445 162.3098
" />
<path d="M94.1067 100.8751
L93.8700 101.6731
" />
<path d="M102.6481 84.8106
L102.1301 85.4622
" />
<path d="M170.9788 78.8327
L170.3462 78.2923
" />
<path d="M181.3989 137.9290
L181.7962 137.1975
" />
<path d="M139.7000 162.4916
L140.5319 162.4841
" />
<path d="M187.3768 114.8147
L187.3694 113.9828
" />
<path d="M112.3536 75.7600
L111.6763 76.2434
" />
<path d="M100.1741 88.1545
L99.7151 88.8481
" />
<path d="M116.5857 73.1158
L115.8616 73.5253
" />
<path d="M121.8402 159.0202
L122.6144 159.3246
" />
<path d="M167.7237 76.2434
L167.0464 75.7600
" />
<path d="M184.5014 98.5082
L184.2099 97.7292
" />
<path d="M138.8681 67.1454
L138.0362 67.1671
" />
<path d="M95.8132 133.4434
L96.1447 134.2068
" />
<path d="M136.3744 162.3756
L137.2050 162.4265
" />
<path d="M121.0713 70.9279
L120.3079 71.2595
" />
<path d="M95.8132 96.1861
L95.4945 96.9549
" />
<path d="M186.6527 106.5357
L186.5008 105.7174
" />
<path d="M165.6666 74.8298
L164.9649 74.3823
" />
<path d="M99.2676 140.0796
L99.7151 140.7814
" />
<path d="M123.3935 159.6162
L124.1779 159.8941
" />
<path d="M95.4945 132.6746
L95.8132 133.4434
" />
<path d="M127.3604 160.8671
L128.1659 161.0752
" />
<path d="M98.0011 137.9290
L98.4106 138.6531
" />
<path d="M186.6527 123.0938
L186.7897 122.2727
" />
<path d="M169.7041 151.8666
L170.3462 151.3371
" />
<path d="M105.9872 81.1020
L105.4041 81.6959
" />
<path d="M193.5419 97.3203
L185.0431 100.0818
" />
<path d="M117.3172 72.7185
L116.5857 73.1158
" />
<path d="M147.9790 161.7675
L148.7974 161.6156
" />
<path d="M101.6236 143.5076
L102.1301 144.1673
" />
<path d="M137.2050 162.4265
L138.0362 162.4624
" />
<path d="M185.9605 103.2806
L185.7523 102.4752
" />
<path d="M186.3347 124.7271
L186.5008 123.9121
" />
<path d="M133.0644 67.6017
L132.2420 67.7251
" />
<path d="M166.3602 75.2888
L165.6666 74.8298
" />
<path d="M103.1776 145.4609
L103.7180 146.0935
" />
<path d="M107.1846 149.6835
L107.7982 150.2456
" />
<path d="M122.6144 159.3246
L123.3935 159.6162
" />
<path d="M93.0653 104.9024
L92.8991 105.7174
" />
<path d="M158.3287 158.7015
L159.0921 158.3700
" />
<path d="M101.1287 142.8384
L101.6236 143.5076
" />
<path d="M156.0065 159.6162
L156.7855 159.3246
" />
<path d="M182.5515 135.7147
L182.9102 134.9642
" />
<path d="M162.0827 156.9110
L162.8143 156.5136
" />
<path d="M94.3568 129.5476
L94.6206 130.3368
" />
<path d="M102.6481 144.8189
L103.1776 145.4609
" />
<path d="M143.8554 67.3196
L143.0256 67.2538
" />
<path d="M94.8986 98.5082
L94.6206 99.2926
" />
<path d="M107.1846 79.9460
L106.5811 80.5189
" />
<path d="M92.2049 118.9702
L92.2842 119.7980
" />
<path d="M171.6018 150.2456
L172.2154 149.6835
" />
<path d="M152.0396 160.8671
L152.8416 160.6447
" />
<path d="M162.0827 72.7185
L161.3451 72.3341
" />
<path d="M131.4210 67.8620
L130.6026 68.0139
" />
<path d="M128.1659 161.0752
L128.9747 161.2698
" />
<path d="M111.0071 76.7384
L110.3474 77.2448
" />
<path d="M124.9671 69.4716
L124.1779 69.7353
" />
<path d="M157.5598 70.6093
L156.7855 70.3048
" />
<path d="M185.0431 100.0818
L184.7794 99.2926
" />
<path d="M177.7764 143.5076
L178.2713 142.8384
" />
<path d="M92.1391 118.1403
L92.2049 118.9702
" />
<path d="M132.2420 161.9044
L133.0644 162.0278
" />
<path d="M186.9131 108.1792
L186.7897 107.3568
" />
<path d="M93.4395 103.2806
L93.2449 104.0895
" />
<path d="M159.8494 158.0249
L160.6000 157.6662
" />
<path d="M122.6144 70.3048
L121.8402 70.6093
" />
<path d="M167.0464 153.8695
L167.7237 153.3860
" />
<path d="M92.4869 108.1792
L92.3784 109.0043
" />
<path d="M94.3568 100.0818
L94.1067 100.8751
" />
<path d="M113.7334 154.7997
L114.4351 155.2471
" />
<path d="M111.6763 76.2434
L111.0071 76.7384
" />
<path d="M92.7473 106.5357
L92.6103 107.3568
" />
<path d="M96.4898 134.9642
L96.8485 135.7147
" />
<path d="M128.9747 161.2698
L129.7877 161.4495
" />
<path d="M99.7151 88.8481
L99.2676 89.5498
" />
<path d="M130.6026 161.6156
L131.4210 161.7675
" />
<path d="M150.4252 161.2698
L151.2341 161.0752
" />
<path d="M162.8143 73.1158
L162.0827 72.7185
" />
<path d="M159.0921 158.3700
L159.8494 158.0249
" />
<path d="M185.2933 100.8751
L185.0431 100.0818
" />
<path d="M187.3477 113.1509
L187.3117 112.3197
" />
<path d="M99.2676 89.5498
L98.8330 90.2597
" />
<path d="M183.2553 134.2068
L183.5868 133.4434
" />
<path d="M139.7000 67.1379
L138.8681 67.1454
" />
<path d="M94.1067 128.7544
L94.3568 129.5476
" />
<path d="M103.1776 84.1685
L102.6481 84.8106
" />
<path d="M138.0362 67.1671
L137.2050 67.2030
" />
<path d="M104.2692 146.7166
L104.8312 147.3302
" />
<path d="M127.3604 68.7624
L126.5584 68.9848
" />
<path d="M160.6000 71.9632
L159.8494 71.6046
" />
<path d="M156.0065 70.0133
L155.2221 69.7353
" />
<path d="M133.8896 67.4932
L133.0644 67.6017
" />
<path d="M139.7000 171.4276
L139.7000 162.4916
" />
<path d="M146.3356 67.6017
L145.5104 67.4932
" />
<path d="M161.3451 157.2954
L162.0827 156.9110
" />
<path d="M183.9055 132.6746
L184.2099 131.9003
" />
<path d="M172.2154 149.6835
L172.8188 149.1106
" />
<path d="M92.0883 112.3197
L92.0523 113.1509
" />
<path d="M187.0215 109.0043
L186.9131 108.1792
" />
<path d="M185.5300 127.9564
L185.7523 127.1543
" />
<path d="M176.2224 84.1685
L175.6820 83.5360
" />
<path d="M100.1741 141.4750
L100.6453 142.1611
" />
<path d="M108.4212 78.8327
L107.7982 79.3839
" />
<path d="M186.7897 107.3568
L186.6527 106.5357
" />
<path d="M186.9131 121.4503
L187.0215 120.6252
" />
<path d="M152.8416 68.9848
L152.0396 68.7624
" />
<path d="M170.9788 150.7968
L171.6018 150.2456
" />
<path d="M93.2449 104.0895
L93.0653 104.9024
" />
<path d="M94.8986 131.1213
L95.1901 131.9003
" />
<path d="M102.1301 85.4622
L101.6236 86.1219
" />
<path d="M162.8143 156.5136
L163.5384 156.1041
" />
<path d="M140.5319 162.4841
L141.3638 162.4624
" />
<path d="M179.6849 88.8481
L179.2259 88.1545
" />
<path d="M135.5445 67.3196
L134.7167 67.3989
" />
<path d="M183.5868 133.4434
L183.9055 132.6746
" />
<path d="M184.2099 131.9003
L184.5014 131.1213
" />
<path d="M184.7794 130.3368
L185.0431 129.5476
" />
<path d="M142.1950 162.4265
L143.0256 162.3756
" />
<path d="M132.2420 67.7251
L131.4210 67.8620
" />
<path d="M141.3638 162.4624
L142.1950 162.4265
" />
<path d="M184.2099 97.7292
L183.9055 96.9549
" />
<path d="M106.5811 80.5189
L105.9872 81.1020
" />
<path d="M173.9958 81.6959
L173.4128 81.1020
" />
<path d="M187.1158 109.8314
L187.0215 109.0043
" />
<path d="M178.2713 86.7910
L177.7764 86.1219
" />
<path d="M109.0538 151.3371
L109.6959 151.8666
" />
<path d="M92.6103 107.3568
L92.4869 108.1792
" />
<path d="M184.5014 131.1213
L184.7794 130.3368
" />
<path d="M124.1779 159.8941
L124.9671 160.1579
" />
<path d="M124.9671 160.1579
L125.7604 160.4081
" />
<path d="M180.1324 89.5498
L179.6849 88.8481
" />
<path d="M116.5857 156.5136
L117.3172 156.9110
" />
<path d="M129.7877 68.1800
L128.9747 68.3597
" />
<path d="M176.7519 144.8189
L177.2699 144.1673
" />
<path d="M102.1301 144.1673
L102.6481 144.8189
" />
<path d="M172.9761 69.0139
L167.7237 76.2434
" />
<path d="M172.8188 80.5189
L172.2154 79.9460
" />
<path d="M92.8991 123.9121
L93.0653 124.7271
" />
<path d="M185.9605 126.3488
L186.1551 125.5400
" />
<path d="M175.6820 83.5360
L175.1308 82.9129
" />
<path d="M107.7982 150.2456
L108.4212 150.7968
" />
<path d="M109.0538 78.2923
L108.4212 78.8327
" />
<path d="M150.4252 68.3597
L149.6123 68.1800
" />
<path d="M110.3474 152.3846
L111.0071 152.8911
" />
<path d="M182.5515 93.9148
L182.1806 93.1696
" />
<path d="M128.9747 68.3597
L128.1659 68.5542
" />
<path d="M92.2842 119.7980
L92.3784 120.6252
" />
<path d="M110.3474 77.2448
L109.6959 77.7628
" />
<path d="M163.5384 73.5253
L162.8143 73.1158
" />
<path d="M185.5300 101.6731
L185.2933 100.8751
" />
<path d="M157.5598 159.0202
L158.3287 158.7015
" />
<path d="M96.8485 135.7147
L97.2194 136.4598
" />
<path d="M173.4128 148.5275
L173.9958 147.9336
" />
<path d="M95.1901 97.7292
L94.8986 98.5082
" />
<path d="M103.7180 146.0935
L104.2692 146.7166
" />
<path d="M177.2699 85.4622
L176.7519 84.8106
" />
<path d="M140.5319 67.1454
L139.7000 67.1379
" />
<path d="M92.0523 116.4785
L92.0883 117.3098
" />
<path d="M121.0713 158.7015
L121.8402 159.0202
" />
<path d="M114.4351 74.3823
L113.7334 74.8298
" />
<path d="M145.5104 162.1363
L146.3356 162.0278
" />
<path d="M142.1950 67.2030
L141.3638 67.1671
" />
<path d="M108.4212 150.7968
L109.0538 151.3371
" />
<path d="M119.5506 158.0249
L120.3079 158.3700
" />
<path d="M93.8700 127.9564
L94.1067 128.7544
" />
<path d="M187.3117 112.3197
L187.2609 111.4891
" />
<path d="M120.3079 158.3700
L121.0713 158.7015
" />
<path d="M149.6123 161.4495
L150.4252 161.2698
" />
<path d="M133.0644 162.0278
L133.8896 162.1363
" />
<path d="M184.7794 99.2926
L184.5014 98.5082
" />
<path d="M93.6477 127.1543
L93.8700 127.9564
" />
<path d="M106.4239 69.0139
L111.6763 76.2434
" />
<path d="M134.7167 67.3989
L133.8896 67.4932
" />
<path d="M151.2341 68.5542
L150.4252 68.3597
" />
<path d="M148.7974 161.6156
L149.6123 161.4495
" />
<path d="M187.0215 120.6252
L187.1158 119.7980
" />
<path d="M98.0011 91.7004
L97.6038 92.4320
" />
<path d="M125.7604 160.4081
L126.5584 160.6447
" />
<path d="M126.5584 160.6447
L127.3604 160.8671
" />
<path d="M92.3784 120.6252
L92.4869 121.4503
" />
<path d="M185.0431 129.5476
L185.2933 128.7544
" />
<path d="M170.3462 151.3371
L170.9788 150.7968
" />
<path d="M176.7519 84.8106
L176.2224 84.1685
" />
<path d="M130.6026 68.0139
L129.7877 68.1800
" />
<path d="M109.6959 77.7628
L109.0538 78.2923
" />
<path d="M159.8494 71.6046
L159.0921 71.2595
" />
<path d="M85.8581 97.3203
L94.3568 100.0818
" />
<path d="M92.6103 122.2727
L92.7473 123.0938
" />
<path d="M176.2224 145.4609
L176.7519 144.8189
" />
<path d="M187.3694 115.6466
L187.3768 114.8147
" />
<path d="M129.7877 161.4495
L130.6026 161.6156
" />
<path d="M153.6396 69.2214
L152.8416 68.9848
" />
<path d="M98.8330 139.3698
L99.2676 140.0796
" />
<path d="M94.6206 130.3368
L94.8986 131.1213
" />
<path d="M172.8188 149.1106
L173.4128 148.5275
" />
<path d="M175.1308 82.9129
L174.5688 82.2993
" />
<path d="M131.4210 161.7675
L132.2420 161.9044
" />
<path d="M170.3462 78.2923
L169.7041 77.7628
" />
<path d="M97.6038 92.4320
L97.2194 93.1696
" />
<path d="M175.1308 146.7166
L175.6820 146.0935
" />
<path d="M104.2692 82.9129
L103.7180 83.5360
" />
<path d="M97.2194 136.4598
L97.6038 137.1975
" />
<path d="M167.0464 75.7600
L166.3602 75.2888
" />
<path d="M96.8485 93.9148
L96.4898 94.6653
" />
<path d="M144.6833 162.2305
L145.5104 162.1363
" />
<path d="M93.0653 124.7271
L93.2449 125.5400
" />
<path d="M120.3079 71.2595
L119.5506 71.6046
" />
<path d="M187.3694 113.9828
L187.3477 113.1509
" />
<path d="M113.0398 154.3407
L113.7334 154.7997
" />
<path d="M147.1580 67.7251
L146.3356 67.6017
" />
<path d="M118.0549 72.3341
L117.3172 72.7185
" />
<path d="M174.5688 82.2993
L173.9958 81.6959
" />
<path d="M101.6236 86.1219
L101.1287 86.7910
" />
<path d="M113.7334 74.8298
L113.0398 75.2888
" />
<path d="M181.3989 91.7004
L180.9894 90.9763
" />
<path d="M93.2449 125.5400
L93.4395 126.3488
" />
<path d="M187.2609 118.1403
L187.3117 117.3098
" />
<path d="M92.3784 109.0043
L92.2842 109.8314
" />
<path d="M147.1580 161.9044
L147.9790 161.7675
" />
<path d="M152.8416 160.6447
L153.6396 160.4081
" />
<path d="M154.4329 160.1579
L155.2221 159.8941
" />
<path d="M135.5445 162.3098
L136.3744 162.3756
" />
<path d="M178.2713 142.8384
L178.7547 142.1611
" />
<path d="M123.3935 70.0133
L122.6144 70.3048
" />
<path d="M166.3602 154.3407
L167.0464 153.8695
" />
<path d="M159.0921 71.2595
L158.3287 70.9279
" />
<path d="M104.8312 147.3302
L105.4041 147.9336
" />
<path d="M106.5811 149.1106
L107.1846 149.6835
" />
<path d="M143.8554 162.3098
L144.6833 162.2305
" />
<path d="M187.3117 117.3098
L187.3477 116.4785
" />
<path d="M112.3536 153.8695
L113.0398 154.3407
" />
<path d="M169.0526 152.3846
L169.7041 151.8666
" />
<path d="M185.7523 127.1543
L185.9605 126.3488
" />
<path d="M115.8616 73.5253
L115.1449 73.9477
" />
<path d="M92.0306 113.9828
L92.0232 114.8147
" />
<path d="M158.3287 70.9279
L157.5598 70.6093
" />
<path d="M193.5419 132.3091
L185.0431 129.5476
" />
<path d="M92.4869 121.4503
L92.6103 122.2727
" />
<path d="M118.0549 157.2954
L118.8000 157.6662
" />
<path d="M92.2842 109.8314
L92.2049 110.6593
" />
<path d="M169.0526 77.2448
L168.3929 76.7384
" />
<path d="M156.7855 159.3246
L157.5598 159.0202
" />
<path d="M95.4945 96.9549
L95.1901 97.7292
" />
<path d="M182.1806 93.1696
L181.7962 92.4320
" />
<path d="M92.7473 123.0938
L92.8991 123.9121
" />
<path d="M98.4106 138.6531
L98.8330 139.3698
" />
<path d="M168.3929 152.8911
L169.0526 152.3846
" />
<path d="M180.1324 140.0796
L180.5670 139.3698
" />
<path d="M186.1551 104.0895
L185.9605 103.2806
" />
<path d="M101.1287 86.7910
L100.6453 87.4684
" />
<path d="M160.6000 157.6662
L161.3451 157.2954
" />
<path d="M186.3347 104.9024
L186.1551 104.0895
" />
<path d="M114.4351 155.2471
L115.1449 155.6817
" />
<path d="M171.6018 79.3839
L170.9788 78.8327
" />
<path d="M117.3172 156.9110
L118.0549 157.2954
" />
<path d="M119.5506 71.6046
L118.8000 71.9632
" />
<path d="M186.5008 123.9121
L186.6527 123.0938
" />
<path d="M187.3477 116.4785
L187.3694 115.6466
" />
<path d="M98.8330 90.2597
L98.4106 90.9763
" />
<path d="M133.8896 162.1363
L134.7167 162.2305
" />
<path d="M155.2221 69.7353
L154.4329 69.4716
" />
<path d="M136.3744 67.2538
L135.5445 67.3196
" />
<path d="M118.8000 157.6662
L119.5506 158.0249
" />
<path d="M96.4898 94.6653
L96.1447 95.4226
" />
<path d="M124.1779 69.7353
L123.3935 70.0133
" />
<path d="M180.5670 90.2597
L180.1324 89.5498
" />
<path d="M151.2341 161.0752
L152.0396 160.8671
" />
<path d="M85.8581 132.3091
L94.3568 129.5476
" />
<path d="M183.9055 96.9549
L183.5868 96.1861
" />
<path d="M121.8402 70.6093
L121.0713 70.9279
" />
<path d="M164.2551 155.6817
L164.9649 155.2471
" />
<path d="M113.0398 75.2888
L112.3536 75.7600
" />
<path d="M183.2553 95.4226
L182.9102 94.6653
" />
<path d="M168.3929 76.7384
L167.7237 76.2434
" />
<path d="M92.0306 115.6466
L92.0523 116.4785
" />
<path d="M93.8700 101.6731
L93.6477 102.4752
" />
<path d="M178.7547 142.1611
L179.2259 141.4750
" />
<path d="M169.7041 77.7628
L169.0526 77.2448
" />
<path d="M98.4106 90.9763
L98.0011 91.7004
" />
<path d="M164.2551 73.9477
L163.5384 73.5253
" />
<path d="M164.9649 74.3823
L164.2551 73.9477
" />
<path d="M97.2194 93.1696
L96.8485 93.9148
" />
<path d="M179.2259 88.1545
L178.7547 87.4684
" />
<path d="M111.6763 153.3860
L112.3536 153.8695
" />
<path d="M147.9790 67.8620
L147.1580 67.7251
" />
<path d="M115.1449 73.9477
L114.4351 74.3823
" />
<path d="M186.7897 122.2727
L186.9131 121.4503
" />
<path d="M153.6396 160.4081
L154.4329 160.1579
" />
<path d="M177.2699 144.1673
L177.7764 143.5076
" />
<path d="M173.9958 147.9336
L174.5688 147.3302
" />
<path d="M138.0362 162.4624
L138.8681 162.4841
" />
<path d="M180.5670 139.3698
L180.9894 138.6531
" />
<path d="M161.3451 72.3341
L160.6000 71.9632
" />
<path d="M92.2049 110.6593
L92.1391 111.4891
" />
<path d="M115.8616 156.1041
L116.5857 156.5136
" />
<path d="M185.2933 128.7544
L185.5300 127.9564
" />
<path d="M128.1659 68.5542
L127.3604 68.7624
" />
<path d="M105.4041 81.6959
L104.8312 82.2993
" />
<path d="M94.6206 99.2926
L94.3568 100.0818
" />
<path d="M179.2259 141.4750
L179.6849 140.7814
" />
<path d="M138.8681 162.4841
L139.7000 162.4916
" />
<path d="M186.1551 125.5400
L186.3347 124.7271
" />
<path d="M100.6453 87.4684
L100.1741 88.1545
" />
<path d="M96.1447 134.2068
L96.4898 134.9642
" />
<path d="M92.0523 113.1509
L92.0306 113.9828
" />
<path d="M93.4395 126.3488
L93.6477 127.1543
" />
<path d="M177.7764 86.1219
L177.2699 85.4622
" />
<path d="M95.1901 131.9003
L95.4945 132.6746
" />
<path d="M93.6477 102.4752
L93.4395 103.2806
" />
<path d="M148.7974 68.0139
L147.9790 67.8620
" />
<path d="M181.7962 92.4320
L181.3989 91.7004
" />
<path d="M154.4329 69.4716
L153.6396 69.2214
" />
<path d="M178.7547 87.4684
L178.2713 86.7910
" />
<path d="M187.1951 118.9702
L187.2609 118.1403
" />
<path d="M180.9894 90.9763
L180.5670 90.2597
" />
<path d="M145.5104 67.4932
L144.6833 67.3989
" />
<path d="M139.7000 58.2019
L139.7000 67.1379
" />
<path d="M173.4128 81.1020
L172.8188 80.5189
" />
<path d="M175.6820 146.0935
L176.2224 145.4609
" />
<path d="M182.9102 94.6653
L182.5515 93.9148
" />
<path d="M111.0071 152.8911
L111.6763 153.3860
" />
<path d="M149.6123 68.1800
L148.7974 68.0139
" />
<path d="M143.0256 67.2538
L142.1950 67.2030
" />
<path d="M174.5688 147.3302
L175.1308 146.7166
" />
<path d="M156.7855 70.3048
L156.0065 70.0133
" />
<path d="M100.6453 142.1611
L101.1287 142.8384
" />
<path d="M115.1449 155.6817
L115.8616 156.1041
" />
<path d="M144.6833 67.3989
L143.8554 67.3196
" />
<path d="M179.6849 140.7814
L180.1324 140.0796
" />
<path d="M126.5584 68.9848
L125.7604 69.2214
" />
<path d="M164.9649 155.2471
L165.6666 154.7997
" />
<path d="M187.2609 111.4891
L187.1951 110.6593
" />
<path d="M152.0396 68.7624
L151.2341 68.5542
" />
<path d="M180.9894 138.6531
L181.3989 137.9290
" />
<path d="M172.9761 160.6155
L167.7237 153.3860
" />
<path d="M96.1447 95.4226
L95.8132 96.1861
" />
<path d="M106.0008 78.6768
L106.6367 78.0944
" />
<path d="M149.9737 163.1472
L150.8151 162.9607
" />
<path d="M120.3933 160.2989
L121.1900 160.6291
" />
<path d="M176.0149 163.0062
L176.8502 162.3648
" />
<path d="M90.4753 110.5081
L90.5580 109.6497
" />
<path d="M188.9918 118.2617
L188.9247 119.1214
" />
<path d="M175.1681 65.9968
L174.3104 65.3853
" />
<path d="M197.0885 133.4617
L197.4051 132.4569
" />
<path d="M134.5350 163.9567
L135.3934 164.0394
" />
<path d="M157.4079 160.9450
L158.2100 160.6291
" />
<path d="M178.1005 83.7184
L178.6374 84.3936
" />
<path d="M187.6446 102.8609
L187.8460 103.6996
" />
<path d="M104.2319 163.6326
L110.6559 154.7902
" />
<path d="M183.7272 92.3818
L184.1116 93.1540
" />
<path d="M138.6471 54.4824
L137.5941 54.5095
" />
<path d="M172.7632 78.0944
L173.3992 78.6768
" />
<path d="M188.8420 109.6497
L188.9247 110.5081
" />
<path d="M181.6043 140.9997
L181.1406 141.7265
" />
<path d="M107.2822 77.5228
L107.9385 76.9628
" />
<path d="M196.4030 94.1765
L196.0342 93.1900
" />
</g>
<g style="fill:none; 
stroke:#000000; stroke-width:0.8611; stroke-opacity:1; 
stroke-linecap:round; stroke-linejoin:round;">
<path d="M104.2319 65.9968
L107.8341 65.3209
" />
</g>
<g style="fill:none; 
stroke:#000000; stroke-width:0.8678; stroke-opacity:1; 
stroke-linecap:round; stroke-linejoin:round;">
<path d="M129.4263 66.4823
L130.2718 66.3101
" />
<path d="M114.2507 157.1693
L114.9937 157.6073
" />
<path d="M116.5023 71.1862
L117.2671 70.7876
" />
<path d="M90.3173 116.5389
L90.2950 115.6771
" />
<path d="M123.6131 68.0946
L124.4308 67.8207
" />
<path d="M180.6646 87.1836
L181.1406 87.9030
" />
<path d="M154.9692 161.8088
L154.1468 162.0678
" />
<path d="M123.6131 161.5349
L124.4308 161.8088
" />
</g>
<g style="fill:none; 
stroke:#000000; stroke-width:0.8611; stroke-opacity:1; 
stroke-linecap:round; stroke-linejoin:round;">
<path d="M195.9738 99.8988
L187.6446 102.8609
" />
</g>
<g style="fill:none; 
stroke:#000000; stroke-width:0.8678; stroke-opacity:1; 
stroke-linecap:round; stroke-linejoin:round;">
<path d="M177.5519 83.0532
L178.1005 83.7184
" />
<path d="M176.8502 162.3648
L177.6747 161.7091
" />
<path d="M174.0250 150.3588
L173.3992 150.9527
" />
<path d="M154.1468 67.5617
L154.9692 67.8207
" />
<path d="M91.1953 105.3865
L91.3676 104.5410
" />
<path d="M125.2532 67.5617
L126.0804 67.3162
" />
<path d="M99.2235 86.4731
L99.7246 85.7707
" />
<path d="M146.5769 65.8829
L147.4299 66.0104
" />
</g>
<g style="fill:none; 
stroke:#000000; stroke-width:0.8611; stroke-opacity:1; 
stroke-linecap:round; stroke-linejoin:round;">
<path d="M197.0885 96.1678
L195.9738 99.8988
" />
</g>
<g style="fill:none; 
stroke:#000000; stroke-width:0.8678; stroke-opacity:1; 
stroke-linecap:round; stroke-linejoin:round;">
<path d="M159.7979 69.6743
L160.5823 70.0316
" />
<path d="M91.7554 126.7685
L91.5540 125.9298
" />
<path d="M102.9796 81.7515
L103.5620 81.1155
" />
<path d="M182.9169 90.8590
L183.3285 91.6170
" />
<path d="M126.0804 162.3132
L126.9109 162.5438
" />
<path d="M120.3933 69.3306
L121.1900 69.0004
" />
<path d="M100.2371 85.0777
L100.7626 84.3936
" />
</g>
<g style="fill:none; 
stroke:#000000; stroke-width:0.8611; stroke-opacity:1; 
stroke-linecap:round; stroke-linejoin:round;">
<path d="M111.2241 68.7109
L113.5150 72.9104
" />
</g>
<g style="fill:none; 
stroke:#000000; stroke-width:0.8678; stroke-opacity:1; 
stroke-linecap:round; stroke-linejoin:round;">
<path d="M188.5043 107.0849
L188.6318 107.9378
" />
<path d="M179.6754 143.8588
L179.1629 144.5517
" />
<path d="M139.7000 175.1566
L140.7529 175.1471
" />
<path d="M90.2950 113.9523
L90.3173 113.0906
" />
<path d="M90.4082 111.3678
L90.4753 110.5081
" />
<path d="M145.7220 65.7704
L146.5769 65.8829
" />
<path d="M139.7000 54.4729
L138.6471 54.4824
" />
</g>
<g style="fill:none; 
stroke:#000000; stroke-width:0.8611; stroke-opacity:1; 
stroke-linecap:round; stroke-linejoin:round;">
<path d="M107.8341 65.3209
L111.2241 68.7109
" />
</g>
<g style="fill:none; 
stroke:#000000; stroke-width:0.8678; stroke-opacity:1; 
stroke-linecap:round; stroke-linejoin:round;">
<path d="M91.3676 104.5410
L91.5540 103.6996
" />
<path d="M155.7869 161.5349
L156.5998 161.2474
" />
<path d="M101.7253 161.7091
L102.5498 162.3648
" />
<path d="M162.8977 71.1862
L163.6557 71.5978
" />
<path d="M94.5596 94.7168
L94.9169 93.9324
" />
<path d="M122.8002 161.2474
L123.6131 161.5349
" />
<path d="M183.3285 91.6170
L183.7272 92.3818
" />
<path d="M148.2801 66.1528
L149.1282 66.3101
" />
<path d="M188.2047 124.2430
L188.0324 125.0884
" />
<path d="M177.6747 161.7091
L178.4869 161.0393
" />
<path d="M126.9109 162.5438
L127.7462 162.7594
" />
<path d="M158.2100 69.0004
L159.0067 69.3306
" />
<path d="M100.9131 161.0393
L101.7253 161.7091
" />
<path d="M152.4891 67.0857
L153.3196 67.3162
" />
<path d="M121.9920 160.9450
L122.8002 161.2474
" />
<path d="M173.3992 150.9527
L172.7632 151.5351
" />
<path d="M188.7443 108.7928
L188.8420 109.6497
" />
<path d="M144.8650 163.9567
L145.7220 163.8591
" />
<path d="M156.5998 161.2474
L155.7869 161.5349
" />
<path d="M175.1681 163.6326
L176.0149 163.0062
" />
<path d="M145.7220 163.8591
L144.8650 163.9567
" />
<path d="M118.0393 159.2263
L118.8177 159.5979
" />
<path d="M140.7529 175.1471
L141.8059 175.1199
" />
</g>
<g style="fill:none; 
stroke:#000000; stroke-width:0.8611; stroke-opacity:1; 
stroke-linecap:round; stroke-linejoin:round;">
<path d="M171.5659 170.4106
L164.1079 168.3766
" />
</g>
<g style="fill:none; 
stroke:#000000; stroke-width:0.8678; stroke-opacity:1; 
stroke-linecap:round; stroke-linejoin:round;">
<path d="M94.9169 93.9324
L95.2884 93.1540
" />
<path d="M98.2594 87.9030
L98.7354 87.1836
" />
<path d="M159.0067 160.2989
L159.7979 159.9552
" />
<path d="M154.9692 67.8207
L155.7869 68.0946
" />
<path d="M127.7462 162.7594
L128.5849 162.9607
" />
<path d="M172.1178 152.1067
L171.4615 152.6667
" />
</g>
<g style="fill:none; 
stroke:#000000; stroke-width:0.8611; stroke-opacity:1; 
stroke-linecap:round; stroke-linejoin:round;">
<path d="M100.9131 161.0393
L101.0541 149.3926
" />
</g>
<g style="fill:none; 
stroke:#000000; stroke-width:0.8678; stroke-opacity:1; 
stroke-linecap:round; stroke-linejoin:round;">
<path d="M131.1199 66.1528
L131.9701 66.0104
" />
<path d="M175.2440 149.1397
L174.6399 149.7547
" />
<path d="M149.9737 163.1472
L149.1282 163.3194
" />
</g>
<g style="fill:none; 
stroke:#000000; stroke-width:0.8611; stroke-opacity:1; 
stroke-linecap:round; stroke-linejoin:round;">
<path d="M174.9559 168.3766
L171.5659 170.4106
" />
</g>
<g style="fill:none; 
stroke:#000000; stroke-width:0.8678; stroke-opacity:1; 
stroke-linecap:round; stroke-linejoin:round;">
<path d="M103.3851 66.6233
L102.5498 67.2647
" />
<path d="M187.8460 103.6996
L188.0324 104.5410
" />
<path d="M172.7632 151.5351
L172.1178 152.1067
" />
<path d="M183.3285 138.0124
L182.9169 138.7704
" />
<path d="M135.4910 54.6200
L136.2531 65.5229
" />
<path d="M182.0545 140.2641
L181.6043 140.9997
" />
<path d="M178.1005 145.9111
L177.5519 146.5762
" />
<path d="M101.2995 83.7184
L101.8480 83.0532
" />
<path d="M100.9131 68.5902
L107.9385 76.9628
" />
<path d="M96.0715 91.6170
L96.4830 90.8590
" />
<path d="M91.1953 124.2430
L91.0380 123.3948
" />
<path d="M95.6728 92.3818
L96.0715 91.6170
" />
<path d="M181.1406 87.9030
L181.6043 88.6298
" />
<path d="M197.0885 96.1678
L196.7542 95.1691
" />
</g>
<g style="fill:none; 
stroke:#000000; stroke-width:0.8611; stroke-opacity:1; 
stroke-linecap:round; stroke-linejoin:round;">
<path d="M175.1681 65.9968
L176.3119 69.3889
" />
</g>
<g style="fill:none; 
stroke:#000000; stroke-width:0.8678; stroke-opacity:1; 
stroke-linecap:round; stroke-linejoin:round;">
<path d="M104.7600 79.8748
L105.3750 79.2707
" />
</g>
<g style="fill:none; 
stroke:#000000; stroke-width:0.8611; stroke-opacity:1; 
stroke-linecap:round; stroke-linejoin:round;">
<path d="M83.4262 136.5107
L81.3922 133.1207
" />
</g>
<g style="fill:none; 
stroke:#000000; stroke-width:0.8678; stroke-opacity:1; 
stroke-linecap:round; stroke-linejoin:round;">
<path d="M131.9701 163.6191
L132.8231 163.7465
" />
<path d="M102.5498 67.2647
L101.7253 67.9203
" />
</g>
<g style="fill:none; 
stroke:#000000; stroke-width:0.8611; stroke-opacity:1; 
stroke-linecap:round; stroke-linejoin:round;">
<path d="M143.0900 55.8289
L143.7680 60.5749
" />
</g>
<g style="fill:none; 
stroke:#000000; stroke-width:0.8678; stroke-opacity:1; 
stroke-linecap:round; stroke-linejoin:round;">
<path d="M102.4081 82.3969
L102.9796 81.7515
" />
<path d="M159.0067 69.3306
L159.7979 69.6743
" />
<path d="M129.4263 163.1472
L130.2718 163.3194
" />
<path d="M81.6959 98.1821
L81.4145 99.1970
" />
<path d="M113.5150 156.7191
L114.2507 157.1693
" />
</g>
<g style="fill:none; 
stroke:#000000; stroke-width:0.8611; stroke-opacity:1; 
stroke-linecap:round; stroke-linejoin:round;">
<path d="M175.1681 163.6326
L174.9559 168.3766
" />
</g>
<g style="fill:none; 
stroke:#000000; stroke-width:0.8678; stroke-opacity:1; 
stroke-linecap:round; stroke-linejoin:round;">
<path d="M164.4062 72.0222
L165.1493 72.4602
" />
<path d="M172.5646 64.2076
L171.6764 63.6422
" />
<path d="M174.6399 149.7547
L174.0250 150.3588
" />
</g>
<g style="fill:none; 
stroke:#000000; stroke-width:0.8611; stroke-opacity:1; 
stroke-linecap:round; stroke-linejoin:round;">
<path d="M162.0739 163.6306
L160.5823 159.5979
" />
</g>
<g style="fill:none; 
stroke:#000000; stroke-width:0.8678; stroke-opacity:1; 
stroke-linecap:round; stroke-linejoin:round;">
<path d="M182.4925 139.5210
L182.0545 140.2641
" />
</g>
<g style="fill:none; 
stroke:#000000; stroke-width:0.8611; stroke-opacity:1; 
stroke-linecap:round; stroke-linejoin:round;">
<path d="M88.8501 93.7968
L93.8856 96.3047
" />
</g>
<g style="fill:none; 
stroke:#000000; stroke-width:0.8678; stroke-opacity:1; 
stroke-linecap:round; stroke-linejoin:round;">
<path d="M82.3115 96.1678
L81.9949 97.1725
" />
<path d="M179.1629 144.5517
L178.6374 145.2358
" />
<path d="M154.9692 161.8088
L155.7869 161.5349
" />
</g>
<g style="fill:none; 
stroke:#000000; stroke-width:0.8611; stroke-opacity:1; 
stroke-linecap:round; stroke-linejoin:round;">
<path d="M101.0541 149.3926
L90.8841 135.8327
" />
</g>
<g style="fill:none; 
stroke:#000000; stroke-width:0.8678; stroke-opacity:1; 
stroke-linecap:round; stroke-linejoin:round;">
<path d="M147.4299 163.6191
L146.5769 163.7465
" />
<path d="M104.1560 80.4897
L104.7600 79.8748
" />
<path d="M126.0804 67.3162
L126.9109 67.0857
" />
<path d="M185.1842 134.1214
L184.8404 134.9126
" />
<path d="M188.5043 122.5446
L188.3620 123.3948
" />
<path d="M147.4299 66.0104
L148.2801 66.1528
" />
<path d="M136.5419 54.5556
L135.4910 54.6200
" />
<path d="M184.4831 135.6971
L184.1116 136.4754
" />
<path d="M112.0689 155.7794
L112.7882 156.2553
" />
</g>
<g style="fill:none; 
stroke:#000000; stroke-width:0.8611; stroke-opacity:1; 
stroke-linecap:round; stroke-linejoin:round;">
<path d="M82.3115 96.1678
L84.7822 93.7968
" />
</g>
<g style="fill:none; 
stroke:#000000; stroke-width:0.8678; stroke-opacity:1; 
stroke-linecap:round; stroke-linejoin:round;">
<path d="M146.5769 163.7465
L147.4299 163.6191
" />
<path d="M145.7220 163.8591
L146.5769 163.7465
" />
<path d="M180.1765 143.1564
L179.6754 143.8588
" />
<path d="M130.2718 163.3194
L131.1199 163.4767
" />
<path d="M122.8002 68.3820
L123.6131 68.0946
" />
<path d="M165.1493 72.4602
L165.8850 72.9104
" />
<path d="M188.7443 120.8367
L188.6318 121.6917
" />
<path d="M124.4308 67.8207
L125.2532 67.5617
" />
<path d="M90.3553 117.4006
L90.3173 116.5389
" />
<path d="M161.3607 70.4031
L162.1329 70.7876
" />
<path d="M184.8404 134.9126
L184.4831 135.6971
" />
<path d="M146.5769 163.7465
L145.7220 163.8591
" />
<path d="M153.3196 67.3162
L154.1468 67.5617
" />
<path d="M119.6021 159.9552
L120.3933 160.2989
" />
<path d="M174.0250 79.2707
L174.6399 79.8748
" />
<path d="M90.7682 121.6917
L90.6557 120.8367
" />
<path d="M197.9855 130.4324
L198.2492 129.4127
" />
<path d="M95.2884 93.1540
L95.6728 92.3818
" />
<path d="M102.5498 162.3648
L103.3851 163.0062
" />
<path d="M135.3934 164.0394
L136.2531 164.1065
" />
</g>
<g style="fill:none; 
stroke:#000000; stroke-width:0.8611; stroke-opacity:1; 
stroke-linecap:round; stroke-linejoin:round;">
<path d="M136.9880 173.8006
L136.3100 171.0886
" />
</g>
<g style="fill:none; 
stroke:#000000; stroke-width:0.8678; stroke-opacity:1; 
stroke-linecap:round; stroke-linejoin:round;">
<path d="M188.9918 111.3678
L189.0447 112.2288
" />
<path d="M182.0545 89.3654
L182.4925 90.1085
" />
<path d="M163.6557 71.5978
L164.4062 72.0222
" />
<path d="M91.5540 125.9298
L91.3676 125.0884
" />
<path d="M91.5540 103.6996
L91.7554 102.8609
" />
<path d="M171.4615 76.9628
L172.1178 77.5228
" />
<path d="M178.4869 161.0393
L171.4615 152.6667
" />
<path d="M197.4051 132.4569
L197.7041 131.4474
" />
<path d="M156.5998 68.3820
L157.4079 68.6844
" />
<path d="M157.4079 160.9450
L156.5998 161.2474
" />
</g>
<g style="fill:none; 
stroke:#000000; stroke-width:0.8611; stroke-opacity:1; 
stroke-linecap:round; stroke-linejoin:round;">
<path d="M176.3119 69.3889
L174.2779 73.4568
" />
</g>
<g style="fill:none; 
stroke:#000000; stroke-width:0.8678; stroke-opacity:1; 
stroke-linecap:round; stroke-linejoin:round;">
<path d="M187.8460 125.9298
L187.6446 126.7685
" />
<path d="M91.0380 106.2347
L91.1953 105.3865
" />
<path d="M112.7882 156.2553
L113.5150 156.7191
" />
<path d="M114.9937 72.0222
L115.7443 71.5978
" />
<path d="M147.4299 163.6191
L148.2801 163.4767
" />
</g>
<g style="fill:none; 
stroke:#000000; stroke-width:0.8611; stroke-opacity:1; 
stroke-linecap:round; stroke-linejoin:round;">
<path d="M197.0885 133.4617
L194.6178 136.5107
" />
</g>
<g style="fill:none; 
stroke:#000000; stroke-width:0.8678; stroke-opacity:1; 
stroke-linecap:round; stroke-linejoin:round;">
<path d="M128.5849 162.9607
L129.4263 163.1472
" />
<path d="M151.6538 66.8701
L152.4891 67.0857
" />
<path d="M179.6754 85.7707
L180.1765 86.4731
" />
<path d="M189.0447 117.4006
L188.9918 118.2617
" />
<path d="M81.4145 99.1970
L81.1508 100.2168
" />
</g>
<g style="fill:none; 
stroke:#000000; stroke-width:0.8611; stroke-opacity:1; 
stroke-linecap:round; stroke-linejoin:round;">
<path d="M189.8719 135.8327
L185.5144 133.3248
" />
</g>
<g style="fill:none; 
stroke:#000000; stroke-width:0.8678; stroke-opacity:1; 
stroke-linecap:round; stroke-linejoin:round;">
<path d="M133.6780 163.8591
L134.5350 163.9567
" />
<path d="M143.1469 65.5229
L144.0066 65.5900
" />
<path d="M188.9247 119.1214
L188.8420 119.9797
" />
<path d="M110.6559 154.7902
L111.3583 155.2912
" />
<path d="M188.6318 121.6917
L188.5043 122.5446
" />
<path d="M90.2875 114.8147
L90.2950 113.9523
" />
<path d="M90.8957 122.5446
L90.7682 121.6917
" />
<path d="M198.2492 129.4127
L187.6446 126.7685
" />
<path d="M90.8957 107.0849
L91.0380 106.2347
" />
<path d="M99.7246 85.7707
L100.2371 85.0777
" />
<path d="M159.7979 159.9552
L160.5823 159.5979
" />
<path d="M91.0380 123.3948
L90.8957 122.5446
" />
<path d="M137.5941 54.5095
L136.5419 54.5556
" />
<path d="M177.5519 146.5762
L176.9919 147.2325
" />
<path d="M188.3620 123.3948
L188.2047 124.2430
" />
<path d="M173.3992 78.6768
L174.0250 79.2707
" />
<path d="M149.1282 163.3194
L148.2801 163.4767
" />
<path d="M90.3553 112.2288
L90.4082 111.3678
" />
<path d="M135.3934 65.5900
L136.2531 65.5229
" />
<path d="M91.3676 125.0884
L91.1953 124.2430
" />
<path d="M175.2440 80.4897
L175.8380 81.1155
" />
<path d="M152.4891 162.5438
L153.3196 162.3132
" />
</g>
<g style="fill:none; 
stroke:#000000; stroke-width:0.8611; stroke-opacity:1; 
stroke-linecap:round; stroke-linejoin:round;">
<path d="M81.3922 133.1207
L82.7482 128.3747
" />
</g>
<g style="fill:none; 
stroke:#000000; stroke-width:0.8678; stroke-opacity:1; 
stroke-linecap:round; stroke-linejoin:round;">
<path d="M179.1629 85.0777
L179.6754 85.7707
" />
<path d="M141.8059 175.1199
L142.8581 175.0738
" />
<path d="M175.8380 148.5139
L175.2440 149.1397
" />
<path d="M90.5580 119.9797
L90.4753 119.1214
" />
<path d="M150.8151 162.9607
L149.9737 163.1472
" />
<path d="M172.1178 77.5228
L172.7632 78.0944
" />
<path d="M176.4204 147.8780
L175.8380 148.5139
" />
<path d="M189.0827 113.0906
L189.1050 113.9523
" />
<path d="M104.2319 65.9968
L103.3851 66.6233
" />
<path d="M150.8151 162.9607
L151.6538 162.7594
" />
<path d="M143.9090 175.0094
L143.1469 164.1065
" />
<path d="M160.5823 70.0316
L161.3607 70.4031
" />
<path d="M155.7869 161.5349
L154.9692 161.8088
" />
<path d="M127.7462 66.8701
L128.5849 66.6687
" />
<path d="M159.7979 159.9552
L159.0067 160.2989
" />
<path d="M125.2532 162.0678
L126.0804 162.3132
" />
<path d="M128.5849 66.6687
L129.4263 66.4823
" />
<path d="M124.4308 161.8088
L125.2532 162.0678
" />
<path d="M93.8856 96.3047
L94.2158 95.5081
" />
<path d="M121.1900 160.6291
L121.9920 160.9450
" />
<path d="M151.6538 162.7594
L152.4891 162.5438
" />
<path d="M180.1765 86.4731
L180.6646 87.1836
" />
<path d="M148.2801 163.4767
L149.1282 163.3194
" />
<path d="M114.2507 72.4602
L114.9937 72.0222
" />
<path d="M144.0066 164.0394
L144.8650 163.9567
" />
<path d="M121.1900 69.0004
L121.9920 68.6844
" />
<path d="M188.2047 105.3865
L188.3620 106.2347
" />
<path d="M90.6557 108.7928
L90.7682 107.9378
" />
<path d="M155.7869 68.0946
L156.5998 68.3820
" />
<path d="M111.3583 155.2912
L112.0689 155.7794
" />
<path d="M131.1199 163.4767
L131.9701 163.6191
" />
<path d="M90.5580 109.6497
L90.6557 108.7928
" />
<path d="M143.1469 164.1065
L144.0066 164.0394
" />
<path d="M131.9701 66.0104
L132.8231 65.8829
" />
<path d="M157.4079 68.6844
L158.2100 69.0004
" />
</g>
<g style="fill:none; 
stroke:#000000; stroke-width:0.8611; stroke-opacity:1; 
stroke-linecap:round; stroke-linejoin:round;">
<path d="M194.6178 136.5107
L189.8719 135.8327
" />
</g>
<g style="fill:none; 
stroke:#000000; stroke-width:0.8678; stroke-opacity:1; 
stroke-linecap:round; stroke-linejoin:round;">
<path d="M171.6764 63.6422
L165.8850 72.9104
" />
</g>
<g style="fill:none; 
stroke:#000000; stroke-width:0.8611; stroke-opacity:1; 
stroke-linecap:round; stroke-linejoin:round;">
<path d="M164.1079 168.3766
L162.0739 163.6306
" />
<path d="M84.7822 93.7968
L88.8501 93.7968
" />
<path d="M139.7000 54.4729
L143.0900 55.8289
" />
</g>
<g style="fill:none; 
stroke:#000000; stroke-width:0.8678; stroke-opacity:1; 
stroke-linecap:round; stroke-linejoin:round;">
<path d="M90.7682 107.9378
L90.8957 107.0849
" />
<path d="M144.8650 65.6728
L145.7220 65.7704
" />
<path d="M160.5823 159.5979
L159.7979 159.9552
" />
<path d="M132.8231 65.8829
L133.6780 65.7704
" />
<path d="M90.6557 120.8367
L90.5580 119.9797
" />
<path d="M149.1282 66.3101
L149.9737 66.4823
" />
</g>
<g style="fill:none; 
stroke:#000000; stroke-width:0.8611; stroke-opacity:1; 
stroke-linecap:round; stroke-linejoin:round;">
<path d="M90.8841 135.8327
L83.4262 136.5107
" />
</g>
<g style="fill:none; 
stroke:#000000; stroke-width:0.8678; stroke-opacity:1; 
stroke-linecap:round; stroke-linejoin:round;">
<path d="M144.8650 163.9567
L144.0066 164.0394
" />
<path d="M162.1329 70.7876
L162.8977 71.1862
" />
<path d="M136.2531 164.1065
L137.1141 164.1594
" />
<path d="M189.1050 113.9523
L189.1125 114.8147
" />
<path d="M118.0393 70.4031
L118.8177 70.0316
" />
<path d="M134.5350 65.6728
L135.3934 65.5900
" />
<path d="M144.0066 65.5900
L144.8650 65.6728
" />
<path d="M103.5620 81.1155
L104.1560 80.4897
" />
<path d="M81.9949 97.1725
L81.6959 98.1821
" />
<path d="M150.8151 66.6687
L151.6538 66.8701
" />
<path d="M96.9075 90.1085
L97.3455 89.3654
" />
<path d="M149.9737 66.4823
L150.8151 66.6687
" />
<path d="M183.7272 137.2477
L183.3285 138.0124
" />
<path d="M176.9919 147.2325
L176.4204 147.8780
" />
<path d="M173.4426 64.7893
L172.5646 64.2076
" />
<path d="M94.2158 95.5081
L94.5596 94.7168
" />
<path d="M188.6318 107.9378
L188.7443 108.7928
" />
<path d="M97.3455 89.3654
L97.7957 88.6298
" />
<path d="M103.3851 163.0062
L104.2319 163.6326
" />
<path d="M90.4082 118.2617
L90.3553 117.4006
" />
<path d="M153.3196 162.3132
L152.4891 162.5438
" />
<path d="M189.0447 112.2288
L189.0827 113.0906
" />
<path d="M118.8177 159.5979
L119.6021 159.9552
" />
<path d="M176.9919 82.3969
L177.5519 83.0532
" />
<path d="M97.7957 88.6298
L98.2594 87.9030
" />
<path d="M178.6374 145.2358
L178.1005 145.9111
" />
<path d="M118.8177 70.0316
L119.6021 69.6743
" />
<path d="M148.2801 163.4767
L147.4299 163.6191
" />
<path d="M195.6477 92.2103
L185.5144 96.3047
" />
<path d="M189.1050 115.6771
L189.0827 116.5389
" />
<path d="M182.4925 90.1085
L182.9169 90.8590
" />
<path d="M113.5150 72.9104
L114.2507 72.4602
" />
<path d="M178.6374 84.3936
L179.1629 85.0777
" />
</g>
<g style="fill:none; 
stroke:#000000; stroke-width:0.8611; stroke-opacity:1; 
stroke-linecap:round; stroke-linejoin:round;">
<path d="M174.2779 73.4568
L171.4615 76.9628
" />
</g>
<g style="fill:none; 
stroke:#000000; stroke-width:0.8678; stroke-opacity:1; 
stroke-linecap:round; stroke-linejoin:round;">
<path d="M182.9169 138.7704
L182.4925 139.5210
" />
<path d="M188.0324 125.0884
L187.8460 125.9298
" />
</g>
<g style="fill:none; 
stroke:#000000; stroke-width:0.8611; stroke-opacity:1; 
stroke-linecap:round; stroke-linejoin:round;">
<path d="M139.7000 175.1566
L136.9880 173.8006
" />
</g>
<g style="fill:none; 
stroke:#000000; stroke-width:0.8678; stroke-opacity:1; 
stroke-linecap:round; stroke-linejoin:round;">
<path d="M184.8404 94.7168
L185.1842 95.5081
" />
<path d="M188.0324 104.5410
L188.2047 105.3865
" />
<path d="M153.3196 162.3132
L154.1468 162.0678
" />
<path d="M119.6021 69.6743
L120.3933 69.3306
" />
</g>
<g style="fill:none; 
stroke:#000000; stroke-width:0.8611; stroke-opacity:1; 
stroke-linecap:round; stroke-linejoin:round;">
<path d="M143.7680 60.5749
L143.1469 65.5229
" />
</g>
<g style="fill:none; 
stroke:#000000; stroke-width:0.8678; stroke-opacity:1; 
stroke-linecap:round; stroke-linejoin:round;">
<path d="M152.4891 162.5438
L151.6538 162.7594
" />
<path d="M114.9937 157.6073
L115.7443 158.0317
" />
<path d="M174.6399 79.8748
L175.2440 80.4897
" />
<path d="M130.2718 66.3101
L131.1199 66.1528
" />
<path d="M115.7443 158.0317
L116.5023 158.4432
" />
<path d="M185.5144 133.3248
L185.1842 134.1214
" />
<path d="M106.6367 78.0944
L107.2822 77.5228
" />
<path d="M188.3620 106.2347
L188.5043 107.0849
" />
<path d="M196.0342 93.1900
L195.6477 92.2103
" />
<path d="M115.7443 71.5978
L116.5023 71.1862
" />
<path d="M149.1282 163.3194
L149.9737 163.1472
" />
<path d="M181.1406 141.7265
L180.6646 142.4459
" />
<path d="M126.9109 67.0857
L127.7462 66.8701
" />
<path d="M133.6780 65.7704
L134.5350 65.6728
" />
<path d="M154.1468 162.0678
L153.3196 162.3132
" />
<path d="M101.7253 67.9203
L100.9131 68.5902
" />
<path d="M156.5998 161.2474
L157.4079 160.9450
" />
<path d="M90.3173 113.0906
L90.3553 112.2288
" />
</g>
<g style="fill:none; 
stroke:#000000; stroke-width:0.8611; stroke-opacity:1; 
stroke-linecap:round; stroke-linejoin:round;">
<path d="M136.3100 171.0886
L137.1141 164.1594
" />
<path d="M82.7482 128.3747
L91.7554 126.7685
" />
</g>
<g style="fill:none; 
stroke:#000000; stroke-width:0.8678; stroke-opacity:1; 
stroke-linecap:round; stroke-linejoin:round;">
<path d="M185.1842 95.5081
L185.5144 96.3047
" />
<path d="M158.2100 160.6291
L159.0067 160.2989
" />
<path d="M90.4753 119.1214
L90.4082 118.2617
" />
<path d="M184.1116 136.4754
L183.7272 137.2477
" />
<path d="M116.5023 158.4432
L117.2671 158.8419
" />
<path d="M105.3750 79.2707
L106.0008 78.6768
" />
<path d="M121.9920 68.6844
L122.8002 68.3820
" />
<path d="M196.7542 95.1691
L196.4030 94.1765
" />
<path d="M189.0827 116.5389
L189.0447 117.4006
" />
<path d="M132.8231 163.7465
L133.6780 163.8591
" />
<path d="M117.2671 158.8419
L118.0393 159.2263
" />
<path d="M184.4831 93.9324
L184.8404 94.7168
" />
<path d="M154.1468 162.0678
L154.9692 161.8088
" />
<path d="M101.8480 83.0532
L102.4081 82.3969
" />
<path d="M100.7626 84.3936
L101.2995 83.7184
" />
<path d="M159.0067 160.2989
L158.2100 160.6291
" />
<path d="M158.2100 160.6291
L157.4079 160.9450
" />
<path d="M117.2671 70.7876
L118.0393 70.4031
" />
<path d="M181.6043 88.6298
L182.0545 89.3654
" />
<path d="M197.7041 131.4474
L197.9855 130.4324
" />
<path d="M151.6538 162.7594
L150.8151 162.9607
" />
<path d="M175.8380 81.1155
L176.4204 81.7515
" />
<path d="M189.1125 114.8147
L189.1050 115.6771
" />
<path d="M176.4204 81.7515
L176.9919 82.3969
" />
<path d="M174.3104 65.3853
L173.4426 64.7893
" />
<path d="M188.9247 110.5081
L188.9918 111.3678
" />
<path d="M96.4830 90.8590
L96.9075 90.1085
" />
<path d="M144.0066 164.0394
L143.1469 164.1065
" />
<path d="M184.1116 93.1540
L184.4831 93.9324
" />
<path d="M188.8420 119.9797
L188.7443 120.8367
" />
<path d="M90.2950 115.6771
L90.2875 114.8147
" />
<path d="M98.7354 87.1836
L99.2235 86.4731
" />
<path d="M180.6646 142.4459
L180.1765 143.1564
" />
<path d="M81.1508 100.2168
L91.7554 102.8609
" />
<path d="M142.8581 175.0738
L143.9090 175.0094
" />
<path d="M73.2487 80.9562
L72.6684 82.1210
" />
<path d="M67.0315 131.5918
L67.3352 132.8569
" />
<path d="M198.4695 68.8987
L197.6593 67.8803
" />
<path d="M73.2487 148.6733
L73.8501 149.8279
" />
<path d="M153.9305 188.0243
L155.2058 187.7646
" />
<path d="M134.4977 189.2128
L135.7968 189.2921
" />
<path d="M175.8570 49.5859
L174.7132 48.9648
" />
<path d="M104.6868 48.9648
L103.5430 49.5859
" />
<path d="M105.8415 181.2660
L107.0063 181.8464
" />
<path d="M96.9231 53.7224
L95.8634 54.4783
" />
<path d="M116.6535 43.8853
L115.4195 44.2982
" />
<path d="M68.7706 91.7682
L68.3787 93.0096
" />
<path d="M65.1656 112.2119
L65.1317 113.5130
" />
<path d="M67.6613 95.5121
L67.3352 96.7725
" />
<path d="M181.4043 176.6441
L182.4769 175.9071
" />
<path d="M69.6181 89.3071
L69.1835 90.5343
" />
<path d="M214.0981 120.0170
L214.1774 118.7180
" />
<path d="M156.4771 187.4832
L157.7422 187.1795
" />
<path d="M77.8706 156.5191
L78.6076 157.5917
" />
<path d="M103.5430 49.5859
L102.4101 50.2266
" />
<path d="M138.3982 189.3830
L139.7000 189.3945
" />
<path d="M206.1513 80.9562
L205.5499 79.8016
" />
<path d="M150.0795 188.6684
L149.1357 181.9548
" />
<path d="M148.7892 188.8386
L150.0795 188.6684
" />
<path d="M212.6499 99.3089
L212.3685 98.0377
" />
<path d="M211.0213 136.6198
L211.3908 135.3716
" />
<path d="M135.7968 189.2921
L137.0972 189.3491
" />
<path d="M174.7132 180.6646
L175.8570 180.0436
" />
<path d="M199.2621 69.9313
L198.4695 68.8987
" />
<path d="M124.1942 41.8649
L122.9229 42.1462
" />
<path d="M79.3636 70.9781
L78.6076 72.0378
" />
<path d="M80.1379 159.6982
L80.9304 160.7308
" />
<path d="M198.4695 160.7308
L199.2621 159.6982
" />
<path d="M206.7316 147.5085
L207.2923 146.3335
" />
<path d="M83.4140 163.7431
L84.2764 164.7181
" />
<path d="M162.7465 43.8853
L161.5051 43.4934
" />
<path d="M77.8706 73.1104
L77.1520 74.1959
" />
<path d="M211.3908 135.3716
L211.7386 134.1173
" />
<path d="M87.8928 61.1668
L86.9640 62.0787
" />
<path d="M90.7716 58.5287
L89.7966 59.3911
" />
<path d="M143.6032 40.3373
L142.3028 40.2804
" />
<path d="M180.3189 177.3628
L181.4043 176.6441
" />
<path d="M75.1119 152.1046
L75.7729 153.2260
" />
<path d="M65.8463 104.4353
L65.6762 105.7255
" />
<path d="M185.6161 56.0452
L184.5835 55.2526
" />
<path d="M173.5585 48.3635
L172.3937 47.7831
" />
<path d="M161.5051 186.1361
L162.7465 185.7442
" />
<path d="M152.6504 41.3679
L151.3670 41.1530
" />
<path d="M205.5499 149.8279
L206.1513 148.6733
" />
<path d="M85.1557 63.9513
L84.2764 64.9114
" />
<path d="M192.4360 62.0787
L191.5072 61.1668
" />
<path d="M206.7316 82.1210
L200.6378 85.0933
" />
<path d="M166.4267 45.1884
L165.2076 44.7328
" />
<path d="M195.9860 163.7431
L196.8315 162.7539
" />
<path d="M65.2226 118.7180
L65.3019 120.0170
" />
<path d="M133.2000 189.1104
L134.4977 189.2128
" />
<path d="M69.1835 90.5343
L68.7706 91.7682
" />
<path d="M100.1788 178.0618
L103.7715 172.3124
" />
<path d="M65.6762 123.9040
L65.8463 125.1942
" />
<path d="M70.5510 86.8765
L70.0737 88.0880
" />
<path d="M76.4530 154.3359
L77.1520 155.4336
" />
<path d="M85.1557 165.6781
L86.0520 166.6219
" />
<path d="M71.5680 84.4804
L71.0486 85.6744
" />
<path d="M101.2887 50.8877
L100.1788 51.5677
" />
<path d="M144.9023 40.4166
L143.6032 40.3373
" />
<path d="M122.9229 42.1462
L121.6578 42.4500
" />
<path d="M209.3263 141.5414
L209.7819 140.3224
" />
<path d="M213.7238 105.7255
L213.5536 104.4353
" />
<path d="M208.8490 86.8765
L208.3514 85.6744
" />
<path d="M129.3205 40.9611
L128.0330 41.1530
" />
<path d="M150.0795 40.9611
L148.7892 40.7909
" />
<path d="M142.3028 40.2804
L141.0018 40.2465
" />
<path d="M119.1431 43.1239
L117.8949 43.4934
" />
<path d="M194.2443 165.6781
L195.1236 164.7181
" />
<path d="M68.0092 135.3716
L68.3787 136.6198
" />
<path d="M70.0737 141.5414
L70.5510 142.7530
" />
<path d="M108.1812 182.4071
L109.3657 182.9468
" />
<path d="M204.2881 77.5248
L203.6271 76.4034
" />
<path d="M134.4977 40.4166
L133.2000 40.5190
" />
<path d="M65.5290 122.6104
L65.6762 123.9040
" />
<path d="M65.1656 117.4176
L65.2226 118.7180
" />
<path d="M107.0063 47.7831
L105.8415 48.3635
" />
<path d="M212.9095 129.0452
L213.1468 127.7652
" />
<path d="M184.5835 174.3769
L185.6161 173.5843
" />
<path d="M212.0648 96.7725
L211.7386 95.5121
" />
<path d="M66.0382 126.4817
L66.2531 127.7652
" />
<path d="M195.9860 65.8863
L195.1236 64.9114
" />
<path d="M66.4904 100.5842
L66.2531 101.8643
" />
<path d="M121.6578 42.4500
L120.3974 42.7761
" />
<path d="M151.3670 188.4765
L152.6504 188.2616
" />
<path d="M75.7729 153.2260
L76.4530 154.3359
" />
<path d="M137.0972 40.2804
L135.7968 40.3373
" />
<path d="M207.2923 146.3335
L207.8320 145.1490
" />
<path d="M66.7501 99.3089
L66.4904 100.5842
" />
<path d="M86.9640 62.0787
L86.0520 63.0075
" />
<path d="M197.6593 161.7491
L198.4695 160.7308
" />
<path d="M87.8928 61.1668
L92.6022 66.0436
" />
<path d="M95.8634 175.1511
L96.9231 175.9071
" />
<path d="M65.5290 107.0191
L65.4043 108.3148
" />
<path d="M202.2480 74.1959
L201.5294 73.1104
" />
<path d="M210.6294 137.8612
L211.0213 136.6198
" />
<path d="M128.0330 188.4765
L129.3205 188.6684
" />
<path d="M110.5596 183.4661
L111.7617 183.9637
" />
<path d="M97.9957 52.9854
L96.9231 53.7224
" />
<path d="M191.5072 168.4627
L186.7978 163.5858
" />
<path d="M74.4712 78.6578
L73.8501 79.8016
" />
<path d="M75.1119 77.5248
L74.4712 78.6578
" />
<path d="M67.6613 134.1173
L68.0092 135.3716
" />
<path d="M83.4140 65.8863
L82.5685 66.8755
" />
<path d="M114.1924 44.7328
L112.9733 45.1884
" />
<path d="M66.7501 130.3205
L67.0315 131.5918
" />
<path d="M191.5072 61.1668
L190.5634 60.2705
" />
<path d="M119.1431 186.5056
L120.3974 186.8534
" />
<path d="M91.7608 57.6832
L90.7716 58.5287
" />
<path d="M139.7000 40.2349
L138.3982 40.2465
" />
<path d="M206.7316 82.1210
L206.1513 80.9562
" />
<path d="M171.2188 47.2224
L170.0343 46.6827
" />
<path d="M117.8949 186.1361
L119.1431 186.5056
" />
<path d="M65.1202 114.8147
L65.1317 116.1165
" />
<path d="M210.2165 139.0952
L210.6294 137.8612
" />
<path d="M88.8366 60.2705
L87.8928 61.1668
" />
<path d="M213.1468 101.8643
L212.9095 100.5842
" />
<path d="M213.9957 121.3147
L214.0981 120.0170
" />
<path d="M208.3514 143.9551
L208.8490 142.7530
" />
<path d="M168.8404 183.4661
L170.0343 182.9468
" />
<path d="M206.1513 148.6733
L206.7316 147.5085
" />
<path d="M68.3787 93.0096
L68.0092 94.2578
" />
<path d="M90.7716 171.1008
L91.7608 171.9462
" />
<path d="M91.7608 171.9462
L92.7656 172.7741
" />
<path d="M92.7656 172.7741
L93.7839 173.5843
" />
<path d="M139.7000 189.3945
L141.0018 189.3830
" />
<path d="M162.7465 185.7442
L163.9805 185.3313
" />
<path d="M130.6108 188.8386
L131.9044 188.9857
" />
<path d="M71.0486 143.9551
L71.5680 145.1490
" />
<path d="M161.5051 43.4934
L160.2569 43.1239
" />
<path d="M73.8501 79.8016
L73.2487 80.9562
" />
<path d="M84.2764 64.9114
L83.4140 65.8863
" />
<path d="M163.9805 185.3313
L165.2076 184.8967
" />
<path d="M184.5835 55.2526
L183.5366 54.4783
" />
<path d="M170.0343 182.9468
L171.2188 182.4071
" />
<path d="M81.7407 161.7491
L82.5685 162.7539
" />
<path d="M187.6392 57.6832
L186.6344 56.8554
" />
<path d="M130.6108 40.7909
L129.3205 40.9611
" />
<path d="M77.1520 74.1959
L76.4530 75.2935
" />
<path d="M114.1924 184.8967
L115.4195 185.3313
" />
<path d="M110.5596 46.1634
L109.3657 46.6827
" />
<path d="M66.0382 103.1477
L65.8463 104.4353
" />
<path d="M212.0648 132.8569
L212.3685 131.5918
" />
<path d="M121.6578 187.1795
L122.9229 187.4832
" />
<path d="M195.1236 64.9114
L194.2443 63.9513
" />
<path d="M193.3479 63.0075
L192.4360 62.0787
" />
<path d="M205.5499 79.8016
L204.9288 78.6578
" />
<path d="M66.2531 127.7652
L66.4904 129.0452
" />
<path d="M202.9470 75.2935
L202.2480 74.1959
" />
<path d="M191.5072 168.4627
L192.4360 167.5508
" />
<path d="M213.3618 126.4817
L213.5536 125.1942
" />
<path d="M108.1812 47.2224
L107.0063 47.7831
" />
<path d="M148.7892 40.7909
L147.4956 40.6438
" />
<path d="M79.3636 158.6514
L80.1379 159.6982
" />
<path d="M214.1774 110.9115
L214.0981 109.6125
" />
<path d="M125.4695 188.0243
L126.7496 188.2616
" />
<path d="M133.2000 40.5190
L131.9044 40.6438
" />
<path d="M117.8949 43.4934
L116.6535 43.8853
" />
<path d="M174.7132 48.9648
L171.5300 54.9509
" />
<path d="M211.0213 93.0096
L210.6294 91.7682
" />
<path d="M153.9305 41.6052
L152.6504 41.3679
" />
<path d="M96.9231 175.9071
L97.9957 176.6441
" />
<path d="M120.3974 42.7761
L119.1431 43.1239
" />
<path d="M146.2000 189.1104
L147.4956 188.9857
" />
<path d="M176.9899 50.2266
L175.8570 49.5859
" />
<path d="M70.5510 142.7530
L76.8374 140.2132
" />
<path d="M129.3205 40.9611
L130.2643 47.6746
" />
<path d="M128.0330 41.1530
L126.7496 41.3679
" />
<path d="M160.2569 43.1239
L159.0026 42.7761
" />
<path d="M202.9470 154.3359
L203.6271 153.2260
" />
<path d="M200.7924 157.5917
L201.5294 156.5191
" />
<path d="M67.0315 98.0377
L66.7501 99.3089
" />
<path d="M209.7819 89.3071
L209.3263 88.0880
" />
<path d="M68.7706 137.8612
L69.1835 139.0952
" />
<path d="M204.9288 78.6578
L204.2881 77.5248
" />
<path d="M179.2212 51.5677
L178.1113 50.8877
" />
<path d="M214.0981 109.6125
L213.9957 108.3148
" />
<path d="M213.8709 107.0191
L213.7238 105.7255
" />
<path d="M213.8709 122.6104
L213.9957 121.3147
" />
<path d="M167.6383 45.6657
L166.4267 45.1884
" />
<path d="M159.0026 42.7761
L157.7422 42.4500
" />
<path d="M69.6181 140.3224
L70.0737 141.5414
" />
<path d="M115.4195 44.2982
L114.1924 44.7328
" />
<path d="M100.1788 51.5677
L99.0811 52.2667
" />
<path d="M75.7729 76.4034
L75.1119 77.5248
" />
<path d="M86.0520 166.6219
L86.9640 167.5508
" />
<path d="M190.5634 169.3590
L191.5072 168.4627
" />
<path d="M97.9957 176.6441
L99.0811 177.3628
" />
<path d="M68.3787 136.6198
L68.7706 137.8612
" />
<path d="M209.3263 88.0880
L208.8490 86.8765
" />
<path d="M143.6032 189.2921
L144.9023 189.2128
" />
<path d="M86.0520 63.0075
L85.1557 63.9513
" />
<path d="M157.7422 187.1795
L159.0026 186.8534
" />
<path d="M207.2923 83.2960
L206.7316 82.1210
" />
<path d="M68.0092 94.2578
L67.6613 95.5121
" />
<path d="M200.0364 70.9781
L199.2621 69.9313
" />
<path d="M182.4769 53.7224
L181.4043 52.9854
" />
<path d="M116.6535 185.7442
L117.8949 186.1361
" />
<path d="M102.4101 50.2266
L101.2887 50.8877
" />
<path d="M203.6271 76.4034
L202.9470 75.2935
" />
<path d="M67.3352 132.8569
L67.6613 134.1173
" />
<path d="M204.2881 152.1046
L204.9288 150.9717
" />
<path d="M203.6271 153.2260
L204.2881 152.1046
" />
<path d="M87.8928 168.4627
L88.8366 169.3590
" />
<path d="M159.0026 186.8534
L160.2569 186.5056
" />
<path d="M212.3685 131.5918
L212.6499 130.3205
" />
<path d="M78.6076 72.0378
L77.8706 73.1104
" />
<path d="M213.5536 125.1942
L213.7238 123.9040
" />
<path d="M201.5294 73.1104
L200.7924 72.0378
" />
<path d="M66.2531 101.8643
L66.0382 103.1477
" />
<path d="M168.8404 46.1634
L167.6383 45.6657
" />
<path d="M214.2344 117.4176
L214.2683 116.1165
" />
<path d="M199.2621 159.6982
L200.0364 158.6514
" />
<path d="M131.9044 40.6438
L130.6108 40.7909
" />
<path d="M141.0018 189.3830
L142.3028 189.3491
" />
<path d="M112.9733 184.4411
L114.1924 184.8967
" />
<path d="M151.3670 41.1530
L150.0795 40.9611
" />
<path d="M180.3189 52.2667
L179.2212 51.5677
" />
<path d="M213.5536 104.4353
L213.3618 103.1477
" />
<path d="M65.6762 105.7255
L65.5290 107.0191
" />
<path d="M89.7966 170.2384
L90.7716 171.1008
" />
<path d="M72.6684 82.1210
L72.1077 83.2960
" />
<path d="M210.2165 90.5343
L209.7819 89.3071
" />
<path d="M201.5294 156.5191
L202.2480 155.4336
" />
<path d="M65.4043 121.3147
L65.5290 122.6104
" />
<path d="M181.4043 52.9854
L180.3189 52.2667
" />
<path d="M104.6868 180.6646
L105.8415 181.2660
" />
<path d="M171.2188 182.4071
L172.3937 181.8464
" />
<path d="M80.1379 69.9313
L79.3636 70.9781
" />
<path d="M101.2887 178.7418
L102.4101 179.4029
" />
<path d="M95.8634 54.4783
L94.8165 55.2526
" />
<path d="M78.6076 157.5917
L79.3636 158.6514
" />
<path d="M72.6684 147.5085
L73.2487 148.6733
" />
<path d="M76.4530 75.2935
L75.7729 76.4034
" />
<path d="M193.3479 166.6219
L194.2443 165.6781
" />
<path d="M156.4771 42.1462
L155.2058 41.8649
" />
<path d="M192.4360 167.5508
L193.3479 166.6219
" />
<path d="M82.5685 66.8755
L81.7407 67.8803
" />
<path d="M70.5510 142.7530
L71.0486 143.9551
" />
<path d="M202.2480 155.4336
L202.9470 154.3359
" />
<path d="M196.8315 162.7539
L197.6593 161.7491
" />
<path d="M185.6161 173.5843
L186.6344 172.7741
" />
<path d="M190.5634 60.2705
L189.6034 59.3911
" />
<path d="M129.3205 188.6684
L130.6108 188.8386
" />
<path d="M210.6294 91.7682
L210.2165 90.5343
" />
<path d="M141.0018 40.2465
L139.7000 40.2349
" />
<path d="M155.2058 187.7646
L156.4771 187.4832
" />
<path d="M99.0811 52.2667
L97.9957 52.9854
" />
<path d="M174.7132 48.9648
L173.5585 48.3635
" />
<path d="M167.6383 183.9637
L168.8404 183.4661
" />
<path d="M165.2076 184.8967
L166.4267 184.4411
" />
<path d="M84.2764 164.7181
L85.1557 165.6781
" />
<path d="M187.6392 171.9462
L188.6284 171.1008
" />
<path d="M188.6284 171.1008
L189.6034 170.2384
" />
<path d="M213.1468 127.7652
L213.3618 126.4817
" />
<path d="M65.4043 108.3148
L65.3019 109.6125
" />
<path d="M212.9095 100.5842
L212.6499 99.3089
" />
<path d="M137.0972 189.3491
L138.3982 189.3830
" />
<path d="M77.1520 155.4336
L77.8706 156.5191
" />
<path d="M92.7656 56.8554
L91.7608 57.6832
" />
<path d="M65.3019 120.0170
L65.4043 121.3147
" />
<path d="M100.1788 178.0618
L101.2887 178.7418
" />
<path d="M71.0486 85.6744
L70.5510 86.8765
" />
<path d="M72.1077 83.2960
L71.5680 84.4804
" />
<path d="M111.7617 45.6657
L110.5596 46.1634
" />
<path d="M189.6034 170.2384
L190.5634 169.3590
" />
<path d="M186.6344 172.7741
L187.6392 171.9462
" />
<path d="M71.5680 145.1490
L72.1077 146.3335
" />
<path d="M176.9899 179.4029
L178.1113 178.7418
" />
<path d="M197.6593 67.8803
L196.8315 66.8755
" />
<path d="M80.9304 68.8987
L80.1379 69.9313
" />
<path d="M182.4769 175.9071
L183.5366 175.1511
" />
<path d="M69.1835 139.0952
L69.6181 140.3224
" />
<path d="M157.7422 42.4500
L156.4771 42.1462
" />
<path d="M152.6504 188.2616
L153.9305 188.0243
" />
<path d="M147.4956 188.9857
L148.7892 188.8386
" />
<path d="M135.7968 40.3373
L134.4977 40.4166
" />
<path d="M214.1774 118.7180
L214.2344 117.4176
" />
<path d="M163.9805 44.2982
L162.7465 43.8853
" />
<path d="M67.3352 96.7725
L67.0315 98.0377
" />
<path d="M142.3028 189.3491
L143.6032 189.2921
" />
<path d="M111.7617 183.9637
L112.9733 184.4411
" />
<path d="M214.2683 113.5130
L214.2344 112.2119
" />
<path d="M213.7238 123.9040
L213.8709 122.6104
" />
<path d="M72.1077 146.3335
L72.6684 147.5085
" />
<path d="M212.6499 130.3205
L212.9095 129.0452
" />
<path d="M214.2683 116.1165
L214.2798 114.8147
" />
<path d="M160.2569 186.5056
L161.5051 186.1361
" />
<path d="M126.7496 188.2616
L128.0330 188.4765
" />
<path d="M214.2344 112.2119
L214.1774 110.9115
" />
<path d="M213.9957 108.3148
L213.8709 107.0191
" />
<path d="M70.0737 88.0880
L69.6181 89.3071
" />
<path d="M207.8320 84.4804
L207.2923 83.2960
" />
<path d="M196.8315 66.8755
L195.9860 65.8863
" />
<path d="M86.9640 167.5508
L87.8928 168.4627
" />
<path d="M208.3514 85.6744
L207.8320 84.4804
" />
<path d="M183.5366 175.1511
L184.5835 174.3769
" />
</g>
<g style="fill:none; 
stroke:#000000; stroke-width:0.8611; stroke-opacity:1; 
stroke-linecap:round; stroke-linejoin:round;">
<path d="M213.1468 127.7652
L202.7972 125.9407
" />
</g>
<g style="fill:none; 
stroke:#000000; stroke-width:0.8678; stroke-opacity:1; 
stroke-linecap:round; stroke-linejoin:round;">
<path d="M208.8490 142.7530
L209.3263 141.5414
" />
<path d="M138.3982 40.2465
L137.0972 40.2804
" />
<path d="M93.7839 173.5843
L94.8165 174.3769
" />
<path d="M186.6344 56.8554
L185.6161 56.0452
" />
<path d="M65.1317 113.5130
L65.1202 114.8147
" />
<path d="M126.7496 41.3679
L125.4695 41.6052
" />
<path d="M195.1236 164.7181
L195.9860 163.7431
" />
<path d="M204.9288 150.9717
L205.5499 149.8279
" />
<path d="M80.9304 160.7308
L81.7407 161.7491
" />
<path d="M173.5585 181.2660
L174.7132 180.6646
" />
<path d="M65.8463 125.1942
L66.0382 126.4817
" />
<path d="M209.7819 140.3224
L210.2165 139.0952
" />
<path d="M175.8570 180.0436
L176.9899 179.4029
" />
<path d="M147.4956 40.6438
L146.2000 40.5190
" />
<path d="M172.3937 47.7831
L171.2188 47.2224
" />
<path d="M178.1113 50.8877
L176.9899 50.2266
" />
<path d="M65.2226 110.9115
L65.1656 112.2119
" />
<path d="M107.0063 181.8464
L108.1812 182.4071
" />
<path d="M66.4904 129.0452
L66.7501 130.3205
" />
<path d="M103.5430 180.0436
L104.6868 180.6646
" />
<path d="M165.2076 44.7328
L163.9805 44.2982
" />
<path d="M74.4712 150.9717
L75.1119 152.1046
" />
<path d="M212.3685 98.0377
L212.0648 96.7725
" />
<path d="M188.6284 58.5287
L187.6392 57.6832
" />
<path d="M65.1317 116.1165
L65.1656 117.4176
" />
<path d="M94.8165 55.2526
L93.7839 56.0452
" />
<path d="M65.3019 109.6125
L65.2226 110.9115
" />
<path d="M146.2000 40.5190
L144.9023 40.4166
" />
<path d="M93.7839 56.0452
L92.7656 56.8554
" />
<path d="M155.2058 41.8649
L153.9305 41.6052
" />
<path d="M214.2798 114.8147
L214.2683 113.5130
" />
<path d="M99.0811 177.3628
L100.1788 178.0618
" />
<path d="M115.4195 185.3313
L116.6535 185.7442
" />
<path d="M150.0795 188.6684
L151.3670 188.4765
" />
<path d="M183.5366 54.4783
L182.4769 53.7224
" />
<path d="M166.4267 184.4411
L167.6383 183.9637
" />
<path d="M144.9023 189.2128
L146.2000 189.1104
" />
<path d="M194.2443 63.9513
L193.3479 63.0075
" />
<path d="M82.5685 162.7539
L83.4140 163.7431
" />
<path d="M109.3657 46.6827
L108.1812 47.2224
" />
<path d="M112.9733 45.1884
L111.7617 45.6657
" />
<path d="M211.3908 94.2578
L211.0213 93.0096
" />
<path d="M109.3657 182.9468
L110.5596 183.4661
" />
<path d="M131.9044 188.9857
L133.2000 189.1104
" />
<path d="M179.2212 178.0618
L180.3189 177.3628
" />
<path d="M120.3974 186.8534
L121.6578 187.1795
" />
<path d="M102.4101 179.4029
L103.5430 180.0436
" />
<path d="M213.1468 127.7652
L206.4699 126.5882
" />
<path d="M125.4695 41.6052
L124.1942 41.8649
" />
<path d="M172.3937 181.8464
L173.5585 181.2660
" />
<path d="M94.8165 174.3769
L95.8634 175.1511
" />
<path d="M122.9229 187.4832
L124.1942 187.7646
" />
<path d="M200.7924 72.0378
L200.0364 70.9781
" />
<path d="M189.6034 59.3911
L188.6284 58.5287
" />
<path d="M124.1942 187.7646
L125.4695 188.0243
" />
<path d="M105.8415 48.3635
L104.6868 48.9648
" />
<path d="M211.7386 95.5121
L211.3908 94.2578
" />
<path d="M178.1113 178.7418
L179.2212 178.0618
" />
<path d="M88.8366 169.3590
L89.7966 170.2384
" />
<path d="M207.8320 145.1490
L208.3514 143.9551
" />
<path d="M81.7407 67.8803
L80.9304 68.8987
" />
<path d="M170.0343 46.6827
L168.8404 46.1634
" />
<path d="M200.0364 158.6514
L200.7924 157.5917
" />
<path d="M213.3618 103.1477
L213.1468 101.8643
" />
<path d="M73.8501 149.8279
L74.4712 150.9717
" />
<path d="M211.7386 134.1173
L212.0648 132.8569
" />
<path d="M89.7966 59.3911
L88.8366 60.2705
" />
</g>
<g style="fill:#FFFFFF; fill-opacity:1.0000; stroke:none;">
<circle cx="181.6132" cy="128.4330" r="0.6780" /> 
<circle cx="175.3532" cy="140.7183" r="0.6780" /> 
<circle cx="126.0817" cy="156.7279" r="0.6780" /> 
<circle cx="126.0817" cy="72.9016" r="0.6780" /> 
<circle cx="153.3183" cy="156.7279" r="0.6780" /> 
<circle cx="183.7699" cy="114.8147" r="0.6780" /> 
<circle cx="113.7964" cy="150.4679" r="0.6780" /> 
<circle cx="165.6036" cy="150.4679" r="0.6780" /> 
<circle cx="139.7000" cy="158.8846" r="0.6780" /> 
<circle cx="139.7000" cy="70.7449" r="0.6780" /> 
<circle cx="76.8374" cy="89.4162" r="0.6780" /> 
<circle cx="103.7715" cy="57.3171" r="0.6780" /> 
<circle cx="144.4297" cy="47.1804" r="0.6780" /> 
<circle cx="77.5323" cy="130.3151" r="0.6780" /> 
<circle cx="199.1055" cy="138.8159" r="0.6780" /> 
<circle cx="135.2306" cy="178.7296" r="0.6780" /> 
<circle cx="98.5164" cy="163.8957" r="0.6780" /> 
<circle cx="180.8836" cy="65.7338" r="0.6780" /> 
<circle cx="183.2810" cy="62.8774" r="0.6780" /> 
<circle cx="201.8677" cy="99.3143" r="0.6780" /> 
<circle cx="96.1190" cy="166.7521" r="0.6780" /> 
<circle cx="80.2945" cy="90.8136" r="0.6780" /> 
<circle cx="144.1694" cy="50.8999" r="0.6780" /> 
<circle cx="181.6132" cy="101.1965" r="0.6780" /> 
<circle cx="202.5626" cy="140.2132" r="0.6780" /> 
<circle cx="134.9703" cy="182.4491" r="0.6780" /> 
<circle cx="73.9138" cy="131.2169" r="0.6780" /> 
<circle cx="205.4861" cy="98.4126" r="0.6780" /> 
<circle cx="105.7479" cy="60.4793" r="0.6780" /> 
<circle cx="85.8581" cy="97.3203" r="0.6780" /> 
<circle cx="179.5520" cy="169.6661" r="0.6780" /> 
<circle cx="97.7868" cy="128.4330" r="0.6780" /> 
<circle cx="179.5520" cy="59.9633" r="0.6780" /> 
<circle cx="204.1817" cy="135.7662" r="0.6780" /> 
<circle cx="172.9761" cy="160.6155" r="0.6780" /> 
<circle cx="139.7000" cy="58.2019" r="0.6780" /> 
<circle cx="106.4239" cy="69.0139" r="0.6780" /> 
<circle cx="75.2183" cy="135.7662" r="0.6780" /> 
<circle cx="172.9761" cy="69.0139" r="0.6780" /> 
<circle cx="193.5419" cy="97.3203" r="0.6780" /> 
<circle cx="193.5419" cy="132.3091" r="0.6780" /> 
<circle cx="85.8581" cy="132.3091" r="0.6780" /> 
<circle cx="139.7000" cy="171.4276" r="0.6780" /> 
<circle cx="204.1817" cy="93.8632" r="0.6780" /> 
<circle cx="99.8480" cy="59.9633" r="0.6780" /> 
<circle cx="139.7000" cy="47.0149" r="0.6780" /> 
<circle cx="75.2183" cy="93.8632" r="0.6780" /> 
<circle cx="139.7000" cy="182.6145" r="0.6780" /> 
<circle cx="96.1190" cy="62.8774" r="0.6780" /> 
<circle cx="171.6764" cy="63.6422" r="0.6780" /> 
<circle cx="178.4869" cy="161.0393" r="0.6780" /> 
<circle cx="175.6285" cy="57.3171" r="0.6780" /> 
<circle cx="100.9131" cy="68.5902" r="0.6780" /> 
<circle cx="73.9138" cy="98.4126" r="0.6780" /> 
<circle cx="205.4861" cy="131.2169" r="0.6780" /> 
<circle cx="202.5626" cy="89.4162" r="0.6780" /> 
<circle cx="135.4910" cy="54.6200" r="0.6780" /> 
<circle cx="99.8480" cy="169.6661" r="0.6780" /> 
<circle cx="183.2810" cy="166.7521" r="0.6780" /> 
<circle cx="104.0468" cy="140.7183" r="0.6780" /> 
<circle cx="81.1508" cy="100.2168" r="0.6780" /> 
<circle cx="144.4297" cy="182.4491" r="0.6780" /> 
<circle cx="134.9703" cy="47.1804" r="0.6780" /> 
<circle cx="195.6477" cy="92.2103" r="0.6780" /> 
<circle cx="104.2319" cy="163.6326" r="0.6780" /> 
<circle cx="198.2492" cy="129.4127" r="0.6780" /> 
<circle cx="143.9090" cy="175.0094" r="0.6780" /> 
<circle cx="171.5300" cy="54.9509" r="0.6780" /> 
<circle cx="202.7972" cy="125.9407" r="0.6780" /> 
<circle cx="175.3532" cy="88.9111" r="0.6780" /> 
<circle cx="200.6378" cy="85.0933" r="0.6780" /> 
<circle cx="76.8374" cy="140.2132" r="0.6780" /> 
<circle cx="130.2643" cy="47.6746" r="0.6780" /> 
<circle cx="92.6022" cy="66.0436" r="0.6780" /> 
<circle cx="186.7978" cy="163.5858" r="0.6780" /> 
<circle cx="149.1357" cy="181.9548" r="0.6780" /> 
<circle cx="103.7715" cy="172.3124" r="0.6780" /> 
<circle cx="72.9301" cy="103.0413" r="0.6780" /> 
<circle cx="198.4167" cy="80.9148" r="0.6780" /> 
<circle cx="107.8700" cy="174.6786" r="0.6780" /> 
<circle cx="78.7622" cy="144.5361" r="0.6780" /> 
<circle cx="190.0847" cy="160.1816" r="0.6780" /> 
<circle cx="207.1283" cy="121.9018" r="0.6780" /> 
<circle cx="151.4707" cy="170.1902" r="0.6780" /> 
<circle cx="167.2769" cy="52.8762" r="0.6780" /> 
<circle cx="125.6037" cy="48.4964" r="0.6780" /> 
<circle cx="127.9293" cy="59.4392" r="0.6780" /> 
<circle cx="88.8169" cy="139.6322" r="0.6780" /> 
<circle cx="181.7718" cy="152.6958" r="0.6780" /> 
<circle cx="188.7281" cy="86.5083" r="0.6780" /> 
<circle cx="162.7268" cy="63.0964" r="0.6780" /> 
<circle cx="97.7868" cy="101.1965" r="0.6780" /> 
<circle cx="85.4602" cy="104.6448" r="0.6780" /> 
<circle cx="153.7963" cy="181.1331" r="0.6780" /> 
<circle cx="113.1218" cy="164.8008" r="0.6780" /> 
<circle cx="196.0030" cy="120.7323" r="0.6780" /> 
<circle cx="158.3883" cy="179.9880" r="0.6780" /> 
<circle cx="87.4426" cy="144.9856" r="0.6780" /> 
<circle cx="112.1231" cy="176.7532" r="0.6780" /> 
<circle cx="207.4584" cy="117.1809" r="0.6780" /> 
<circle cx="162.8889" cy="51.1039" r="0.6780" /> 
<circle cx="193.1269" cy="156.5564" r="0.6780" /> 
<circle cx="115.1565" cy="169.9400" r="0.6780" /> 
<circle cx="80.9833" cy="148.7146" r="0.6780" /> 
<circle cx="195.9087" cy="76.9018" r="0.6780" /> 
<circle cx="189.7254" cy="81.0721" r="0.6780" /> 
<circle cx="156.3326" cy="172.8188" r="0.6780" /> 
<circle cx="94.8572" cy="74.4379" r="0.6780" /> 
<circle cx="72.2717" cy="107.7276" r="0.6780" /> 
<circle cx="187.2500" cy="151.9650" r="0.6780" /> 
<circle cx="200.0052" cy="116.9206" r="0.6780" /> 
<circle cx="89.3153" cy="69.4478" r="0.6780" /> 
<circle cx="160.3383" cy="58.1117" r="0.6780" /> 
<circle cx="104.0468" cy="88.9111" r="0.6780" /> 
<circle cx="79.6890" cy="108.5073" r="0.6780" /> 
<circle cx="86.5829" cy="150.6429" r="0.6780" /> 
<circle cx="203.7315" cy="112.5787" r="0.6780" /> 
<circle cx="195.9087" cy="152.7277" r="0.6780" /> 
<circle cx="192.8171" cy="150.6429" r="0.6780" /> 
<circle cx="161.6136" cy="175.0216" r="0.6780" /> 
<circle cx="86.2731" cy="73.0731" r="0.6780" /> 
<circle cx="162.8889" cy="178.5255" r="0.6780" /> 
<circle cx="116.5111" cy="178.5255" r="0.6780" /> 
<circle cx="121.0117" cy="49.6415" r="0.6780" /> 
<circle cx="83.4912" cy="152.7277" r="0.6780" /> 
<circle cx="193.1269" cy="73.0731" r="0.6780" /> 
<circle cx="113.7964" cy="79.1615" r="0.6780" /> 
<circle cx="190.1885" cy="75.3688" r="0.6780" /> 
<circle cx="71.9416" cy="112.4485" r="0.6780" /> 
<circle cx="207.4584" cy="112.4485" r="0.6780" /> 
<circle cx="75.6685" cy="112.5787" r="0.6780" /> 
<circle cx="117.7864" cy="175.0216" r="0.6780" /> 
<circle cx="89.2115" cy="75.3688" r="0.6780" /> 
<circle cx="122.0395" cy="53.2261" r="0.6780" /> 
<circle cx="153.3183" cy="72.9016" r="0.6780" /> 
<circle cx="121.0117" cy="179.9880" r="0.6780" /> 
<circle cx="198.4167" cy="148.7146" r="0.6780" /> 
<circle cx="207.1283" cy="107.7276" r="0.6780" /> 
<circle cx="86.2731" cy="156.5564" r="0.6780" /> 
<circle cx="116.5111" cy="51.1039" r="0.6780" /> 
<circle cx="167.2769" cy="176.7532" r="0.6780" /> 
<circle cx="71.9416" cy="117.1809" r="0.6780" /> 
<circle cx="83.4912" cy="76.9018" r="0.6780" /> 
<circle cx="158.3883" cy="49.6415" r="0.6780" /> 
<circle cx="127.9293" cy="170.1902" r="0.6780" /> 
<circle cx="83.3970" cy="120.7323" r="0.6780" /> 
<circle cx="80.9833" cy="80.9148" r="0.6780" /> 
<circle cx="171.5300" cy="174.6786" r="0.6780" /> 
<circle cx="153.7963" cy="48.4964" r="0.6780" /> 
<circle cx="125.6037" cy="181.1331" r="0.6780" /> 
<circle cx="181.7718" cy="76.9336" r="0.6780" /> 
<circle cx="97.6282" cy="152.6958" r="0.6780" /> 
<circle cx="90.6719" cy="86.5083" r="0.6780" /> 
<circle cx="190.0847" cy="69.4478" r="0.6780" /> 
<circle cx="95.6301" cy="114.8147" r="0.6780" /> 
<circle cx="89.3153" cy="160.1816" r="0.6780" /> 
<circle cx="190.5831" cy="139.6322" r="0.6780" /> 
<circle cx="151.4707" cy="59.4392" r="0.6780" /> 
<circle cx="116.6731" cy="63.0964" r="0.6780" /> 
<circle cx="200.6378" cy="144.5361" r="0.6780" /> 
<circle cx="112.1231" cy="52.8762" r="0.6780" /> 
<circle cx="166.2782" cy="164.8008" r="0.6780" /> 
<circle cx="72.2717" cy="121.9018" r="0.6780" /> 
<circle cx="72.9301" cy="126.5882" r="0.6780" /> 
<circle cx="97.7828" cy="158.2208" r="0.6780" /> 
<circle cx="92.6022" cy="163.5858" r="0.6780" /> 
<circle cx="78.7622" cy="85.0933" r="0.6780" /> 
<circle cx="171.6764" cy="165.9873" r="0.6780" /> 
<circle cx="165.6036" cy="79.1615" r="0.6780" /> 
<circle cx="107.8700" cy="54.9509" r="0.6780" /> 
<circle cx="186.7978" cy="66.0436" r="0.6780" /> 
<circle cx="149.1357" cy="47.6746" r="0.6780" /> 
<circle cx="175.6285" cy="172.3124" r="0.6780" /> 
<circle cx="181.6172" cy="71.4086" r="0.6780" /> 
<circle cx="130.2643" cy="181.9548" r="0.6780" /> 
<circle cx="199.1252" cy="104.3363" r="0.6780" /> 
<circle cx="85.4649" cy="88.3626" r="0.6780" /> 
<circle cx="148.0977" cy="55.0601" r="0.6780" /> 
<circle cx="111.3712" cy="61.5363" r="0.6780" /> 
<circle cx="131.3023" cy="174.5694" r="0.6780" /> 
<circle cx="80.2748" cy="125.2932" r="0.6780" /> 
<circle cx="206.4699" cy="103.0413" r="0.6780" /> 
</g>
<g style="fill:#000000; fill-opacity:1.0000; stroke:none;">
<circle cx="120.7161" cy="77.5248" r="3.9053" /> 
<circle cx="176.9899" cy="133.7987" r="3.9053" /> 
<circle cx="158.6839" cy="77.5248" r="3.9053" /> 
<circle cx="102.4101" cy="133.7987" r="3.9053" /> 
</g>
<g style="fill:#FFFFFF; fill-opacity:1.0000; stroke:none;">
<circle cx="139.7000" cy="26.6750" r="3.3900" /> 
</g> 
</svg>
