<?xml version="1.0" standalone="no"?>
 <!DOCTYPE svg PUBLIC "-//W3C//DTD SVG 1.1//EN" 
 "http://www.w3.org/Graphics/SVG/1.1/DTD/svg11.dtd"> 
<svg
  xmlns:svg="http://www.w3.org/2000/svg"
  xmlns="http://www.w3.org/2000/svg"
  xmlns:xlink="http://www.w3.org/1999/xlink"
  xmlns:inkscape="http://www.inkscape.org/namespaces/inkscape"
  version="1.1"
  width="279.4000mm" height="215.9000mm" viewBox="0.0000 0.0000 279.4000 215.9000">
<title>SVG Image created as halo-90-B_Cu.svg date 2026-07-17T22:03:58 </title>
  <desc>Image generated by PCBNEW </desc>
<g style="fill:#000000; fill-opacity:1.0000;stroke:#000000; stroke-opacity:1.0000;
stroke-linecap:round; stroke-linejoin:round;"
 transform="translate(0 0) scale(1 1)">
</g>
<g style="fill:#000000; fill-opacity:1.0000; stroke:none;">
<circle cx="139.7000" cy="26.6750" r="5.0850" /> 
<path style="fill:#000000; fill-opacity:1.0000; stroke:none;fill-rule:evenodd;"
d="M 63.7042,136.1733
62.7293,135.7494
61.8638,135.1320
61.1456,134.3483
60.6061,133.4323
60.2688,132.4242
59.5763,128.9427
59.0363,125.4343
58.6498,121.9057
58.4177,118.3636
58.3402,114.8147
58.4177,111.2659
58.6498,107.7238
59.0363,104.1951
59.5763,100.6867
60.2688,97.2052
60.6061,96.1971
61.1456,95.2812
61.8638,94.4974
62.7293,93.8801
63.7042,93.4562
64.7459,93.2443
65.8089,93.2535
66.8467,93.4836
67.8141,93.9245
68.6686,94.5568
69.3730,95.3530
69.8965,96.2782
70.2161,97.2921
70.3180,98.3502
70.1977,99.4064
69.8615,100.9230
69.3220,103.9825
68.9165,107.0627
68.6457,110.1576
68.5102,113.2614
68.5102,116.3681
68.6457,119.4719
68.9165,122.5668
69.3220,125.6469
69.8615,128.7065
70.1977,130.2230
70.3180,131.2792
70.2161,132.3374
69.8965,133.3512
69.3730,134.2765
68.6686,135.0727
67.8141,135.7050
66.8467,136.1458
65.8089,136.3759
64.7459,136.3852
Z" /> 
<path style="fill:#000000; fill-opacity:1.0000; stroke:none;fill-rule:evenodd;"
d="M 215.6958,93.4562
216.6707,93.8801
217.5362,94.4974
218.2544,95.2812
218.7939,96.1971
219.1312,97.2052
219.8237,100.6867
220.3637,104.1951
220.7502,107.7238
220.9823,111.2659
221.0598,114.8147
220.9823,118.3636
220.7502,121.9057
220.3637,125.4343
219.8237,128.9427
219.1312,132.4242
218.7939,133.4323
218.2544,134.3483
217.5362,135.1320
216.6707,135.7494
215.6958,136.1733
214.6541,136.3852
213.5911,136.3759
212.5533,136.1458
211.5859,135.7050
210.7314,135.0727
210.0270,134.2765
209.5035,133.3512
209.1839,132.3374
209.0820,131.2792
209.2023,130.2230
209.5385,128.7065
210.0780,125.6469
210.4835,122.5668
210.7543,119.4719
210.8898,116.3681
210.8898,113.2614
210.7543,110.1576
210.4835,107.0627
210.0780,103.9825
209.5385,100.9230
209.2023,99.4064
209.0820,98.3502
209.1839,97.2921
209.5035,96.2782
210.0270,95.3530
210.7314,94.5568
211.5859,93.9245
212.5533,93.4836
213.5911,93.2535
214.6541,93.2443
Z" /> 
<circle cx="139.7000" cy="114.8147" r="40.6799" /> 
<circle cx="181.6132" cy="128.4330" r="1.5255" /> 
<circle cx="175.3532" cy="140.7183" r="1.5255" /> 
<circle cx="126.0817" cy="156.7279" r="1.5255" /> 
<circle cx="126.0817" cy="72.9016" r="1.5255" /> 
<circle cx="153.3183" cy="156.7279" r="1.5255" /> 
<circle cx="183.7699" cy="114.8147" r="1.5255" /> 
<circle cx="113.7964" cy="150.4679" r="1.5255" /> 
<circle cx="165.6036" cy="150.4679" r="1.5255" /> 
<circle cx="139.7000" cy="158.8846" r="1.5255" /> 
<circle cx="139.7000" cy="70.7449" r="1.5255" /> 
<circle cx="76.8374" cy="89.4162" r="1.5255" /> 
<circle cx="103.7715" cy="57.3171" r="1.5255" /> 
<circle cx="144.4297" cy="47.1804" r="1.5255" /> 
<circle cx="77.5323" cy="130.3151" r="1.5255" /> 
<circle cx="199.1055" cy="138.8159" r="1.5255" /> 
<circle cx="135.2306" cy="178.7296" r="1.5255" /> 
<circle cx="98.5164" cy="163.8957" r="1.5255" /> 
<circle cx="180.8836" cy="65.7338" r="1.5255" /> 
<circle cx="183.2810" cy="62.8774" r="1.5255" /> 
<circle cx="201.8677" cy="99.3143" r="1.5255" /> 
<circle cx="96.1190" cy="166.7521" r="1.5255" /> 
<circle cx="80.2945" cy="90.8136" r="1.5255" /> 
<circle cx="144.1694" cy="50.8999" r="1.5255" /> 
<circle cx="181.6132" cy="101.1965" r="1.5255" /> 
<circle cx="202.5626" cy="140.2132" r="1.5255" /> 
<circle cx="134.9703" cy="182.4491" r="1.5255" /> 
<circle cx="73.9138" cy="131.2169" r="1.5255" /> 
<circle cx="205.4861" cy="98.4126" r="1.5255" /> 
<circle cx="105.7479" cy="60.4793" r="1.5255" /> 
<circle cx="85.8581" cy="97.3203" r="1.5255" /> 
<circle cx="179.5520" cy="169.6661" r="1.5255" /> 
<circle cx="97.7868" cy="128.4330" r="1.5255" /> 
<circle cx="179.5520" cy="59.9633" r="1.5255" /> 
<circle cx="204.1817" cy="135.7662" r="1.5255" /> 
<circle cx="172.9761" cy="160.6155" r="1.5255" /> 
<circle cx="139.7000" cy="58.2019" r="1.5255" /> 
<circle cx="106.4239" cy="69.0139" r="1.5255" /> 
<circle cx="75.2183" cy="135.7662" r="1.5255" /> 
<circle cx="172.9761" cy="69.0139" r="1.5255" /> 
<circle cx="193.5419" cy="97.3203" r="1.5255" /> 
<circle cx="193.5419" cy="132.3091" r="1.5255" /> 
<circle cx="85.8581" cy="132.3091" r="1.5255" /> 
<circle cx="139.7000" cy="171.4276" r="1.5255" /> 
<circle cx="204.1817" cy="93.8632" r="1.5255" /> 
<circle cx="99.8480" cy="59.9633" r="1.5255" /> 
<circle cx="139.7000" cy="47.0149" r="1.5255" /> 
<circle cx="75.2183" cy="93.8632" r="1.5255" /> 
<circle cx="139.7000" cy="182.6145" r="1.5255" /> 
<circle cx="96.1190" cy="62.8774" r="1.5255" /> 
<circle cx="171.6764" cy="63.6422" r="1.5255" /> 
<circle cx="178.4869" cy="161.0393" r="1.5255" /> 
<circle cx="175.6285" cy="57.3171" r="1.5255" /> 
<circle cx="100.9131" cy="68.5902" r="1.5255" /> 
<circle cx="73.9138" cy="98.4126" r="1.5255" /> 
<circle cx="205.4861" cy="131.2169" r="1.5255" /> 
<circle cx="202.5626" cy="89.4162" r="1.5255" /> 
<circle cx="135.4910" cy="54.6200" r="1.5255" /> 
<circle cx="99.8480" cy="169.6661" r="1.5255" /> 
<circle cx="183.2810" cy="166.7521" r="1.5255" /> 
<circle cx="104.0468" cy="140.7183" r="1.5255" /> 
<circle cx="81.1508" cy="100.2168" r="1.5255" /> 
<circle cx="144.4297" cy="182.4491" r="1.5255" /> 
<circle cx="134.9703" cy="47.1804" r="1.5255" /> 
<circle cx="195.6477" cy="92.2103" r="1.5255" /> 
<circle cx="104.2319" cy="163.6326" r="1.5255" /> 
<circle cx="198.2492" cy="129.4127" r="1.5255" /> 
<circle cx="143.9090" cy="175.0094" r="1.5255" /> 
<circle cx="171.5300" cy="54.9509" r="1.5255" /> 
<circle cx="202.7972" cy="125.9407" r="1.5255" /> 
<circle cx="175.3532" cy="88.9111" r="1.5255" /> 
<circle cx="200.6378" cy="85.0933" r="1.5255" /> 
<circle cx="76.8374" cy="140.2132" r="1.5255" /> 
<circle cx="130.2643" cy="47.6746" r="1.5255" /> 
<circle cx="92.6022" cy="66.0436" r="1.5255" /> 
<circle cx="186.7978" cy="163.5858" r="1.5255" /> 
<circle cx="149.1357" cy="181.9548" r="1.5255" /> 
<circle cx="103.7715" cy="172.3124" r="1.5255" /> 
<circle cx="72.9301" cy="103.0413" r="1.5255" /> 
<circle cx="198.4167" cy="80.9148" r="1.5255" /> 
<circle cx="107.8700" cy="174.6786" r="1.5255" /> 
<circle cx="78.7622" cy="144.5361" r="1.5255" /> 
<circle cx="190.0847" cy="160.1816" r="1.5255" /> 
<circle cx="207.1283" cy="121.9018" r="1.5255" /> 
<circle cx="151.4707" cy="170.1902" r="1.5255" /> 
<circle cx="167.2769" cy="52.8762" r="1.5255" /> 
<circle cx="125.6037" cy="48.4964" r="1.5255" /> 
<circle cx="127.9293" cy="59.4392" r="1.5255" /> 
<circle cx="88.8169" cy="139.6322" r="1.5255" /> 
<circle cx="181.7718" cy="152.6958" r="1.5255" /> 
<circle cx="188.7281" cy="86.5083" r="1.5255" /> 
<circle cx="162.7268" cy="63.0964" r="1.5255" /> 
<circle cx="97.7868" cy="101.1965" r="1.5255" /> 
<circle cx="85.4602" cy="104.6448" r="1.5255" /> 
<circle cx="153.7963" cy="181.1331" r="1.5255" /> 
<circle cx="113.1218" cy="164.8008" r="1.5255" /> 
<circle cx="196.0030" cy="120.7323" r="1.5255" /> 
<circle cx="158.3883" cy="179.9880" r="1.5255" /> 
<circle cx="87.4426" cy="144.9856" r="1.5255" /> 
<circle cx="112.1231" cy="176.7532" r="1.5255" /> 
<circle cx="207.4584" cy="117.1809" r="1.5255" /> 
<circle cx="162.8889" cy="51.1039" r="1.5255" /> 
<circle cx="193.1269" cy="156.5564" r="1.5255" /> 
<circle cx="115.1565" cy="169.9400" r="1.5255" /> 
<circle cx="80.9833" cy="148.7146" r="1.5255" /> 
<circle cx="195.9087" cy="76.9018" r="1.5255" /> 
<circle cx="189.7254" cy="81.0721" r="1.5255" /> 
<circle cx="156.3326" cy="172.8188" r="1.5255" /> 
<circle cx="94.8572" cy="74.4379" r="1.5255" /> 
<circle cx="72.2717" cy="107.7276" r="1.5255" /> 
<circle cx="187.2500" cy="151.9650" r="1.5255" /> 
<circle cx="200.0052" cy="116.9206" r="1.5255" /> 
<circle cx="89.3153" cy="69.4478" r="1.5255" /> 
<circle cx="160.3383" cy="58.1117" r="1.5255" /> 
<circle cx="104.0468" cy="88.9111" r="1.5255" /> 
<circle cx="79.6890" cy="108.5073" r="1.5255" /> 
<circle cx="86.5829" cy="150.6429" r="1.5255" /> 
<circle cx="203.7315" cy="112.5787" r="1.5255" /> 
<circle cx="195.9087" cy="152.7277" r="1.5255" /> 
<circle cx="192.8171" cy="150.6429" r="1.5255" /> 
<circle cx="161.6136" cy="175.0216" r="1.5255" /> 
<circle cx="86.2731" cy="73.0731" r="1.5255" /> 
<circle cx="162.8889" cy="178.5255" r="1.5255" /> 
<circle cx="116.5111" cy="178.5255" r="1.5255" /> 
<circle cx="121.0117" cy="49.6415" r="1.5255" /> 
<circle cx="83.4912" cy="152.7277" r="1.5255" /> 
<circle cx="193.1269" cy="73.0731" r="1.5255" /> 
<circle cx="113.7964" cy="79.1615" r="1.5255" /> 
<circle cx="190.1885" cy="75.3688" r="1.5255" /> 
<circle cx="71.9416" cy="112.4485" r="1.5255" /> 
<circle cx="207.4584" cy="112.4485" r="1.5255" /> 
<circle cx="75.6685" cy="112.5787" r="1.5255" /> 
<circle cx="117.7864" cy="175.0216" r="1.5255" /> 
<circle cx="89.2115" cy="75.3688" r="1.5255" /> 
<circle cx="122.0395" cy="53.2261" r="1.5255" /> 
<circle cx="153.3183" cy="72.9016" r="1.5255" /> 
<circle cx="121.0117" cy="179.9880" r="1.5255" /> 
<circle cx="198.4167" cy="148.7146" r="1.5255" /> 
<circle cx="207.1283" cy="107.7276" r="1.5255" /> 
<circle cx="86.2731" cy="156.5564" r="1.5255" /> 
<circle cx="116.5111" cy="51.1039" r="1.5255" /> 
<circle cx="167.2769" cy="176.7532" r="1.5255" /> 
<circle cx="71.9416" cy="117.1809" r="1.5255" /> 
<circle cx="83.4912" cy="76.9018" r="1.5255" /> 
<circle cx="158.3883" cy="49.6415" r="1.5255" /> 
<circle cx="127.9293" cy="170.1902" r="1.5255" /> 
<circle cx="83.3970" cy="120.7323" r="1.5255" /> 
<circle cx="80.9833" cy="80.9148" r="1.5255" /> 
<circle cx="171.5300" cy="174.6786" r="1.5255" /> 
<circle cx="153.7963" cy="48.4964" r="1.5255" /> 
<circle cx="125.6037" cy="181.1331" r="1.5255" /> 
<circle cx="181.7718" cy="76.9336" r="1.5255" /> 
<circle cx="97.6282" cy="152.6958" r="1.5255" /> 
<circle cx="90.6719" cy="86.5083" r="1.5255" /> 
<circle cx="190.0847" cy="69.4478" r="1.5255" /> 
<circle cx="95.6301" cy="114.8147" r="1.5255" /> 
<circle cx="89.3153" cy="160.1816" r="1.5255" /> 
<circle cx="190.5831" cy="139.6322" r="1.5255" /> 
<circle cx="151.4707" cy="59.4392" r="1.5255" /> 
<circle cx="116.6731" cy="63.0964" r="1.5255" /> 
<circle cx="200.6378" cy="144.5361" r="1.5255" /> 
<circle cx="112.1231" cy="52.8762" r="1.5255" /> 
<circle cx="166.2782" cy="164.8008" r="1.5255" /> 
<circle cx="72.2717" cy="121.9018" r="1.5255" /> 
<circle cx="72.9301" cy="126.5882" r="1.5255" /> 
<circle cx="97.7828" cy="158.2208" r="1.5255" /> 
<circle cx="92.6022" cy="163.5858" r="1.5255" /> 
<circle cx="78.7622" cy="85.0933" r="1.5255" /> 
<circle cx="171.6764" cy="165.9873" r="1.5255" /> 
<circle cx="165.6036" cy="79.1615" r="1.5255" /> 
<circle cx="107.8700" cy="54.9509" r="1.5255" /> 
<circle cx="186.7978" cy="66.0436" r="1.5255" /> 
<circle cx="149.1357" cy="47.6746" r="1.5255" /> 
<circle cx="175.6285" cy="172.3124" r="1.5255" /> 
<circle cx="181.6172" cy="71.4086" r="1.5255" /> 
<circle cx="130.2643" cy="181.9548" r="1.5255" /> 
<circle cx="199.1252" cy="104.3363" r="1.5255" /> 
<circle cx="85.4649" cy="88.3626" r="1.5255" /> 
<circle cx="148.0977" cy="55.0601" r="1.5255" /> 
<circle cx="111.3712" cy="61.5363" r="1.5255" /> 
<circle cx="131.3023" cy="174.5694" r="1.5255" /> 
<circle cx="80.2748" cy="125.2932" r="1.5255" /> 
<circle cx="206.4699" cy="103.0413" r="1.5255" /> 
</g>
<g style="fill:none; 
stroke:#000000; stroke-width:3.3900; stroke-opacity:1; 
stroke-linecap:round; stroke-linejoin:round;">
<path d="M152.5820 188.7165
L133.5980 190.0725
" />
</g>
<g style="fill:none; 
stroke:#000000; stroke-width:0.8611; stroke-opacity:1; 
stroke-linecap:round; stroke-linejoin:round;">
<path d="M215.9748 114.8147
L211.5678 129.0527
" />
</g>
<g style="fill:none; 
stroke:#000000; stroke-width:3.3900; stroke-opacity:1; 
stroke-linecap:round; stroke-linejoin:round;">
<path d="M204.7878 155.4946
L198.6858 163.6306
" />
</g>
<g style="fill:none; 
stroke:#000000; stroke-width:0.8611; stroke-opacity:1; 
stroke-linecap:round; stroke-linejoin:round;">
<path d="M206.1438 127.6967
L202.0758 129.7307
" />
</g>
<g style="fill:none; 
stroke:#000000; stroke-width:3.3900; stroke-opacity:1; 
stroke-linecap:round; stroke-linejoin:round;">
<path d="M211.5678 142.6126
L204.7878 155.4946
" />
<path d="M189.1939 172.4446
L178.3459 179.9025
" />
<path d="M70.5442 148.0366
L67.1542 138.5447
" />
<path d="M178.3459 179.9025
L168.8539 184.6485
" />
<path d="M118.6821 187.3605
L98.3421 179.9025
" />
<path d="M168.8539 184.6485
L152.5820 188.7165
" />
</g>
<g style="fill:none; 
stroke:#000000; stroke-width:0.8611; stroke-opacity:1; 
stroke-linecap:round; stroke-linejoin:round;">
<path d="M206.1438 124.9847
L203.4318 122.2727
" />
</g>
<g style="fill:none; 
stroke:#000000; stroke-width:3.3900; stroke-opacity:1; 
stroke-linecap:round; stroke-linejoin:round;">
<path d="M198.6858 163.6306
L189.1939 172.4446
" />
<path d="M88.1721 170.4106
L78.0022 159.5626
" />
<path d="M133.5980 190.0725
L118.6821 187.3605
" />
<path d="M67.1542 138.5447
L63.4252 114.8147
" />
<path d="M98.3421 179.9025
L88.1721 170.4106
" />
</g>
<g style="fill:none; 
stroke:#000000; stroke-width:0.8611; stroke-opacity:1; 
stroke-linecap:round; stroke-linejoin:round;">
<path d="M203.4318 122.2727
L198.0078 124.3067
" />
<path d="M211.5678 129.0527
L206.1438 127.6967
" />
<path d="M198.0078 124.3067
L189.1939 122.9507
" />
</g>
<g style="fill:none; 
stroke:#000000; stroke-width:3.3900; stroke-opacity:1; 
stroke-linecap:round; stroke-linejoin:round;">
<path d="M215.9748 114.8147
L211.5678 142.6126
" />
</g>
<g style="fill:none; 
stroke:#000000; stroke-width:0.8611; stroke-opacity:1; 
stroke-linecap:round; stroke-linejoin:round;">
<path d="M202.0758 129.7307
L198.0078 124.3067
" />
<path d="M189.1939 122.9507
L183.7699 114.8147
" />
<path d="M211.5678 126.3407
L206.1438 124.9847
" />
</g>
<g style="fill:none; 
stroke:#000000; stroke-width:3.3900; stroke-opacity:1; 
stroke-linecap:round; stroke-linejoin:round;">
<path d="M78.0022 159.5626
L70.5442 148.0366
" />
</g>
<g style="fill:none; 
stroke:#000000; stroke-width:0.8611; stroke-opacity:1; 
stroke-linecap:round; stroke-linejoin:round;">
<path d="M215.9748 114.8147
L211.5678 126.3407
" />
</g>
<g style="fill:none; 
stroke:#000000; stroke-width:3.4442; stroke-opacity:1; 
stroke-linecap:round; stroke-linejoin:round;">
<path d="M139.7000 158.8846
L139.7000 114.8147
" />
</g>
<g style="fill:none; 
stroke:#000000; stroke-width:3.3900; stroke-opacity:1; 
stroke-linecap:round; stroke-linejoin:round;">
<path d="M113.7964 150.4679
L139.7000 114.8147
" />
<path d="M139.7000 70.7449
L139.7000 114.8147
" />
</g>
<g style="fill:none; 
stroke:#000000; stroke-width:0.8678; stroke-opacity:1; 
stroke-linecap:round; stroke-linejoin:round;">
<path d="M77.5323 130.3151
L73.9138 131.2169
" />
<path d="M135.2306 178.7296
L134.9703 182.4491
" />
<path d="M80.2945 90.8136
L76.8374 89.4162
" />
<path d="M199.1055 138.8159
L202.5626 140.2132
" />
<path d="M98.5164 163.8957
L96.1190 166.7521
" />
<path d="M144.1694 50.8999
L144.4297 47.1804
" />
</g>
<g style="fill:none; 
stroke:#000000; stroke-width:2.0340; stroke-opacity:1; 
stroke-linecap:round; stroke-linejoin:round;">
<path d="M193.2618 101.2548
L201.8677 99.3143
" />
</g>
<g style="fill:none; 
stroke:#000000; stroke-width:0.8678; stroke-opacity:1; 
stroke-linecap:round; stroke-linejoin:round;">
<path d="M201.8677 99.3143
L205.4861 98.4126
" />
<path d="M105.7479 60.4793
L103.7715 57.3171
" />
</g>
<g style="fill:none; 
stroke:#000000; stroke-width:2.0340; stroke-opacity:1; 
stroke-linecap:round; stroke-linejoin:round;">
<path d="M181.6132 101.1965
L193.2618 101.2548
" />
</g>
<g style="fill:none; 
stroke:#000000; stroke-width:0.8678; stroke-opacity:1; 
stroke-linecap:round; stroke-linejoin:round;">
<path d="M180.8836 65.7338
L183.2810 62.8774
" />
<path d="M106.4239 69.0139
L99.8480 59.9633
" />
<path d="M85.8581 132.3091
L75.2183 135.7662
" />
<path d="M85.8581 97.3203
L75.2183 93.8632
" />
<path d="M139.7000 58.2019
L139.7000 47.0149
" />
<path d="M172.9761 160.6155
L179.5520 169.6661
" />
</g>
<g style="fill:none; 
stroke:#000000; stroke-width:0.8611; stroke-opacity:1; 
stroke-linecap:round; stroke-linejoin:round;">
<path d="M204.1763 135.7662
L204.1098 135.8327
" />
</g>
<g style="fill:none; 
stroke:#000000; stroke-width:0.8678; stroke-opacity:1; 
stroke-linecap:round; stroke-linejoin:round;">
<path d="M193.8063 132.3091
L197.3298 135.8327
" />
<path d="M193.5419 132.3091
L193.8063 132.3091
" />
</g>
<g style="fill:none; 
stroke:#000000; stroke-width:2.0340; stroke-opacity:1; 
stroke-linecap:round; stroke-linejoin:round;">
<path d="M97.7868 128.4330
L85.8581 132.3091
" />
</g>
<g style="fill:none; 
stroke:#000000; stroke-width:0.8678; stroke-opacity:1; 
stroke-linecap:round; stroke-linejoin:round;">
<path d="M193.5419 97.3203
L204.1817 93.8632
" />
<path d="M200.7198 135.8327
L204.1098 135.8327
" />
<path d="M172.9761 69.0139
L179.5520 59.9633
" />
<path d="M139.7000 171.4276
L139.7000 182.6145
" />
</g>
<g style="fill:none; 
stroke:#000000; stroke-width:0.8611; stroke-opacity:1; 
stroke-linecap:round; stroke-linejoin:round;">
<path d="M204.1817 135.7662
L204.1763 135.7662
" />
</g>
<g style="fill:none; 
stroke:#000000; stroke-width:0.8678; stroke-opacity:1; 
stroke-linecap:round; stroke-linejoin:round;">
<path d="M197.3298 135.8327
L200.7198 135.8327
" />
<path d="M135.4910 54.6200
L134.9703 47.1804
" />
</g>
<g style="fill:none; 
stroke:#000000; stroke-width:0.8611; stroke-opacity:1; 
stroke-linecap:round; stroke-linejoin:round;">
<path d="M205.4861 131.2169
L204.6576 131.2169
" />
</g>
<g style="fill:none; 
stroke:#000000; stroke-width:0.8678; stroke-opacity:1; 
stroke-linecap:round; stroke-linejoin:round;">
<path d="M104.2319 163.6326
L99.8480 169.6661
" />
<path d="M199.3638 133.7987
L201.3978 133.7987
" />
<path d="M143.9090 175.0094
L144.4297 182.4491
" />
</g>
<g style="fill:none; 
stroke:#000000; stroke-width:0.8611; stroke-opacity:1; 
stroke-linecap:round; stroke-linejoin:round;">
<path d="M202.0758 133.7987
L201.3978 133.7987
" />
</g>
<g style="fill:none; 
stroke:#000000; stroke-width:0.8678; stroke-opacity:1; 
stroke-linecap:round; stroke-linejoin:round;">
<path d="M178.4869 161.0393
L183.2810 166.7521
" />
<path d="M100.9131 68.5902
L96.1190 62.8774
" />
<path d="M171.6764 63.6422
L175.6285 57.3171
" />
<path d="M81.1508 100.2168
L73.9138 98.4126
" />
<path d="M198.2492 132.6840
L199.3638 133.7987
" />
</g>
<g style="fill:none; 
stroke:#000000; stroke-width:2.0340; stroke-opacity:1; 
stroke-linecap:round; stroke-linejoin:round;">
<path d="M104.0468 140.7183
L107.1561 158.8846
" />
</g>
<g style="fill:none; 
stroke:#000000; stroke-width:0.8611; stroke-opacity:1; 
stroke-linecap:round; stroke-linejoin:round;">
<path d="M204.6576 131.2169
L202.0758 133.7987
" />
</g>
<g style="fill:none; 
stroke:#000000; stroke-width:0.8678; stroke-opacity:1; 
stroke-linecap:round; stroke-linejoin:round;">
<path d="M198.2492 129.4127
L198.2492 132.6840
" />
</g>
<g style="fill:none; 
stroke:#000000; stroke-width:2.0340; stroke-opacity:1; 
stroke-linecap:round; stroke-linejoin:round;">
<path d="M107.1561 158.8846
L104.2319 163.6326
" />
</g>
<g style="fill:none; 
stroke:#000000; stroke-width:0.8678; stroke-opacity:1; 
stroke-linecap:round; stroke-linejoin:round;">
<path d="M195.6477 92.2103
L202.5626 89.4162
" />
</g>
<g style="fill:none; 
stroke:#000000; stroke-width:2.0340; stroke-opacity:1; 
stroke-linecap:round; stroke-linejoin:round;">
<path d="M175.3532 88.9111
L188.5159 91.0848
" />
<path d="M188.5159 91.0848
L200.6378 85.0933
" />
</g>
<g style="fill:none; 
stroke:#000000; stroke-width:0.8678; stroke-opacity:1; 
stroke-linecap:round; stroke-linejoin:round;">
<path d="M88.8169 139.6322
L78.7622 144.5361
" />
<path d="M127.9293 59.4392
L125.6037 48.4964
" />
</g>
<g style="fill:none; 
stroke:#000000; stroke-width:2.0340; stroke-opacity:1; 
stroke-linecap:round; stroke-linejoin:round;">
<path d="M94.3385 104.6448
L97.7868 101.1965
" />
</g>
<g style="fill:none; 
stroke:#000000; stroke-width:0.8678; stroke-opacity:1; 
stroke-linecap:round; stroke-linejoin:round;">
<path d="M200.2262 120.7323
L202.0758 118.8827
" />
<path d="M113.1218 164.8008
L107.8700 174.6786
" />
<path d="M162.7268 63.0964
L167.2769 52.8762
" />
</g>
<g style="fill:none; 
stroke:#000000; stroke-width:0.8611; stroke-opacity:1; 
stroke-linecap:round; stroke-linejoin:round;">
<path d="M204.1091 118.8827
L207.1283 121.9018
" />
</g>
<g style="fill:none; 
stroke:#000000; stroke-width:0.8678; stroke-opacity:1; 
stroke-linecap:round; stroke-linejoin:round;">
<path d="M151.4707 170.1902
L153.7963 181.1331
" />
<path d="M85.4602 104.6448
L83.8567 103.0413
" />
<path d="M181.7718 152.6958
L190.0847 160.1816
" />
<path d="M196.0030 120.7323
L200.2262 120.7323
" />
</g>
<g style="fill:none; 
stroke:#000000; stroke-width:2.0340; stroke-opacity:1; 
stroke-linecap:round; stroke-linejoin:round;">
<path d="M85.4602 104.6448
L94.3385 104.6448
" />
</g>
<g style="fill:none; 
stroke:#000000; stroke-width:0.8678; stroke-opacity:1; 
stroke-linecap:round; stroke-linejoin:round;">
<path d="M188.7281 86.5083
L198.4167 80.9148
" />
<path d="M83.8567 103.0413
L72.9301 103.0413
" />
</g>
<g style="fill:none; 
stroke:#000000; stroke-width:0.8611; stroke-opacity:1; 
stroke-linecap:round; stroke-linejoin:round;">
<path d="M202.0758 118.8827
L204.1091 118.8827
" />
</g>
<g style="fill:none; 
stroke:#000000; stroke-width:0.8678; stroke-opacity:1; 
stroke-linecap:round; stroke-linejoin:round;">
<path d="M156.3326 172.8188
L158.3883 179.9880
" />
<path d="M87.4426 144.9856
L80.9833 148.7146
" />
<path d="M115.1565 169.9400
L112.1231 176.7532
" />
<path d="M189.7254 81.0721
L195.9087 76.9018
" />
</g>
<g style="fill:none; 
stroke:#000000; stroke-width:2.0340; stroke-opacity:1; 
stroke-linecap:round; stroke-linejoin:round;">
<path d="M99.6981 78.2028
L94.8572 74.4379
" />
</g>
<g style="fill:none; 
stroke:#000000; stroke-width:0.8678; stroke-opacity:1; 
stroke-linecap:round; stroke-linejoin:round;">
<path d="M187.2500 151.9650
L193.1269 156.5564
" />
<path d="M94.8572 74.4379
L89.3153 69.4478
" />
</g>
<g style="fill:none; 
stroke:#000000; stroke-width:2.0340; stroke-opacity:1; 
stroke-linecap:round; stroke-linejoin:round;">
<path d="M104.0468 88.9111
L99.6981 78.2028
" />
</g>
<g style="fill:none; 
stroke:#000000; stroke-width:0.8678; stroke-opacity:1; 
stroke-linecap:round; stroke-linejoin:round;">
<path d="M160.3383 58.1117
L162.8889 51.1039
" />
<path d="M200.0052 116.9206
L207.4584 117.1809
" />
<path d="M79.6890 108.5073
L72.2717 107.7276
" />
<path d="M122.0395 53.2261
L121.0117 49.6415
" />
<path d="M89.2115 75.3688
L86.2731 73.0731
" />
<path d="M86.5829 150.6429
L83.4912 152.7277
" />
<path d="M192.8171 150.6429
L195.9087 152.7277
" />
<path d="M190.1885 75.3688
L193.1269 73.0731
" />
</g>
<g style="fill:none; 
stroke:#000000; stroke-width:2.0340; stroke-opacity:1; 
stroke-linecap:round; stroke-linejoin:round;">
<path d="M113.7964 79.1615
L114.6141 70.0669
" />
<path d="M122.7500 65.9989
L122.7500 56.5069
" />
</g>
<g style="fill:none; 
stroke:#000000; stroke-width:0.8678; stroke-opacity:1; 
stroke-linecap:round; stroke-linejoin:round;">
<path d="M203.7315 112.5787
L207.4584 112.4485
" />
</g>
<g style="fill:none; 
stroke:#000000; stroke-width:2.0340; stroke-opacity:1; 
stroke-linecap:round; stroke-linejoin:round;">
<path d="M122.7500 56.5069
L122.0395 53.2261
" />
<path d="M114.6141 70.0669
L122.7500 65.9989
" />
</g>
<g style="fill:none; 
stroke:#000000; stroke-width:0.8678; stroke-opacity:1; 
stroke-linecap:round; stroke-linejoin:round;">
<path d="M161.6136 175.0216
L162.8889 178.5255
" />
<path d="M117.7864 175.0216
L116.5111 178.5255
" />
<path d="M75.6685 112.5787
L71.9416 112.4485
" />
</g>
<g style="fill:none; 
stroke:#000000; stroke-width:2.0340; stroke-opacity:1; 
stroke-linecap:round; stroke-linejoin:round;">
<path d="M157.3279 53.1169
L158.3883 49.6415
" />
<path d="M153.3183 72.9016
L157.3279 53.1169
" />
</g>
<g style="fill:none; 
stroke:#000000; stroke-width:0.8678; stroke-opacity:1; 
stroke-linecap:round; stroke-linejoin:round;">
<path d="M116.6731 63.0964
L112.1231 52.8762
" />
<path d="M151.4707 59.4392
L153.7963 48.4964
" />
<path d="M127.9293 170.1902
L125.6037 181.1331
" />
<path d="M190.5831 139.6322
L200.6378 144.5361
" />
<path d="M181.7718 76.9336
L190.0847 69.4478
" />
<path d="M90.6719 86.5083
L80.9833 80.9148
" />
<path d="M97.6282 152.6958
L89.3153 160.1816
" />
<path d="M83.3970 120.7323
L72.2717 121.9018
" />
<path d="M166.2782 164.8008
L171.5300 174.6786
" />
</g>
<g style="fill:none; 
stroke:#000000; stroke-width:2.0340; stroke-opacity:1; 
stroke-linecap:round; stroke-linejoin:round;">
<path d="M95.6301 114.8147
L83.3970 120.7323
" />
</g>
<g style="fill:none; 
stroke:#000000; stroke-width:0.8678; stroke-opacity:1; 
stroke-linecap:round; stroke-linejoin:round;">
<path d="M131.3023 174.5694
L130.2643 181.9548
" />
</g>
<g style="fill:none; 
stroke:#000000; stroke-width:2.0340; stroke-opacity:1; 
stroke-linecap:round; stroke-linejoin:round;">
<path d="M165.6036 79.1615
L181.6172 71.4086
" />
</g>
<g style="fill:none; 
stroke:#000000; stroke-width:0.8678; stroke-opacity:1; 
stroke-linecap:round; stroke-linejoin:round;">
<path d="M97.7828 158.2208
L92.6022 163.5858
" />
<path d="M181.6172 71.4086
L186.7978 66.0436
" />
<path d="M171.6764 165.9873
L175.6285 172.3124
" />
<path d="M148.0977 55.0601
L149.1357 47.6746
" />
<path d="M80.2748 125.2932
L72.9301 126.5882
" />
<path d="M199.1252 104.3363
L206.4699 103.0413
" />
<path d="M85.4649 88.3626
L78.7622 85.0933
" />
<path d="M111.3712 61.5363
L107.8700 54.9509
" />
</g>
<g style="fill:#FFFFFF; fill-opacity:1.0000; stroke:none;">
<circle cx="181.6132" cy="128.4330" r="0.6780" /> 
<circle cx="175.3532" cy="140.7183" r="0.6780" /> 
<circle cx="126.0817" cy="156.7279" r="0.6780" /> 
<circle cx="126.0817" cy="72.9016" r="0.6780" /> 
<circle cx="153.3183" cy="156.7279" r="0.6780" /> 
<circle cx="183.7699" cy="114.8147" r="0.6780" /> 
<circle cx="113.7964" cy="150.4679" r="0.6780" /> 
<circle cx="165.6036" cy="150.4679" r="0.6780" /> 
<circle cx="139.7000" cy="158.8846" r="0.6780" /> 
<circle cx="139.7000" cy="70.7449" r="0.6780" /> 
<circle cx="76.8374" cy="89.4162" r="0.6780" /> 
<circle cx="103.7715" cy="57.3171" r="0.6780" /> 
<circle cx="144.4297" cy="47.1804" r="0.6780" /> 
<circle cx="77.5323" cy="130.3151" r="0.6780" /> 
<circle cx="199.1055" cy="138.8159" r="0.6780" /> 
<circle cx="135.2306" cy="178.7296" r="0.6780" /> 
<circle cx="98.5164" cy="163.8957" r="0.6780" /> 
<circle cx="180.8836" cy="65.7338" r="0.6780" /> 
<circle cx="183.2810" cy="62.8774" r="0.6780" /> 
<circle cx="201.8677" cy="99.3143" r="0.6780" /> 
<circle cx="96.1190" cy="166.7521" r="0.6780" /> 
<circle cx="80.2945" cy="90.8136" r="0.6780" /> 
<circle cx="144.1694" cy="50.8999" r="0.6780" /> 
<circle cx="181.6132" cy="101.1965" r="0.6780" /> 
<circle cx="202.5626" cy="140.2132" r="0.6780" /> 
<circle cx="134.9703" cy="182.4491" r="0.6780" /> 
<circle cx="73.9138" cy="131.2169" r="0.6780" /> 
<circle cx="205.4861" cy="98.4126" r="0.6780" /> 
<circle cx="105.7479" cy="60.4793" r="0.6780" /> 
<circle cx="85.8581" cy="97.3203" r="0.6780" /> 
<circle cx="179.5520" cy="169.6661" r="0.6780" /> 
<circle cx="97.7868" cy="128.4330" r="0.6780" /> 
<circle cx="179.5520" cy="59.9633" r="0.6780" /> 
<circle cx="204.1817" cy="135.7662" r="0.6780" /> 
<circle cx="172.9761" cy="160.6155" r="0.6780" /> 
<circle cx="139.7000" cy="58.2019" r="0.6780" /> 
<circle cx="106.4239" cy="69.0139" r="0.6780" /> 
<circle cx="75.2183" cy="135.7662" r="0.6780" /> 
<circle cx="172.9761" cy="69.0139" r="0.6780" /> 
<circle cx="193.5419" cy="97.3203" r="0.6780" /> 
<circle cx="193.5419" cy="132.3091" r="0.6780" /> 
<circle cx="85.8581" cy="132.3091" r="0.6780" /> 
<circle cx="139.7000" cy="171.4276" r="0.6780" /> 
<circle cx="204.1817" cy="93.8632" r="0.6780" /> 
<circle cx="99.8480" cy="59.9633" r="0.6780" /> 
<circle cx="139.7000" cy="47.0149" r="0.6780" /> 
<circle cx="75.2183" cy="93.8632" r="0.6780" /> 
<circle cx="139.7000" cy="182.6145" r="0.6780" /> 
<circle cx="96.1190" cy="62.8774" r="0.6780" /> 
<circle cx="171.6764" cy="63.6422" r="0.6780" /> 
<circle cx="178.4869" cy="161.0393" r="0.6780" /> 
<circle cx="175.6285" cy="57.3171" r="0.6780" /> 
<circle cx="100.9131" cy="68.5902" r="0.6780" /> 
<circle cx="73.9138" cy="98.4126" r="0.6780" /> 
<circle cx="205.4861" cy="131.2169" r="0.6780" /> 
<circle cx="202.5626" cy="89.4162" r="0.6780" /> 
<circle cx="135.4910" cy="54.6200" r="0.6780" /> 
<circle cx="99.8480" cy="169.6661" r="0.6780" /> 
<circle cx="183.2810" cy="166.7521" r="0.6780" /> 
<circle cx="104.0468" cy="140.7183" r="0.6780" /> 
<circle cx="81.1508" cy="100.2168" r="0.6780" /> 
<circle cx="144.4297" cy="182.4491" r="0.6780" /> 
<circle cx="134.9703" cy="47.1804" r="0.6780" /> 
<circle cx="195.6477" cy="92.2103" r="0.6780" /> 
<circle cx="104.2319" cy="163.6326" r="0.6780" /> 
<circle cx="198.2492" cy="129.4127" r="0.6780" /> 
<circle cx="143.9090" cy="175.0094" r="0.6780" /> 
<circle cx="171.5300" cy="54.9509" r="0.6780" /> 
<circle cx="202.7972" cy="125.9407" r="0.6780" /> 
<circle cx="175.3532" cy="88.9111" r="0.6780" /> 
<circle cx="200.6378" cy="85.0933" r="0.6780" /> 
<circle cx="76.8374" cy="140.2132" r="0.6780" /> 
<circle cx="130.2643" cy="47.6746" r="0.6780" /> 
<circle cx="92.6022" cy="66.0436" r="0.6780" /> 
<circle cx="186.7978" cy="163.5858" r="0.6780" /> 
<circle cx="149.1357" cy="181.9548" r="0.6780" /> 
<circle cx="103.7715" cy="172.3124" r="0.6780" /> 
<circle cx="72.9301" cy="103.0413" r="0.6780" /> 
<circle cx="198.4167" cy="80.9148" r="0.6780" /> 
<circle cx="107.8700" cy="174.6786" r="0.6780" /> 
<circle cx="78.7622" cy="144.5361" r="0.6780" /> 
<circle cx="190.0847" cy="160.1816" r="0.6780" /> 
<circle cx="207.1283" cy="121.9018" r="0.6780" /> 
<circle cx="151.4707" cy="170.1902" r="0.6780" /> 
<circle cx="167.2769" cy="52.8762" r="0.6780" /> 
<circle cx="125.6037" cy="48.4964" r="0.6780" /> 
<circle cx="127.9293" cy="59.4392" r="0.6780" /> 
<circle cx="88.8169" cy="139.6322" r="0.6780" /> 
<circle cx="181.7718" cy="152.6958" r="0.6780" /> 
<circle cx="188.7281" cy="86.5083" r="0.6780" /> 
<circle cx="162.7268" cy="63.0964" r="0.6780" /> 
<circle cx="97.7868" cy="101.1965" r="0.6780" /> 
<circle cx="85.4602" cy="104.6448" r="0.6780" /> 
<circle cx="153.7963" cy="181.1331" r="0.6780" /> 
<circle cx="113.1218" cy="164.8008" r="0.6780" /> 
<circle cx="196.0030" cy="120.7323" r="0.6780" /> 
<circle cx="158.3883" cy="179.9880" r="0.6780" /> 
<circle cx="87.4426" cy="144.9856" r="0.6780" /> 
<circle cx="112.1231" cy="176.7532" r="0.6780" /> 
<circle cx="207.4584" cy="117.1809" r="0.6780" /> 
<circle cx="162.8889" cy="51.1039" r="0.6780" /> 
<circle cx="193.1269" cy="156.5564" r="0.6780" /> 
<circle cx="115.1565" cy="169.9400" r="0.6780" /> 
<circle cx="80.9833" cy="148.7146" r="0.6780" /> 
<circle cx="195.9087" cy="76.9018" r="0.6780" /> 
<circle cx="189.7254" cy="81.0721" r="0.6780" /> 
<circle cx="156.3326" cy="172.8188" r="0.6780" /> 
<circle cx="94.8572" cy="74.4379" r="0.6780" /> 
<circle cx="72.2717" cy="107.7276" r="0.6780" /> 
<circle cx="187.2500" cy="151.9650" r="0.6780" /> 
<circle cx="200.0052" cy="116.9206" r="0.6780" /> 
<circle cx="89.3153" cy="69.4478" r="0.6780" /> 
<circle cx="160.3383" cy="58.1117" r="0.6780" /> 
<circle cx="104.0468" cy="88.9111" r="0.6780" /> 
<circle cx="79.6890" cy="108.5073" r="0.6780" /> 
<circle cx="86.5829" cy="150.6429" r="0.6780" /> 
<circle cx="203.7315" cy="112.5787" r="0.6780" /> 
<circle cx="195.9087" cy="152.7277" r="0.6780" /> 
<circle cx="192.8171" cy="150.6429" r="0.6780" /> 
<circle cx="161.6136" cy="175.0216" r="0.6780" /> 
<circle cx="86.2731" cy="73.0731" r="0.6780" /> 
<circle cx="162.8889" cy="178.5255" r="0.6780" /> 
<circle cx="116.5111" cy="178.5255" r="0.6780" /> 
<circle cx="121.0117" cy="49.6415" r="0.6780" /> 
<circle cx="83.4912" cy="152.7277" r="0.6780" /> 
<circle cx="193.1269" cy="73.0731" r="0.6780" /> 
<circle cx="113.7964" cy="79.1615" r="0.6780" /> 
<circle cx="190.1885" cy="75.3688" r="0.6780" /> 
<circle cx="71.9416" cy="112.4485" r="0.6780" /> 
<circle cx="207.4584" cy="112.4485" r="0.6780" /> 
<circle cx="75.6685" cy="112.5787" r="0.6780" /> 
<circle cx="117.7864" cy="175.0216" r="0.6780" /> 
<circle cx="89.2115" cy="75.3688" r="0.6780" /> 
<circle cx="122.0395" cy="53.2261" r="0.6780" /> 
<circle cx="153.3183" cy="72.9016" r="0.6780" /> 
<circle cx="121.0117" cy="179.9880" r="0.6780" /> 
<circle cx="198.4167" cy="148.7146" r="0.6780" /> 
<circle cx="207.1283" cy="107.7276" r="0.6780" /> 
<circle cx="86.2731" cy="156.5564" r="0.6780" /> 
<circle cx="116.5111" cy="51.1039" r="0.6780" /> 
<circle cx="167.2769" cy="176.7532" r="0.6780" /> 
<circle cx="71.9416" cy="117.1809" r="0.6780" /> 
<circle cx="83.4912" cy="76.9018" r="0.6780" /> 
<circle cx="158.3883" cy="49.6415" r="0.6780" /> 
<circle cx="127.9293" cy="170.1902" r="0.6780" /> 
<circle cx="83.3970" cy="120.7323" r="0.6780" /> 
<circle cx="80.9833" cy="80.9148" r="0.6780" /> 
<circle cx="171.5300" cy="174.6786" r="0.6780" /> 
<circle cx="153.7963" cy="48.4964" r="0.6780" /> 
<circle cx="125.6037" cy="181.1331" r="0.6780" /> 
<circle cx="181.7718" cy="76.9336" r="0.6780" /> 
<circle cx="97.6282" cy="152.6958" r="0.6780" /> 
<circle cx="90.6719" cy="86.5083" r="0.6780" /> 
<circle cx="190.0847" cy="69.4478" r="0.6780" /> 
<circle cx="95.6301" cy="114.8147" r="0.6780" /> 
<circle cx="89.3153" cy="160.1816" r="0.6780" /> 
<circle cx="190.5831" cy="139.6322" r="0.6780" /> 
<circle cx="151.4707" cy="59.4392" r="0.6780" /> 
<circle cx="116.6731" cy="63.0964" r="0.6780" /> 
<circle cx="200.6378" cy="144.5361" r="0.6780" /> 
<circle cx="112.1231" cy="52.8762" r="0.6780" /> 
<circle cx="166.2782" cy="164.8008" r="0.6780" /> 
<circle cx="72.2717" cy="121.9018" r="0.6780" /> 
<circle cx="72.9301" cy="126.5882" r="0.6780" /> 
<circle cx="97.7828" cy="158.2208" r="0.6780" /> 
<circle cx="92.6022" cy="163.5858" r="0.6780" /> 
<circle cx="78.7622" cy="85.0933" r="0.6780" /> 
<circle cx="171.6764" cy="165.9873" r="0.6780" /> 
<circle cx="165.6036" cy="79.1615" r="0.6780" /> 
<circle cx="107.8700" cy="54.9509" r="0.6780" /> 
<circle cx="186.7978" cy="66.0436" r="0.6780" /> 
<circle cx="149.1357" cy="47.6746" r="0.6780" /> 
<circle cx="175.6285" cy="172.3124" r="0.6780" /> 
<circle cx="181.6172" cy="71.4086" r="0.6780" /> 
<circle cx="130.2643" cy="181.9548" r="0.6780" /> 
<circle cx="199.1252" cy="104.3363" r="0.6780" /> 
<circle cx="85.4649" cy="88.3626" r="0.6780" /> 
<circle cx="148.0977" cy="55.0601" r="0.6780" /> 
<circle cx="111.3712" cy="61.5363" r="0.6780" /> 
<circle cx="131.3023" cy="174.5694" r="0.6780" /> 
<circle cx="80.2748" cy="125.2932" r="0.6780" /> 
<circle cx="206.4699" cy="103.0413" r="0.6780" /> 
</g>
<g style="fill:#000000; fill-opacity:1.0000; stroke:none;">
<circle cx="120.7161" cy="77.5248" r="3.9053" /> 
<circle cx="176.9899" cy="133.7987" r="3.9053" /> 
<circle cx="158.6839" cy="77.5248" r="3.9053" /> 
<circle cx="102.4101" cy="133.7987" r="3.9053" /> 
</g>
<g style="fill:#FFFFFF; fill-opacity:1.0000; stroke:none;">
<circle cx="139.7000" cy="26.6750" r="3.3900" /> 
</g> 
</svg>
