<?xml version="1.0" standalone="no"?>
 <!DOCTYPE svg PUBLIC "-//W3C//DTD SVG 1.1//EN" 
 "http://www.w3.org/Graphics/SVG/1.1/DTD/svg11.dtd"> 
<svg
  xmlns:svg="http://www.w3.org/2000/svg"
  xmlns="http://www.w3.org/2000/svg"
  xmlns:xlink="http://www.w3.org/1999/xlink"
  xmlns:inkscape="http://www.inkscape.org/namespaces/inkscape"
  version="1.1"
  width="23.9776mm" height="25.9842mm" viewBox="0.0000 0.0000 23.9776 25.9842">
<title>SVG Image created as halo-90-Back.svg date 2026-07-18T06:28:25 </title>
  <desc>Image generated by PCBNEW </desc>
<g style="fill:#000000; fill-opacity:1.0000;stroke:#000000; stroke-opacity:1.0000;
stroke-linecap:round; stroke-linejoin:round;"
 transform="translate(0 0) scale(1 1)">
</g>
<g style="fill:#008400; fill-opacity:1.0000; stroke:none;">
<circle cx="11.9975" cy="1.0021" r="0.7500" /> 
<path style="fill:#008400; fill-opacity:1.0000; stroke:none;fill-rule:evenodd;"
d="M 0.7886,17.1523
0.6448,17.0898
0.5172,16.9988
0.4112,16.8832
0.3317,16.7481
0.2819,16.5994
0.1798,16.0859
0.1001,15.5684
0.0431,15.0480
0.0089,14.5255
-0.0025,14.0021
0.0089,13.4787
0.0431,12.9562
0.1001,12.4358
0.1798,11.9183
0.2819,11.4048
0.3317,11.2561
0.4112,11.1210
0.5172,11.0054
0.6448,10.9144
0.7886,10.8519
0.9422,10.8206
1.0990,10.8220
1.2521,10.8559
1.3948,10.9209
1.5208,11.0142
1.6247,11.1316
1.7019,11.2681
1.7491,11.4176
1.7641,11.5737
1.7464,11.7295
1.6968,11.9532
1.6172,12.4044
1.5574,12.8587
1.5174,13.3152
1.4975,13.7730
1.4975,14.2312
1.5174,14.6890
1.5574,15.1455
1.6172,15.5998
1.6968,16.0510
1.7464,16.2747
1.7641,16.4305
1.7491,16.5866
1.7019,16.7361
1.6247,16.8726
1.5208,16.9900
1.3948,17.0833
1.2521,17.1483
1.0990,17.1822
0.9422,17.1836
Z" /> 
<path style="fill:#008400; fill-opacity:1.0000; stroke:none;fill-rule:evenodd;"
d="M 23.2063,10.8519
23.3501,10.9144
23.4778,11.0054
23.5837,11.1210
23.6633,11.2561
23.7130,11.4048
23.8152,11.9183
23.8948,12.4358
23.9518,12.9562
23.9860,13.4787
23.9975,14.0021
23.9860,14.5255
23.9518,15.0480
23.8948,15.5684
23.8152,16.0859
23.7130,16.5994
23.6633,16.7481
23.5837,16.8832
23.4778,16.9988
23.3501,17.0898
23.2063,17.1523
23.0527,17.1836
22.8959,17.1822
22.7428,17.1483
22.6001,17.0833
22.4741,16.9900
22.3702,16.8726
22.2930,16.7361
22.2458,16.5866
22.2308,16.4305
22.2486,16.2747
22.2982,16.0510
22.3777,15.5998
22.4375,15.1455
22.4775,14.6890
22.4975,14.2312
22.4975,13.7730
22.4775,13.3152
22.4375,12.8587
22.3777,12.4044
22.2982,11.9532
22.2486,11.7295
22.2308,11.5737
22.2458,11.4176
22.2930,11.2681
22.3702,11.1316
22.4741,11.0142
22.6001,10.9209
22.7428,10.8559
22.8959,10.8220
23.0527,10.8206
Z" /> 
<circle cx="11.9975" cy="14.0021" r="6.0000" /> 
<circle cx="18.1794" cy="16.0107" r="0.2250" /> 
<circle cx="17.2561" cy="17.8227" r="0.2250" /> 
<circle cx="9.9889" cy="20.1840" r="0.2250" /> 
<circle cx="9.9889" cy="7.8202" r="0.2250" /> 
<circle cx="14.0061" cy="20.1840" r="0.2250" /> 
<circle cx="18.4975" cy="14.0021" r="0.2250" /> 
<circle cx="8.1769" cy="19.2607" r="0.2250" /> 
<circle cx="15.8181" cy="19.2607" r="0.2250" /> 
<circle cx="11.9975" cy="20.5021" r="0.2250" /> 
<circle cx="11.9975" cy="7.5021" r="0.2250" /> 
<circle cx="2.7257" cy="10.2560" r="0.2250" /> 
<circle cx="6.6983" cy="5.5216" r="0.2250" /> 
<circle cx="12.6951" cy="4.0265" r="0.2250" /> 
<circle cx="2.8282" cy="16.2883" r="0.2250" /> 
<circle cx="20.7594" cy="17.5421" r="0.2250" /> 
<circle cx="11.3383" cy="23.4291" r="0.2250" /> 
<circle cx="5.9232" cy="21.2412" r="0.2250" /> 
<circle cx="18.0718" cy="6.7630" r="0.2250" /> 
<circle cx="18.4254" cy="6.3417" r="0.2250" /> 
<circle cx="21.1668" cy="11.7159" r="0.2250" /> 
<circle cx="5.5696" cy="21.6625" r="0.2250" /> 
<circle cx="3.2356" cy="10.4621" r="0.2250" /> 
<circle cx="12.6567" cy="4.5751" r="0.2250" /> 
<circle cx="18.1794" cy="11.9935" r="0.2250" /> 
<circle cx="21.2693" cy="17.7482" r="0.2250" /> 
<circle cx="11.2999" cy="23.9777" r="0.2250" /> 
<circle cx="2.2945" cy="16.4213" r="0.2250" /> 
<circle cx="21.7005" cy="11.5829" r="0.2250" /> 
<circle cx="6.9898" cy="5.9880" r="0.2250" /> 
<circle cx="4.0562" cy="11.4218" r="0.2250" /> 
<circle cx="17.8754" cy="22.0923" r="0.2250" /> 
<circle cx="5.8156" cy="16.0107" r="0.2250" /> 
<circle cx="17.8754" cy="5.9119" r="0.2250" /> 
<circle cx="21.5081" cy="17.0923" r="0.2250" /> 
<circle cx="16.9055" cy="20.7574" r="0.2250" /> 
<circle cx="11.9975" cy="5.6521" r="0.2250" /> 
<circle cx="7.0895" cy="7.2468" r="0.2250" /> 
<circle cx="2.4869" cy="17.0923" r="0.2250" /> 
<circle cx="16.9055" cy="7.2468" r="0.2250" /> 
<circle cx="19.9388" cy="11.4218" r="0.2250" /> 
<circle cx="19.9388" cy="16.5824" r="0.2250" /> 
<circle cx="4.0562" cy="16.5824" r="0.2250" /> 
<circle cx="11.9975" cy="22.3521" r="0.2250" /> 
<circle cx="21.5081" cy="10.9119" r="0.2250" /> 
<circle cx="6.1196" cy="5.9119" r="0.2250" /> 
<circle cx="11.9975" cy="4.0021" r="0.2250" /> 
<circle cx="2.4869" cy="10.9119" r="0.2250" /> 
<circle cx="11.9975" cy="24.0021" r="0.2250" /> 
<circle cx="5.5696" cy="6.3417" r="0.2250" /> 
<circle cx="16.7138" cy="6.4545" r="0.2250" /> 
<circle cx="17.7183" cy="20.8199" r="0.2250" /> 
<circle cx="17.2967" cy="5.5216" r="0.2250" /> 
<circle cx="6.2767" cy="7.1843" r="0.2250" /> 
<circle cx="2.2945" cy="11.5829" r="0.2250" /> 
<circle cx="21.7005" cy="16.4213" r="0.2250" /> 
<circle cx="21.2693" cy="10.2560" r="0.2250" /> 
<circle cx="11.3767" cy="5.1238" r="0.2250" /> 
<circle cx="6.1196" cy="22.0923" r="0.2250" /> 
<circle cx="18.4254" cy="21.6625" r="0.2250" /> 
<circle cx="6.7389" cy="17.8227" r="0.2250" /> 
<circle cx="3.3619" cy="11.8490" r="0.2250" /> 
<circle cx="12.6951" cy="23.9777" r="0.2250" /> 
<circle cx="11.2999" cy="4.0265" r="0.2250" /> 
<circle cx="20.2494" cy="10.6681" r="0.2250" /> 
<circle cx="6.7662" cy="21.2024" r="0.2250" /> 
<circle cx="20.6331" cy="16.1552" r="0.2250" /> 
<circle cx="12.6183" cy="22.8804" r="0.2250" /> 
<circle cx="16.6922" cy="5.1726" r="0.2250" /> 
<circle cx="21.3039" cy="15.6431" r="0.2250" /> 
<circle cx="17.2561" cy="10.1815" r="0.2250" /> 
<circle cx="20.9854" cy="9.6184" r="0.2250" /> 
<circle cx="2.7257" cy="17.7482" r="0.2250" /> 
<circle cx="10.6058" cy="4.0994" r="0.2250" /> 
<circle cx="5.0509" cy="6.8087" r="0.2250" /> 
<circle cx="18.9441" cy="21.1955" r="0.2250" /> 
<circle cx="13.3892" cy="23.9048" r="0.2250" /> 
<circle cx="6.6983" cy="22.4826" r="0.2250" /> 
<circle cx="2.1494" cy="12.2656" r="0.2250" /> 
<circle cx="20.6578" cy="9.0021" r="0.2250" /> 
<circle cx="7.3028" cy="22.8316" r="0.2250" /> 
<circle cx="3.0096" cy="18.3858" r="0.2250" /> 
<circle cx="19.4289" cy="20.6934" r="0.2250" /> 
<circle cx="21.9427" cy="15.0474" r="0.2250" /> 
<circle cx="13.7336" cy="22.1696" r="0.2250" /> 
<circle cx="16.0649" cy="4.8666" r="0.2250" /> 
<circle cx="9.9184" cy="4.2206" r="0.2250" /> 
<circle cx="10.2614" cy="5.8346" r="0.2250" /> 
<circle cx="4.4926" cy="17.6625" r="0.2250" /> 
<circle cx="18.2028" cy="19.5893" r="0.2250" /> 
<circle cx="19.2288" cy="9.8271" r="0.2250" /> 
<circle cx="15.3938" cy="6.3740" r="0.2250" /> 
<circle cx="5.8156" cy="11.9935" r="0.2250" /> 
<circle cx="3.9975" cy="12.5021" r="0.2250" /> 
<circle cx="14.0766" cy="23.7836" r="0.2250" /> 
<circle cx="8.0774" cy="21.3747" r="0.2250" /> 
<circle cx="20.3018" cy="14.8749" r="0.2250" /> 
<circle cx="14.7539" cy="23.6147" r="0.2250" /> 
<circle cx="4.2899" cy="18.4521" r="0.2250" /> 
<circle cx="7.9301" cy="23.1376" r="0.2250" /> 
<circle cx="21.9914" cy="14.3511" r="0.2250" /> 
<circle cx="15.4177" cy="4.6052" r="0.2250" /> 
<circle cx="19.8776" cy="20.1587" r="0.2250" /> 
<circle cx="8.3775" cy="22.1327" r="0.2250" /> 
<circle cx="3.3372" cy="19.0021" r="0.2250" /> 
<circle cx="20.2879" cy="8.4102" r="0.2250" /> 
<circle cx="19.3759" cy="9.0253" r="0.2250" /> 
<circle cx="14.4507" cy="22.5573" r="0.2250" /> 
<circle cx="5.3835" cy="8.0468" r="0.2250" /> 
<circle cx="2.0523" cy="12.9568" r="0.2250" /> 
<circle cx="19.0108" cy="19.4815" r="0.2250" /> 
<circle cx="20.8921" cy="14.3127" r="0.2250" /> 
<circle cx="4.5661" cy="7.3108" r="0.2250" /> 
<circle cx="15.0415" cy="5.6388" r="0.2250" /> 
<circle cx="6.7389" cy="10.1815" r="0.2250" /> 
<circle cx="3.1463" cy="13.0718" r="0.2250" /> 
<circle cx="4.1631" cy="19.2865" r="0.2250" /> 
<circle cx="21.4417" cy="13.6723" r="0.2250" /> 
<circle cx="20.2879" cy="19.5940" r="0.2250" /> 
<circle cx="19.8319" cy="19.2865" r="0.2250" /> 
<circle cx="15.2296" cy="22.8822" r="0.2250" /> 
<circle cx="4.1174" cy="7.8455" r="0.2250" /> 
<circle cx="15.4177" cy="23.3990" r="0.2250" /> 
<circle cx="8.5773" cy="23.3990" r="0.2250" /> 
<circle cx="9.2411" cy="4.3895" r="0.2250" /> 
<circle cx="3.7071" cy="19.5940" r="0.2250" /> 
<circle cx="19.8776" cy="7.8455" r="0.2250" /> 
<circle cx="8.1769" cy="8.7435" r="0.2250" /> 
<circle cx="19.4442" cy="8.1841" r="0.2250" /> 
<circle cx="2.0036" cy="13.6531" r="0.2250" /> 
<circle cx="21.9914" cy="13.6531" r="0.2250" /> 
<circle cx="2.5533" cy="13.6723" r="0.2250" /> 
<circle cx="8.7654" cy="22.8822" r="0.2250" /> 
<circle cx="4.5508" cy="8.1841" r="0.2250" /> 
<circle cx="9.3927" cy="4.9182" r="0.2250" /> 
<circle cx="14.0061" cy="7.8202" r="0.2250" /> 
<circle cx="9.2411" cy="23.6147" r="0.2250" /> 
<circle cx="20.6578" cy="19.0021" r="0.2250" /> 
<circle cx="21.9427" cy="12.9568" r="0.2250" /> 
<circle cx="4.1174" cy="20.1587" r="0.2250" /> 
<circle cx="8.5773" cy="4.6052" r="0.2250" /> 
<circle cx="16.0649" cy="23.1376" r="0.2250" /> 
<circle cx="2.0036" cy="14.3511" r="0.2250" /> 
<circle cx="3.7071" cy="8.4102" r="0.2250" /> 
<circle cx="14.7539" cy="4.3895" r="0.2250" /> 
<circle cx="10.2614" cy="22.1696" r="0.2250" /> 
<circle cx="3.6932" cy="14.8749" r="0.2250" /> 
<circle cx="3.3372" cy="9.0021" r="0.2250" /> 
<circle cx="16.6922" cy="22.8316" r="0.2250" /> 
<circle cx="14.0766" cy="4.2206" r="0.2250" /> 
<circle cx="9.9184" cy="23.7836" r="0.2250" /> 
<circle cx="18.2028" cy="8.4149" r="0.2250" /> 
<circle cx="5.7922" cy="19.5893" r="0.2250" /> 
<circle cx="4.7662" cy="9.8271" r="0.2250" /> 
<circle cx="19.4289" cy="7.3108" r="0.2250" /> 
<circle cx="5.4975" cy="14.0021" r="0.2250" /> 
<circle cx="4.5661" cy="20.6934" r="0.2250" /> 
<circle cx="19.5024" cy="17.6625" r="0.2250" /> 
<circle cx="13.7336" cy="5.8346" r="0.2250" /> 
<circle cx="8.6012" cy="6.3740" r="0.2250" /> 
<circle cx="20.9854" cy="18.3858" r="0.2250" /> 
<circle cx="7.9301" cy="4.8666" r="0.2250" /> 
<circle cx="15.9176" cy="21.3747" r="0.2250" /> 
<circle cx="2.0523" cy="15.0474" r="0.2250" /> 
<circle cx="2.1494" cy="15.7386" r="0.2250" /> 
<circle cx="5.8150" cy="20.4042" r="0.2250" /> 
<circle cx="5.0509" cy="21.1955" r="0.2250" /> 
<circle cx="3.0096" cy="9.6184" r="0.2250" /> 
<circle cx="16.7138" cy="21.5497" r="0.2250" /> 
<circle cx="15.8181" cy="8.7435" r="0.2250" /> 
<circle cx="7.3028" cy="5.1726" r="0.2250" /> 
<circle cx="18.9441" cy="6.8087" r="0.2250" /> 
<circle cx="13.3892" cy="4.0994" r="0.2250" /> 
<circle cx="17.2967" cy="22.4826" r="0.2250" /> 
<circle cx="18.1800" cy="7.6000" r="0.2250" /> 
<circle cx="10.6058" cy="23.9048" r="0.2250" /> 
<circle cx="20.7623" cy="12.4566" r="0.2250" /> 
<circle cx="3.9982" cy="10.1006" r="0.2250" /> 
<circle cx="13.2361" cy="5.1887" r="0.2250" /> 
<circle cx="7.8192" cy="6.1439" r="0.2250" /> 
<circle cx="10.7589" cy="22.8155" r="0.2250" /> 
<circle cx="3.2327" cy="15.5476" r="0.2250" /> 
<circle cx="21.8456" cy="12.2656" r="0.2250" /> 
</g>
<g style="fill:none; 
stroke:#008400; stroke-width:0.5000; stroke-opacity:1; 
stroke-linecap:round; stroke-linejoin:round;">
<path d="M13.8975 24.9021
L11.0975 25.1021
" />
</g>
<g style="fill:none; 
stroke:#008400; stroke-width:0.1270; stroke-opacity:1; 
stroke-linecap:round; stroke-linejoin:round;">
<path d="M23.2475 14.0021
L22.5975 16.1021
" />
</g>
<g style="fill:none; 
stroke:#008400; stroke-width:0.5000; stroke-opacity:1; 
stroke-linecap:round; stroke-linejoin:round;">
<path d="M21.5975 20.0021
L20.6975 21.2021
" />
</g>
<g style="fill:none; 
stroke:#008400; stroke-width:0.1270; stroke-opacity:1; 
stroke-linecap:round; stroke-linejoin:round;">
<path d="M21.7975 15.9021
L21.1975 16.2021
" />
</g>
<g style="fill:none; 
stroke:#008400; stroke-width:0.5000; stroke-opacity:1; 
stroke-linecap:round; stroke-linejoin:round;">
<path d="M22.5975 18.1021
L21.5975 20.0021
" />
<path d="M19.2975 22.5021
L17.6975 23.6021
" />
<path d="M1.7975 18.9021
L1.2975 17.5021
" />
<path d="M17.6975 23.6021
L16.2975 24.3021
" />
<path d="M8.8975 24.7021
L5.8975 23.6021
" />
<path d="M16.2975 24.3021
L13.8975 24.9021
" />
</g>
<g style="fill:none; 
stroke:#008400; stroke-width:0.1270; stroke-opacity:1; 
stroke-linecap:round; stroke-linejoin:round;">
<path d="M21.7975 15.5021
L21.3975 15.1021
" />
</g>
<g style="fill:none; 
stroke:#008400; stroke-width:0.5000; stroke-opacity:1; 
stroke-linecap:round; stroke-linejoin:round;">
<path d="M20.6975 21.2021
L19.2975 22.5021
" />
<path d="M4.3975 22.2021
L2.8975 20.6021
" />
<path d="M11.0975 25.1021
L8.8975 24.7021
" />
<path d="M1.2975 17.5021
L0.7475 14.0021
" />
<path d="M5.8975 23.6021
L4.3975 22.2021
" />
</g>
<g style="fill:none; 
stroke:#008400; stroke-width:0.1270; stroke-opacity:1; 
stroke-linecap:round; stroke-linejoin:round;">
<path d="M21.3975 15.1021
L20.5975 15.4021
" />
<path d="M22.5975 16.1021
L21.7975 15.9021
" />
<path d="M20.5975 15.4021
L19.2975 15.2021
" />
</g>
<g style="fill:none; 
stroke:#008400; stroke-width:0.5000; stroke-opacity:1; 
stroke-linecap:round; stroke-linejoin:round;">
<path d="M23.2475 14.0021
L22.5975 18.1021
" />
</g>
<g style="fill:none; 
stroke:#008400; stroke-width:0.1270; stroke-opacity:1; 
stroke-linecap:round; stroke-linejoin:round;">
<path d="M21.1975 16.2021
L20.5975 15.4021
" />
<path d="M19.2975 15.2021
L18.4975 14.0021
" />
<path d="M22.5975 15.7021
L21.7975 15.5021
" />
</g>
<g style="fill:none; 
stroke:#008400; stroke-width:0.5000; stroke-opacity:1; 
stroke-linecap:round; stroke-linejoin:round;">
<path d="M2.8975 20.6021
L1.7975 18.9021
" />
</g>
<g style="fill:none; 
stroke:#008400; stroke-width:0.1270; stroke-opacity:1; 
stroke-linecap:round; stroke-linejoin:round;">
<path d="M23.2475 14.0021
L22.5975 15.7021
" />
</g>
<g style="fill:none; 
stroke:#008400; stroke-width:0.5080; stroke-opacity:1; 
stroke-linecap:round; stroke-linejoin:round;">
<path d="M11.9975 20.5021
L11.9975 14.0021
" />
</g>
<g style="fill:none; 
stroke:#008400; stroke-width:0.5000; stroke-opacity:1; 
stroke-linecap:round; stroke-linejoin:round;">
<path d="M8.1769 19.2607
L11.9975 14.0021
" />
<path d="M11.9975 7.5021
L11.9975 14.0021
" />
</g>
<g style="fill:none; 
stroke:#008400; stroke-width:0.1280; stroke-opacity:1; 
stroke-linecap:round; stroke-linejoin:round;">
<path d="M2.8282 16.2883
L2.2945 16.4213
" />
<path d="M11.3383 23.4291
L11.2999 23.9777
" />
<path d="M3.2356 10.4621
L2.7257 10.2560
" />
<path d="M20.7594 17.5421
L21.2693 17.7482
" />
<path d="M5.9232 21.2412
L5.5696 21.6625
" />
<path d="M12.6567 4.5751
L12.6951 4.0265
" />
</g>
<g style="fill:none; 
stroke:#008400; stroke-width:0.3000; stroke-opacity:1; 
stroke-linecap:round; stroke-linejoin:round;">
<path d="M19.8975 12.0021
L21.1668 11.7159
" />
</g>
<g style="fill:none; 
stroke:#008400; stroke-width:0.1280; stroke-opacity:1; 
stroke-linecap:round; stroke-linejoin:round;">
<path d="M21.1668 11.7159
L21.7005 11.5829
" />
<path d="M6.9898 5.9880
L6.6983 5.5216
" />
</g>
<g style="fill:none; 
stroke:#008400; stroke-width:0.3000; stroke-opacity:1; 
stroke-linecap:round; stroke-linejoin:round;">
<path d="M18.1794 11.9935
L19.8975 12.0021
" />
</g>
<g style="fill:none; 
stroke:#008400; stroke-width:0.1280; stroke-opacity:1; 
stroke-linecap:round; stroke-linejoin:round;">
<path d="M18.0718 6.7630
L18.4254 6.3417
" />
<path d="M7.0895 7.2468
L6.1196 5.9119
" />
<path d="M4.0562 16.5824
L2.4869 17.0923
" />
<path d="M4.0562 11.4218
L2.4869 10.9119
" />
<path d="M11.9975 5.6521
L11.9975 4.0021
" />
<path d="M16.9055 20.7574
L17.8754 22.0923
" />
</g>
<g style="fill:none; 
stroke:#008400; stroke-width:0.1270; stroke-opacity:1; 
stroke-linecap:round; stroke-linejoin:round;">
<path d="M21.5073 17.0923
L21.4975 17.1021
" />
</g>
<g style="fill:none; 
stroke:#008400; stroke-width:0.1280; stroke-opacity:1; 
stroke-linecap:round; stroke-linejoin:round;">
<path d="M19.9778 16.5824
L20.4975 17.1021
" />
<path d="M19.9388 16.5824
L19.9778 16.5824
" />
</g>
<g style="fill:none; 
stroke:#008400; stroke-width:0.3000; stroke-opacity:1; 
stroke-linecap:round; stroke-linejoin:round;">
<path d="M5.8156 16.0107
L4.0562 16.5824
" />
</g>
<g style="fill:none; 
stroke:#008400; stroke-width:0.1280; stroke-opacity:1; 
stroke-linecap:round; stroke-linejoin:round;">
<path d="M19.9388 11.4218
L21.5081 10.9119
" />
<path d="M20.9975 17.1021
L21.4975 17.1021
" />
<path d="M16.9055 7.2468
L17.8754 5.9119
" />
<path d="M11.9975 22.3521
L11.9975 24.0021
" />
</g>
<g style="fill:none; 
stroke:#008400; stroke-width:0.1270; stroke-opacity:1; 
stroke-linecap:round; stroke-linejoin:round;">
<path d="M21.5081 17.0923
L21.5073 17.0923
" />
</g>
<g style="fill:none; 
stroke:#008400; stroke-width:0.1280; stroke-opacity:1; 
stroke-linecap:round; stroke-linejoin:round;">
<path d="M20.4975 17.1021
L20.9975 17.1021
" />
<path d="M11.3767 5.1238
L11.2999 4.0265
" />
</g>
<g style="fill:none; 
stroke:#008400; stroke-width:0.1270; stroke-opacity:1; 
stroke-linecap:round; stroke-linejoin:round;">
<path d="M21.7005 16.4213
L21.5783 16.4213
" />
</g>
<g style="fill:none; 
stroke:#008400; stroke-width:0.1280; stroke-opacity:1; 
stroke-linecap:round; stroke-linejoin:round;">
<path d="M6.7662 21.2024
L6.1196 22.0923
" />
<path d="M20.7975 16.8021
L21.0975 16.8021
" />
<path d="M12.6183 22.8804
L12.6951 23.9777
" />
</g>
<g style="fill:none; 
stroke:#008400; stroke-width:0.1270; stroke-opacity:1; 
stroke-linecap:round; stroke-linejoin:round;">
<path d="M21.1975 16.8021
L21.0975 16.8021
" />
</g>
<g style="fill:none; 
stroke:#008400; stroke-width:0.1280; stroke-opacity:1; 
stroke-linecap:round; stroke-linejoin:round;">
<path d="M17.7183 20.8199
L18.4254 21.6625
" />
<path d="M6.2767 7.1843
L5.5696 6.3417
" />
<path d="M16.7138 6.4545
L17.2967 5.5216
" />
<path d="M3.3619 11.8490
L2.2945 11.5829
" />
<path d="M20.6331 16.6377
L20.7975 16.8021
" />
</g>
<g style="fill:none; 
stroke:#008400; stroke-width:0.3000; stroke-opacity:1; 
stroke-linecap:round; stroke-linejoin:round;">
<path d="M6.7389 17.8227
L7.1975 20.5021
" />
</g>
<g style="fill:none; 
stroke:#008400; stroke-width:0.1270; stroke-opacity:1; 
stroke-linecap:round; stroke-linejoin:round;">
<path d="M21.5783 16.4213
L21.1975 16.8021
" />
</g>
<g style="fill:none; 
stroke:#008400; stroke-width:0.1280; stroke-opacity:1; 
stroke-linecap:round; stroke-linejoin:round;">
<path d="M20.6331 16.1552
L20.6331 16.6377
" />
</g>
<g style="fill:none; 
stroke:#008400; stroke-width:0.3000; stroke-opacity:1; 
stroke-linecap:round; stroke-linejoin:round;">
<path d="M7.1975 20.5021
L6.7662 21.2024
" />
</g>
<g style="fill:none; 
stroke:#008400; stroke-width:0.1280; stroke-opacity:1; 
stroke-linecap:round; stroke-linejoin:round;">
<path d="M20.2494 10.6681
L21.2693 10.2560
" />
</g>
<g style="fill:none; 
stroke:#008400; stroke-width:0.3000; stroke-opacity:1; 
stroke-linecap:round; stroke-linejoin:round;">
<path d="M17.2561 10.1815
L19.1975 10.5021
" />
<path d="M19.1975 10.5021
L20.9854 9.6184
" />
</g>
<g style="fill:none; 
stroke:#008400; stroke-width:0.1280; stroke-opacity:1; 
stroke-linecap:round; stroke-linejoin:round;">
<path d="M4.4926 17.6625
L3.0096 18.3858
" />
<path d="M10.2614 5.8346
L9.9184 4.2206
" />
</g>
<g style="fill:none; 
stroke:#008400; stroke-width:0.3000; stroke-opacity:1; 
stroke-linecap:round; stroke-linejoin:round;">
<path d="M5.3070 12.5021
L5.8156 11.9935
" />
</g>
<g style="fill:none; 
stroke:#008400; stroke-width:0.1280; stroke-opacity:1; 
stroke-linecap:round; stroke-linejoin:round;">
<path d="M20.9247 14.8749
L21.1975 14.6021
" />
<path d="M8.0774 21.3747
L7.3028 22.8316
" />
<path d="M15.3938 6.3740
L16.0649 4.8666
" />
</g>
<g style="fill:none; 
stroke:#008400; stroke-width:0.1270; stroke-opacity:1; 
stroke-linecap:round; stroke-linejoin:round;">
<path d="M21.4974 14.6021
L21.9427 15.0474
" />
</g>
<g style="fill:none; 
stroke:#008400; stroke-width:0.1280; stroke-opacity:1; 
stroke-linecap:round; stroke-linejoin:round;">
<path d="M13.7336 22.1696
L14.0766 23.7836
" />
<path d="M3.9975 12.5021
L3.7610 12.2656
" />
<path d="M18.2028 19.5893
L19.4289 20.6934
" />
<path d="M20.3018 14.8749
L20.9247 14.8749
" />
</g>
<g style="fill:none; 
stroke:#008400; stroke-width:0.3000; stroke-opacity:1; 
stroke-linecap:round; stroke-linejoin:round;">
<path d="M3.9975 12.5021
L5.3070 12.5021
" />
</g>
<g style="fill:none; 
stroke:#008400; stroke-width:0.1280; stroke-opacity:1; 
stroke-linecap:round; stroke-linejoin:round;">
<path d="M19.2288 9.8271
L20.6578 9.0021
" />
<path d="M3.7610 12.2656
L2.1494 12.2656
" />
</g>
<g style="fill:none; 
stroke:#008400; stroke-width:0.1270; stroke-opacity:1; 
stroke-linecap:round; stroke-linejoin:round;">
<path d="M21.1975 14.6021
L21.4974 14.6021
" />
</g>
<g style="fill:none; 
stroke:#008400; stroke-width:0.1280; stroke-opacity:1; 
stroke-linecap:round; stroke-linejoin:round;">
<path d="M14.4507 22.5573
L14.7539 23.6147
" />
<path d="M4.2899 18.4521
L3.3372 19.0021
" />
<path d="M8.3775 22.1327
L7.9301 23.1376
" />
<path d="M19.3759 9.0253
L20.2879 8.4102
" />
</g>
<g style="fill:none; 
stroke:#008400; stroke-width:0.3000; stroke-opacity:1; 
stroke-linecap:round; stroke-linejoin:round;">
<path d="M6.0975 8.6021
L5.3835 8.0468
" />
</g>
<g style="fill:none; 
stroke:#008400; stroke-width:0.1280; stroke-opacity:1; 
stroke-linecap:round; stroke-linejoin:round;">
<path d="M19.0108 19.4815
L19.8776 20.1587
" />
<path d="M5.3835 8.0468
L4.5661 7.3108
" />
</g>
<g style="fill:none; 
stroke:#008400; stroke-width:0.3000; stroke-opacity:1; 
stroke-linecap:round; stroke-linejoin:round;">
<path d="M6.7389 10.1815
L6.0975 8.6021
" />
</g>
<g style="fill:none; 
stroke:#008400; stroke-width:0.1280; stroke-opacity:1; 
stroke-linecap:round; stroke-linejoin:round;">
<path d="M15.0415 5.6388
L15.4177 4.6052
" />
<path d="M20.8921 14.3127
L21.9914 14.3511
" />
<path d="M3.1463 13.0718
L2.0523 12.9568
" />
<path d="M9.3927 4.9182
L9.2411 4.3895
" />
<path d="M4.5508 8.1841
L4.1174 7.8455
" />
<path d="M4.1631 19.2865
L3.7071 19.5940
" />
<path d="M19.8319 19.2865
L20.2879 19.5940
" />
<path d="M19.4442 8.1841
L19.8776 7.8455
" />
</g>
<g style="fill:none; 
stroke:#008400; stroke-width:0.3000; stroke-opacity:1; 
stroke-linecap:round; stroke-linejoin:round;">
<path d="M8.1769 8.7435
L8.2975 7.4021
" />
<path d="M9.4975 6.8021
L9.4975 5.4021
" />
</g>
<g style="fill:none; 
stroke:#008400; stroke-width:0.1280; stroke-opacity:1; 
stroke-linecap:round; stroke-linejoin:round;">
<path d="M21.4417 13.6723
L21.9914 13.6531
" />
</g>
<g style="fill:none; 
stroke:#008400; stroke-width:0.3000; stroke-opacity:1; 
stroke-linecap:round; stroke-linejoin:round;">
<path d="M9.4975 5.4021
L9.3927 4.9182
" />
<path d="M8.2975 7.4021
L9.4975 6.8021
" />
</g>
<g style="fill:none; 
stroke:#008400; stroke-width:0.1280; stroke-opacity:1; 
stroke-linecap:round; stroke-linejoin:round;">
<path d="M15.2296 22.8822
L15.4177 23.3990
" />
<path d="M8.7654 22.8822
L8.5773 23.3990
" />
<path d="M2.5533 13.6723
L2.0036 13.6531
" />
</g>
<g style="fill:none; 
stroke:#008400; stroke-width:0.3000; stroke-opacity:1; 
stroke-linecap:round; stroke-linejoin:round;">
<path d="M14.5975 4.9021
L14.7539 4.3895
" />
<path d="M14.0061 7.8202
L14.5975 4.9021
" />
</g>
<g style="fill:none; 
stroke:#008400; stroke-width:0.1280; stroke-opacity:1; 
stroke-linecap:round; stroke-linejoin:round;">
<path d="M8.6012 6.3740
L7.9301 4.8666
" />
<path d="M13.7336 5.8346
L14.0766 4.2206
" />
<path d="M10.2614 22.1696
L9.9184 23.7836
" />
<path d="M19.5024 17.6625
L20.9854 18.3858
" />
<path d="M18.2028 8.4149
L19.4289 7.3108
" />
<path d="M4.7662 9.8271
L3.3372 9.0021
" />
<path d="M5.7922 19.5893
L4.5661 20.6934
" />
<path d="M3.6932 14.8749
L2.0523 15.0474
" />
<path d="M15.9176 21.3747
L16.6922 22.8316
" />
</g>
<g style="fill:none; 
stroke:#008400; stroke-width:0.3000; stroke-opacity:1; 
stroke-linecap:round; stroke-linejoin:round;">
<path d="M5.4975 14.0021
L3.6932 14.8749
" />
</g>
<g style="fill:none; 
stroke:#008400; stroke-width:0.1280; stroke-opacity:1; 
stroke-linecap:round; stroke-linejoin:round;">
<path d="M10.7589 22.8155
L10.6058 23.9048
" />
</g>
<g style="fill:none; 
stroke:#008400; stroke-width:0.3000; stroke-opacity:1; 
stroke-linecap:round; stroke-linejoin:round;">
<path d="M15.8181 8.7435
L18.1800 7.6000
" />
</g>
<g style="fill:none; 
stroke:#008400; stroke-width:0.1280; stroke-opacity:1; 
stroke-linecap:round; stroke-linejoin:round;">
<path d="M5.8150 20.4042
L5.0509 21.1955
" />
<path d="M18.1800 7.6000
L18.9441 6.8087
" />
<path d="M16.7138 21.5497
L17.2967 22.4826
" />
<path d="M13.2361 5.1887
L13.3892 4.0994
" />
<path d="M3.2327 15.5476
L2.1494 15.7386
" />
<path d="M20.7623 12.4566
L21.8456 12.2656
" />
<path d="M3.9982 10.1006
L3.0096 9.6184
" />
<path d="M7.8192 6.1439
L7.3028 5.1726
" />
</g>
<g style="fill:#FFFFFF; fill-opacity:1.0000; stroke:none;">
<circle cx="18.1794" cy="16.0107" r="0.1000" /> 
<circle cx="17.2561" cy="17.8227" r="0.1000" /> 
<circle cx="9.9889" cy="20.1840" r="0.1000" /> 
<circle cx="9.9889" cy="7.8202" r="0.1000" /> 
<circle cx="14.0061" cy="20.1840" r="0.1000" /> 
<circle cx="18.4975" cy="14.0021" r="0.1000" /> 
<circle cx="8.1769" cy="19.2607" r="0.1000" /> 
<circle cx="15.8181" cy="19.2607" r="0.1000" /> 
<circle cx="11.9975" cy="20.5021" r="0.1000" /> 
<circle cx="11.9975" cy="7.5021" r="0.1000" /> 
<circle cx="2.7257" cy="10.2560" r="0.1000" /> 
<circle cx="6.6983" cy="5.5216" r="0.1000" /> 
<circle cx="12.6951" cy="4.0265" r="0.1000" /> 
<circle cx="2.8282" cy="16.2883" r="0.1000" /> 
<circle cx="20.7594" cy="17.5421" r="0.1000" /> 
<circle cx="11.3383" cy="23.4291" r="0.1000" /> 
<circle cx="5.9232" cy="21.2412" r="0.1000" /> 
<circle cx="18.0718" cy="6.7630" r="0.1000" /> 
<circle cx="18.4254" cy="6.3417" r="0.1000" /> 
<circle cx="21.1668" cy="11.7159" r="0.1000" /> 
<circle cx="5.5696" cy="21.6625" r="0.1000" /> 
<circle cx="3.2356" cy="10.4621" r="0.1000" /> 
<circle cx="12.6567" cy="4.5751" r="0.1000" /> 
<circle cx="18.1794" cy="11.9935" r="0.1000" /> 
<circle cx="21.2693" cy="17.7482" r="0.1000" /> 
<circle cx="11.2999" cy="23.9777" r="0.1000" /> 
<circle cx="2.2945" cy="16.4213" r="0.1000" /> 
<circle cx="21.7005" cy="11.5829" r="0.1000" /> 
<circle cx="6.9898" cy="5.9880" r="0.1000" /> 
<circle cx="4.0562" cy="11.4218" r="0.1000" /> 
<circle cx="17.8754" cy="22.0923" r="0.1000" /> 
<circle cx="5.8156" cy="16.0107" r="0.1000" /> 
<circle cx="17.8754" cy="5.9119" r="0.1000" /> 
<circle cx="21.5081" cy="17.0923" r="0.1000" /> 
<circle cx="16.9055" cy="20.7574" r="0.1000" /> 
<circle cx="11.9975" cy="5.6521" r="0.1000" /> 
<circle cx="7.0895" cy="7.2468" r="0.1000" /> 
<circle cx="2.4869" cy="17.0923" r="0.1000" /> 
<circle cx="16.9055" cy="7.2468" r="0.1000" /> 
<circle cx="19.9388" cy="11.4218" r="0.1000" /> 
<circle cx="19.9388" cy="16.5824" r="0.1000" /> 
<circle cx="4.0562" cy="16.5824" r="0.1000" /> 
<circle cx="11.9975" cy="22.3521" r="0.1000" /> 
<circle cx="21.5081" cy="10.9119" r="0.1000" /> 
<circle cx="6.1196" cy="5.9119" r="0.1000" /> 
<circle cx="11.9975" cy="4.0021" r="0.1000" /> 
<circle cx="2.4869" cy="10.9119" r="0.1000" /> 
<circle cx="11.9975" cy="24.0021" r="0.1000" /> 
<circle cx="5.5696" cy="6.3417" r="0.1000" /> 
<circle cx="16.7138" cy="6.4545" r="0.1000" /> 
<circle cx="17.7183" cy="20.8199" r="0.1000" /> 
<circle cx="17.2967" cy="5.5216" r="0.1000" /> 
<circle cx="6.2767" cy="7.1843" r="0.1000" /> 
<circle cx="2.2945" cy="11.5829" r="0.1000" /> 
<circle cx="21.7005" cy="16.4213" r="0.1000" /> 
<circle cx="21.2693" cy="10.2560" r="0.1000" /> 
<circle cx="11.3767" cy="5.1238" r="0.1000" /> 
<circle cx="6.1196" cy="22.0923" r="0.1000" /> 
<circle cx="18.4254" cy="21.6625" r="0.1000" /> 
<circle cx="6.7389" cy="17.8227" r="0.1000" /> 
<circle cx="3.3619" cy="11.8490" r="0.1000" /> 
<circle cx="12.6951" cy="23.9777" r="0.1000" /> 
<circle cx="11.2999" cy="4.0265" r="0.1000" /> 
<circle cx="20.2494" cy="10.6681" r="0.1000" /> 
<circle cx="6.7662" cy="21.2024" r="0.1000" /> 
<circle cx="20.6331" cy="16.1552" r="0.1000" /> 
<circle cx="12.6183" cy="22.8804" r="0.1000" /> 
<circle cx="16.6922" cy="5.1726" r="0.1000" /> 
<circle cx="21.3039" cy="15.6431" r="0.1000" /> 
<circle cx="17.2561" cy="10.1815" r="0.1000" /> 
<circle cx="20.9854" cy="9.6184" r="0.1000" /> 
<circle cx="2.7257" cy="17.7482" r="0.1000" /> 
<circle cx="10.6058" cy="4.0994" r="0.1000" /> 
<circle cx="5.0509" cy="6.8087" r="0.1000" /> 
<circle cx="18.9441" cy="21.1955" r="0.1000" /> 
<circle cx="13.3892" cy="23.9048" r="0.1000" /> 
<circle cx="6.6983" cy="22.4826" r="0.1000" /> 
<circle cx="2.1494" cy="12.2656" r="0.1000" /> 
<circle cx="20.6578" cy="9.0021" r="0.1000" /> 
<circle cx="7.3028" cy="22.8316" r="0.1000" /> 
<circle cx="3.0096" cy="18.3858" r="0.1000" /> 
<circle cx="19.4289" cy="20.6934" r="0.1000" /> 
<circle cx="21.9427" cy="15.0474" r="0.1000" /> 
<circle cx="13.7336" cy="22.1696" r="0.1000" /> 
<circle cx="16.0649" cy="4.8666" r="0.1000" /> 
<circle cx="9.9184" cy="4.2206" r="0.1000" /> 
<circle cx="10.2614" cy="5.8346" r="0.1000" /> 
<circle cx="4.4926" cy="17.6625" r="0.1000" /> 
<circle cx="18.2028" cy="19.5893" r="0.1000" /> 
<circle cx="19.2288" cy="9.8271" r="0.1000" /> 
<circle cx="15.3938" cy="6.3740" r="0.1000" /> 
<circle cx="5.8156" cy="11.9935" r="0.1000" /> 
<circle cx="3.9975" cy="12.5021" r="0.1000" /> 
<circle cx="14.0766" cy="23.7836" r="0.1000" /> 
<circle cx="8.0774" cy="21.3747" r="0.1000" /> 
<circle cx="20.3018" cy="14.8749" r="0.1000" /> 
<circle cx="14.7539" cy="23.6147" r="0.1000" /> 
<circle cx="4.2899" cy="18.4521" r="0.1000" /> 
<circle cx="7.9301" cy="23.1376" r="0.1000" /> 
<circle cx="21.9914" cy="14.3511" r="0.1000" /> 
<circle cx="15.4177" cy="4.6052" r="0.1000" /> 
<circle cx="19.8776" cy="20.1587" r="0.1000" /> 
<circle cx="8.3775" cy="22.1327" r="0.1000" /> 
<circle cx="3.3372" cy="19.0021" r="0.1000" /> 
<circle cx="20.2879" cy="8.4102" r="0.1000" /> 
<circle cx="19.3759" cy="9.0253" r="0.1000" /> 
<circle cx="14.4507" cy="22.5573" r="0.1000" /> 
<circle cx="5.3835" cy="8.0468" r="0.1000" /> 
<circle cx="2.0523" cy="12.9568" r="0.1000" /> 
<circle cx="19.0108" cy="19.4815" r="0.1000" /> 
<circle cx="20.8921" cy="14.3127" r="0.1000" /> 
<circle cx="4.5661" cy="7.3108" r="0.1000" /> 
<circle cx="15.0415" cy="5.6388" r="0.1000" /> 
<circle cx="6.7389" cy="10.1815" r="0.1000" /> 
<circle cx="3.1463" cy="13.0718" r="0.1000" /> 
<circle cx="4.1631" cy="19.2865" r="0.1000" /> 
<circle cx="21.4417" cy="13.6723" r="0.1000" /> 
<circle cx="20.2879" cy="19.5940" r="0.1000" /> 
<circle cx="19.8319" cy="19.2865" r="0.1000" /> 
<circle cx="15.2296" cy="22.8822" r="0.1000" /> 
<circle cx="4.1174" cy="7.8455" r="0.1000" /> 
<circle cx="15.4177" cy="23.3990" r="0.1000" /> 
<circle cx="8.5773" cy="23.3990" r="0.1000" /> 
<circle cx="9.2411" cy="4.3895" r="0.1000" /> 
<circle cx="3.7071" cy="19.5940" r="0.1000" /> 
<circle cx="19.8776" cy="7.8455" r="0.1000" /> 
<circle cx="8.1769" cy="8.7435" r="0.1000" /> 
<circle cx="19.4442" cy="8.1841" r="0.1000" /> 
<circle cx="2.0036" cy="13.6531" r="0.1000" /> 
<circle cx="21.9914" cy="13.6531" r="0.1000" /> 
<circle cx="2.5533" cy="13.6723" r="0.1000" /> 
<circle cx="8.7654" cy="22.8822" r="0.1000" /> 
<circle cx="4.5508" cy="8.1841" r="0.1000" /> 
<circle cx="9.3927" cy="4.9182" r="0.1000" /> 
<circle cx="14.0061" cy="7.8202" r="0.1000" /> 
<circle cx="9.2411" cy="23.6147" r="0.1000" /> 
<circle cx="20.6578" cy="19.0021" r="0.1000" /> 
<circle cx="21.9427" cy="12.9568" r="0.1000" /> 
<circle cx="4.1174" cy="20.1587" r="0.1000" /> 
<circle cx="8.5773" cy="4.6052" r="0.1000" /> 
<circle cx="16.0649" cy="23.1376" r="0.1000" /> 
<circle cx="2.0036" cy="14.3511" r="0.1000" /> 
<circle cx="3.7071" cy="8.4102" r="0.1000" /> 
<circle cx="14.7539" cy="4.3895" r="0.1000" /> 
<circle cx="10.2614" cy="22.1696" r="0.1000" /> 
<circle cx="3.6932" cy="14.8749" r="0.1000" /> 
<circle cx="3.3372" cy="9.0021" r="0.1000" /> 
<circle cx="16.6922" cy="22.8316" r="0.1000" /> 
<circle cx="14.0766" cy="4.2206" r="0.1000" /> 
<circle cx="9.9184" cy="23.7836" r="0.1000" /> 
<circle cx="18.2028" cy="8.4149" r="0.1000" /> 
<circle cx="5.7922" cy="19.5893" r="0.1000" /> 
<circle cx="4.7662" cy="9.8271" r="0.1000" /> 
<circle cx="19.4289" cy="7.3108" r="0.1000" /> 
<circle cx="5.4975" cy="14.0021" r="0.1000" /> 
<circle cx="4.5661" cy="20.6934" r="0.1000" /> 
<circle cx="19.5024" cy="17.6625" r="0.1000" /> 
<circle cx="13.7336" cy="5.8346" r="0.1000" /> 
<circle cx="8.6012" cy="6.3740" r="0.1000" /> 
<circle cx="20.9854" cy="18.3858" r="0.1000" /> 
<circle cx="7.9301" cy="4.8666" r="0.1000" /> 
<circle cx="15.9176" cy="21.3747" r="0.1000" /> 
<circle cx="2.0523" cy="15.0474" r="0.1000" /> 
<circle cx="2.1494" cy="15.7386" r="0.1000" /> 
<circle cx="5.8150" cy="20.4042" r="0.1000" /> 
<circle cx="5.0509" cy="21.1955" r="0.1000" /> 
<circle cx="3.0096" cy="9.6184" r="0.1000" /> 
<circle cx="16.7138" cy="21.5497" r="0.1000" /> 
<circle cx="15.8181" cy="8.7435" r="0.1000" /> 
<circle cx="7.3028" cy="5.1726" r="0.1000" /> 
<circle cx="18.9441" cy="6.8087" r="0.1000" /> 
<circle cx="13.3892" cy="4.0994" r="0.1000" /> 
<circle cx="17.2967" cy="22.4826" r="0.1000" /> 
<circle cx="18.1800" cy="7.6000" r="0.1000" /> 
<circle cx="10.6058" cy="23.9048" r="0.1000" /> 
<circle cx="20.7623" cy="12.4566" r="0.1000" /> 
<circle cx="3.9982" cy="10.1006" r="0.1000" /> 
<circle cx="13.2361" cy="5.1887" r="0.1000" /> 
<circle cx="7.8192" cy="6.1439" r="0.1000" /> 
<circle cx="10.7589" cy="22.8155" r="0.1000" /> 
<circle cx="3.2327" cy="15.5476" r="0.1000" /> 
<circle cx="21.8456" cy="12.2656" r="0.1000" /> 
</g>
<g style="fill:#000000; fill-opacity:1.0000; stroke:none;">
<circle cx="9.1975" cy="8.5021" r="0.5760" /> 
<circle cx="17.4975" cy="16.8021" r="0.5760" /> 
<circle cx="14.7975" cy="8.5021" r="0.5760" /> 
<circle cx="6.4975" cy="16.8021" r="0.5760" /> 
</g>
<g style="fill:#FFFFFF; fill-opacity:1.0000; stroke:none;">
<circle cx="11.9975" cy="1.0021" r="0.5000" /> 
</g> 
</svg>
